<svg id="Group_72178" data-name="Group 72178" xmlns="http://www.w3.org/2000/svg" width="30" height="30" viewBox="0 0 30 30">
  <circle id="Ellipse_3520" data-name="Ellipse 3520" cx="15" cy="15" r="15" fill="#eaf1f1"/>
  <g id="Group_70788" data-name="Group 70788" transform="translate(7 7)">
    <g id="Page-1">
      <g id="_010---Bath-and-Shower" data-name="010---Bath-and-Shower">
        <path id="Shape" d="M15.489,11.142v-.815h.272a.543.543,0,0,0,.543-.543V9.511a1.087,1.087,0,0,0-1.087-1.087H13.454a2.03,2.03,0,0,0-1.8-1.087H8.669a2.048,2.048,0,0,0-1.547.593c-.044-.033-.088-.067-.129-.1A4.424,4.424,0,0,0,4.076,6.794H2.989V1.9a.272.272,0,0,1,.272-.272H4.712a.27.27,0,0,1,.194.082l.386.386a1.9,1.9,0,0,0-.4,1.163.543.543,0,0,0,.543.543H8.152A.554.554,0,0,0,8.7,3.317,1.934,1.934,0,0,0,7.042,1.374c-.061-.008-.121-.011-.182-.013l-.8-.8A1.892,1.892,0,0,0,4.712,0H3.261a1.9,1.9,0,0,0-1.9,1.9V6.794H1.087A1.087,1.087,0,0,0,0,7.881v.272A.543.543,0,0,0,.543,8.7H.815v2.446a3.531,3.531,0,0,0,1.63,2.972v.561H2.174a.815.815,0,0,0-.815.815v.272H.272a.272.272,0,1,0,0,.543H16.033a.272.272,0,1,0,0-.543H14.946v-.272a.815.815,0,0,0-.815-.815h-.272v-.561A3.531,3.531,0,0,0,15.489,11.142Zm.272-1.63v.272H13.7V9.375a2.024,2.024,0,0,0-.042-.408h1.563A.543.543,0,0,1,15.761,9.511ZM13.038,8.8a1.5,1.5,0,0,1,.115.575V12.5a.272.272,0,0,1-.272.272H10.87A.272.272,0,0,1,10.6,12.5V9.375a2.032,2.032,0,0,0-.654-1.495h1.714a1.5,1.5,0,0,1,1.38.919Zm-3.526.575a.92.92,0,0,0-.073-.365.948.948,0,0,0-.874-.586,2.413,2.413,0,0,1-.949-.207,1.495,1.495,0,0,1,2.439,1.158V12.5a.806.806,0,0,0,.05.272H9.783a.272.272,0,0,1-.272-.272ZM8.152,3.261H5.435a1.359,1.359,0,1,1,2.717,0ZM1.9,1.9A1.36,1.36,0,0,1,3.261.543H4.712a1.352,1.352,0,0,1,.963.4l.516.518a1.9,1.9,0,0,0-.509.26L5.29,1.327a.812.812,0,0,0-.578-.24H3.261a.815.815,0,0,0-.815.815V6.794H1.9ZM.543,7.881a.543.543,0,0,1,.543-.543H4.076a3.882,3.882,0,0,1,2.56.9,3,3,0,0,0,1.815.727.564.564,0,0,1,.376.1.41.41,0,0,1,.14.309v.408H8.7a3.892,3.892,0,0,1-2.561-.9,2.981,2.981,0,0,0-1.952-.73H.543Zm.815,3.261V8.7H4.182a2.438,2.438,0,0,1,1.6.6A4.429,4.429,0,0,0,8.7,10.326h.272V12.5a.815.815,0,0,0,.815.815h3.1A.815.815,0,0,0,13.7,12.5V10.326h1.25v.815a2.993,2.993,0,0,1-2.989,2.989H4.348A2.993,2.993,0,0,1,1.359,11.142Zm3.582,3.533h6.423a1.533,1.533,0,0,1,.576,1.087H4.364A1.535,1.535,0,0,1,4.941,14.674ZM1.9,15.761v-.272a.272.272,0,0,1,.272-.272h.543a.272.272,0,0,0,.272-.272V14.4a3.508,3.508,0,0,0,1.215.265,2.187,2.187,0,0,0-.386,1.094Zm11.685-.543h.543a.272.272,0,0,1,.272.272v.272H12.488a2.195,2.195,0,0,0-.388-1.094,3.508,3.508,0,0,0,1.215-.264v.543A.272.272,0,0,0,13.587,15.218Z" transform="translate(0 0)" fill="#3a8891"/>
        <path id="Shape-2" data-name="Shape" d="M9.717,42.446a.272.272,0,0,0-.272-.272,1.9,1.9,0,0,1-1.9-1.9.272.272,0,1,0-.543,0,2.448,2.448,0,0,0,2.446,2.446A.272.272,0,0,0,9.717,42.446Z" transform="translate(-5.098 -29.13)" fill="#3a8891"/>
        <path id="Shape-3" data-name="Shape" d="M24,16.272V17.63a.272.272,0,1,0,.543,0V16.272a.272.272,0,1,0-.543,0Z" transform="translate(-17.478 -11.652)" fill="#3a8891"/>
        <path id="Shape-4" data-name="Shape" d="M18.562,16.17l-.543,1.359a.272.272,0,0,0,.5.2l.543-1.359a.272.272,0,1,0-.5-.2Z" transform="translate(-13.108 -11.651)" fill="#3a8891"/>
        <path id="Shape-5" data-name="Shape" d="M28.523,16.17a.272.272,0,0,0-.5.2l.543,1.359a.272.272,0,1,0,.5-.2Z" transform="translate(-20.39 -11.651)" fill="#3a8891"/>
      </g>
    </g>
  </g>
</svg>
