<svg id="Iconly_Bold_Calendar" data-name="Iconly/Bold/Calendar" xmlns="http://www.w3.org/2000/svg" width="21" height="23" viewBox="0 0 21 23">
  <g id="Calendar">
    <path id="Calendar-2" data-name="Calendar" d="M6.01,23H6a6.061,6.061,0,0,1-4.362-1.588,5.863,5.863,0,0,1-1.623-4.3L0,7.536A5.8,5.8,0,0,1,1.422,3.507,5.8,5.8,0,0,1,5.257,1.76V.9A.882.882,0,0,1,5.513.261a.886.886,0,0,1,.629-.25A.868.868,0,0,1,7.03.9V1.7l6.843-.009V.886a.878.878,0,0,1,.254-.635A.889.889,0,0,1,14.758,0a.868.868,0,0,1,.888.884v.862a5.831,5.831,0,0,1,3.874,1.71,5.694,5.694,0,0,1,1.466,4.007L21,17.153c0,3.594-2.288,5.83-5.983,5.835Zm9.206-6.679a.964.964,0,0,0-.944.979.968.968,0,1,0,.955-.979Zm-9.48,0h0a.984.984,0,0,0-.943.989.953.953,0,0,0,.946.919h.045a.949.949,0,0,0,.659-.3.956.956,0,0,0-.7-1.6Zm4.746-.006h0a.989.989,0,0,0-.943.991.954.954,0,0,0,.949.919h.042a.952.952,0,0,0,.909-.991.942.942,0,0,0-.956-.918ZM5.731,12.183h0a.984.984,0,0,0-.943.989.952.952,0,0,0,.947.919H5.78a.954.954,0,0,0-.047-1.908Zm4.747-.04h0a.985.985,0,0,0-.944.989.954.954,0,0,0,.95.92h.042a.954.954,0,0,0,.908-.991.943.943,0,0,0-.955-.918Zm4.749.007h0a.957.957,0,0,0-.943.965v.013a.943.943,0,0,0,.958.918h.022a.948.948,0,0,0-.033-1.9ZM5.259,3.517C2.943,3.746,1.77,5.1,1.773,7.534l0,.357,17.439-.023v-.4c-.05-2.43-1.249-3.762-3.566-3.961v.885a.876.876,0,0,1-.885.886.87.87,0,0,1-.888-.884v-.93L7.033,3.47l0,.929a.867.867,0,0,1-.886.886A.87.87,0,0,1,5.261,4.4V3.517Z" fill="#3a8891"/>
  </g>
</svg>
