<svg xmlns="http://www.w3.org/2000/svg" width="233.449" height="229.959" viewBox="0 0 233.449 229.959">
  <g id="Recommendation_letter-cuate" data-name="Recommendation letter-cuate" transform="translate(0)">
    <g id="freepik--background-complete--inject-72" transform="translate(3.665)">
      <path id="Path_39882" data-name="Path 39882" d="M110.887,316.91l-1.339,8.042-9.085,49.055H99l6.608-49.055.975-8.042Z" transform="translate(-69.207 -163.681)" fill="#dbdbdb"/>
      <path id="Path_39883" data-name="Path 39883" d="M111.765,316.91h4.3l-1.339,8.042h-3.94Z" transform="translate(-74.39 -163.681)" fill="#c7c7c7"/>
      <path id="Path_39884" data-name="Path 39884" d="M161.792,374.007h-1.468l-9.085-49.055L149.9,316.91h4.31l.975,8.042Z" transform="translate(-91.581 -163.681)" fill="#dbdbdb"/>
      <path id="Path_39885" data-name="Path 39885" d="M154.21,316.91l.975,8.042h-3.945L149.9,316.91Z" transform="translate(-91.581 -163.681)" fill="#c7c7c7"/>
      <path id="Path_39886" data-name="Path 39886" d="M210.407,374.007h-1.463l-9.085-49.055-1.339-8.042h4.31l.975,8.042Z" transform="translate(-112.953 -163.681)" fill="#dbdbdb"/>
      <path id="Path_39887" data-name="Path 39887" d="M203.8,324.952h-3.945l-1.339-8.042h4.31Z" transform="translate(-112.953 -163.681)" fill="#c7c7c7"/>
      <path id="Path_39888" data-name="Path 39888" d="M163.383,280.261H96.82v-5.4l24.917-1.614,8.373-48.31h30.734Z" transform="translate(-68.249 -123.254)" fill="#dbdbdb"/>
      <path id="Path_39889" data-name="Path 39889" d="M210.891,280.261h-3.626L204.9,224.94h3.452Z" transform="translate(-115.757 -123.254)" fill="#c7c7c7"/>
      <rect id="Rectangle_28909" data-name="Rectangle 28909" width="29.344" height="35.593" transform="translate(36.137 7.919)" fill="#ebebeb"/>
      <rect id="Rectangle_28910" data-name="Rectangle 28910" width="22.636" height="29.098" transform="translate(39.494 11.17)" fill="#fff"/>
      <rect id="Rectangle_28911" data-name="Rectangle 28911" width="0.885" height="29.098" transform="translate(39.494 11.17)" fill="#dbdbdb"/>
      <rect id="Rectangle_28912" data-name="Rectangle 28912" width="0.885" height="35.593" transform="translate(65.481 7.919)" fill="#dbdbdb"/>
      <rect id="Rectangle_28913" data-name="Rectangle 28913" width="5.335" height="15.905" transform="translate(47.077 15.182)" fill="#dbdbdb"/>
      <path id="Path_39890" data-name="Path 39890" d="M139.98,97.761H125.19V89.41h14.79ZM125.75,97.2h13.669V89.97H125.75Z" transform="translate(-80.719 -63.68)" fill="#ebebeb"/>
      <rect id="Rectangle_28914" data-name="Rectangle 28914" width="29.344" height="35.593" transform="translate(1.25 45.524)" fill="#ebebeb"/>
      <rect id="Rectangle_28915" data-name="Rectangle 28915" width="22.636" height="29.098" transform="translate(4.607 48.775)" fill="#fff"/>
      <rect id="Rectangle_28916" data-name="Rectangle 28916" width="0.885" height="29.098" transform="translate(4.607 48.775)" fill="#dbdbdb"/>
      <rect id="Rectangle_28917" data-name="Rectangle 28917" width="0.885" height="35.593" transform="translate(30.594 45.524)" fill="#dbdbdb"/>
      <rect id="Rectangle_28918" data-name="Rectangle 28918" width="4.573" height="11.562" transform="translate(13.731 56.296)" fill="#ebebeb"/>
      <path id="Path_39891" data-name="Path 39891" d="M77.515,164.524H64.67V156H77.515Zm-12.285-.56H76.955v-7.4H65.23Z" transform="translate(-54.117 -92.951)" fill="#dbdbdb"/>
      <path id="Path_39892" data-name="Path 39892" d="M75.731,234.417l-7.353.151-3.732.067c-1.25,0-2.505,0-3.755.028h-.247v-.247l-.034-6.271v-.286h.28l7.42.034c2.477,0,4.949.062,7.42.09h.157v.151c0,1.059-.05,2.118-.073,3.166Zm0,0-.078-3.172c0-1.042-.062-2.074-.073-3.1l.151.151c-2.472.028-4.943.09-7.42.09l-7.42.039.28-.28v6.271l-.252-.252h3.671l3.688.067Z" transform="translate(-52.332 -124.538)" fill="#ebebeb"/>
      <path id="Path_39893" data-name="Path 39893" d="M60.961,248.54l-7.353.151-3.732.067c-1.25,0-2.505,0-3.755.028h-.247v-.247l-.034-6.271V242h.28l7.42.034c2.472,0,4.949.062,7.42.09h.157v.151c0,1.059-.045,2.118-.073,3.166Zm0,0-.078-3.178c-.028-1.042-.062-2.074-.073-3.1l.151.151c-2.472.028-4.949.09-7.42.09l-7.42.056.28-.275-.028,6.271-.252-.252c1.222,0,2.444,0,3.671.028l3.688.067Z" transform="translate(-45.84 -130.753)" fill="#ebebeb"/>
      <path id="Path_39894" data-name="Path 39894" d="M351.72,355.767l-7.353.151-3.732.067c-1.25,0-2.505,0-3.755.028h-.247v-.247L336.6,349.5v-.286h.28l7.42.034c2.477,0,4.949.062,7.42.09h.157v.151c0,1.059-.05,2.118-.078,3.166Zm0,0-.078-3.172c0-1.042-.062-2.074-.073-3.1l.151.151c-2.471.028-4.943.09-7.42.09l-7.42.039.28-.28-.028,6.271-.252-.252c1.222,0,2.443,0,3.671.028l3.688.067Z" transform="translate(-173.648 -177.878)" fill="#ebebeb"/>
      <path id="Path_39895" data-name="Path 39895" d="M336.955,369.857l-7.353.151-3.738.067h-4v-.219l-.028-6.271V363.3h.28l7.42.034c2.471,0,4.949.062,7.42.09h.157v.151c0,1.059-.045,2.118-.073,3.166Zm0,0-.078-3.172c-.028-1.042-.062-2.074-.073-3.1l.151.151c-2.471,0-4.949.09-7.42.09l-7.42.039.28-.28-.028,6.271-.252-.252c1.222,0,2.443,0,3.671.028l3.682.067Z" transform="translate(-167.16 -184.072)" fill="#ebebeb"/>
      <path id="Path_39896" data-name="Path 39896" d="M441.8,248.54l-7.359.151-3.733.067c-1.244,0-2.5,0-3.749.028h-.252v-.247l-.028-6.271V242h.28l7.42.034c2.472,0,4.949.062,7.42.09h.151v.151c0,1.059-.045,2.118-.073,3.166Zm0,0-.078-3.172c0-1.042-.067-2.074-.073-3.1l.151.151c-2.472.028-4.949.09-7.42.09l-7.42.034.28-.275-.034,6.271-.247-.252c1.222,0,2.443,0,3.665.028l3.688.067Z" transform="translate(-213.244 -130.753)" fill="#ebebeb"/>
      <path id="Path_39897" data-name="Path 39897" d="M427.07,50.062l-7.359.157-3.732.062c-1.244,0-2.5,0-3.749.034H412v-6.8h.286l7.42.034c2.472,0,4.943.067,7.42.1h.151v.146c0,1.065-.05,2.124-.073,3.166Zm0,0-.078-3.166c-.028-1.048-.067-2.079-.078-3.1l.157.151c-2.477,0-4.949.09-7.42.1l-7.42.034.28-.28-.034,6.271-.247-.252c1.222,0,2.438,0,3.665.034l3.688.062Z" transform="translate(-206.791 -43.504)" fill="#ebebeb"/>
      <path id="Path_39898" data-name="Path 39898" d="M441.8,64.172l-7.359.157-3.733.062c-1.244,0-2.5,0-3.749.034h-.252v-.252L426.68,57.9v-.28h.28l7.42.034c2.472,0,4.949.067,7.42.1h.151V57.9c0,1.065-.045,2.124-.073,3.166Zm0,0-.078-3.166c0-1.048-.067-2.079-.073-3.1l.151.151c-2.472,0-4.949.09-7.42.1l-7.42.034.28-.28-.034,6.271-.247-.252c1.222,0,2.443,0,3.665.034l3.688.062Z" transform="translate(-213.244 -49.707)" fill="#ebebeb"/>
      <path id="Path_39899" data-name="Path 39899" d="M75.731,50.057l-7.353.157-3.732.062c-1.25,0-2.505,0-3.755.034h-.247v-.252L60.61,43.78V43.5h.28l7.42.034c2.477,0,4.949.067,7.42.1h.157v.151c0,1.065-.05,2.124-.073,3.166Zm0,0-.078-3.166c0-1.048-.062-2.079-.073-3.1l.151.151c-2.472,0-4.943.09-7.42.1l-7.42.034.28-.28v6.271l-.252-.252c1.222,0,2.443,0,3.671.034l3.688.062Z" transform="translate(-52.332 -43.5)" fill="#ebebeb"/>
      <path id="Path_39900" data-name="Path 39900" d="M228.475,173.1l-7.353.151-3.732.067h-4v-.247l-.028-6.271v-.286h.28l7.42.034c2.472,0,4.949.062,7.42.09h.157v.151c0,1.059-.045,2.118-.073,3.166Zm0,0-.078-3.172c-.028-1.042-.062-2.074-.073-3.1l.151.151c-2.472,0-4.949.09-7.42.09l-7.42.039.28-.28V173.1l-.252-.252c1.222,0,2.443,0,3.671.028l3.671.078Z" transform="translate(-119.476 -97.571)" fill="#ebebeb"/>
    </g>
    <g id="freepik--Shadows--inject-72" transform="translate(0 209.156)">
      <ellipse id="Ellipse_3560" data-name="Ellipse 3560" cx="21.14" cy="3.676" rx="21.14" ry="3.676" transform="translate(188.11 4.405)" fill="#ebebeb"/>
      <ellipse id="Ellipse_3561" data-name="Ellipse 3561" cx="86.318" cy="10.402" rx="86.318" ry="10.402" fill="#ebebeb"/>
    </g>
    <g id="freepik--Floor--inject-72" transform="translate(2.718 210.052)">
      <path id="Path_39901" data-name="Path 39901" d="M44.15,418.575l28.84-.135,28.84-.05,57.686-.09,57.686.09,28.84.05,28.84.135-28.84.14-28.84.05-57.686.09-57.686-.09-28.84-.05Z" transform="translate(-44.15 -418.3)" fill="#263238"/>
    </g>
    <g id="freepik--Desk--inject-72" transform="translate(2.365 122.545)">
      <rect id="Rectangle_28919" data-name="Rectangle 28919" width="49.453" height="88.611" transform="translate(93.497 4.775)" fill="#37474f"/>
      <rect id="Rectangle_28920" data-name="Rectangle 28920" width="49.453" height="5.924" transform="translate(93.497 4.775)" fill="#263238"/>
      <rect id="Rectangle_28921" data-name="Rectangle 28921" width="164.179" height="4.781" fill="#37474f"/>
      <path id="Path_39902" data-name="Path 39902" d="M57.619,270.68l-.157,5.924-2.085,82.687H51.6V270.68Z" transform="translate(-47.072 -265.905)" fill="#37474f"/>
      <path id="Path_39903" data-name="Path 39903" d="M51.6,270.68h6.019l-.157,5.924H51.6Z" transform="translate(-47.072 -265.905)" fill="#263238"/>
      <rect id="Rectangle_28922" data-name="Rectangle 28922" width="16.757" height="88.611" transform="translate(142.95 4.775)" fill="#455a64"/>
      <rect id="Rectangle_28923" data-name="Rectangle 28923" width="16.757" height="5.924" transform="translate(142.95 4.775)" fill="#263238"/>
    </g>
    <g id="freepik--Letter--inject-72" transform="translate(103.641 7.779)">
      <rect id="Rectangle_28924" data-name="Rectangle 28924" width="123.066" height="157.534" transform="translate(0.14 0.14)" fill="#fff"/>
      <path id="Path_39904" data-name="Path 39904" d="M347.436,215.054l-123.066.062h-.062v-.062L224.23,57.52v-.14h.14l123.066.062h.078v.078Zm0,0L347.358,57.52l.078.078L224.37,57.66l.14-.14-.078,157.534-.062-.062Z" transform="translate(-224.23 -57.38)" fill="#263238"/>
      <path id="Path_39905" data-name="Path 39905" d="M290.57,146.6c2.774-.118,5.548-.174,8.322-.224s5.548-.045,8.322-.067,5.548,0,8.322.067,5.548.106,8.322.224c-2.8.123-5.548.179-8.322.23s-5.548.039-8.322.067-5.548,0-8.322-.073S293.344,146.728,290.57,146.6Z" transform="translate(-253.391 -96.468)" fill="#263238"/>
      <path id="Path_39906" data-name="Path 39906" d="M290.57,152.485c1.737-.123,3.48-.179,5.218-.224s3.48-.045,5.223-.067,3.48,0,5.218.067,3.48.1,5.223.224c-1.743.123-3.48.179-5.223.224s-3.48.045-5.218.067-3.48,0-5.223-.067S292.307,152.608,290.57,152.485Z" transform="translate(-253.391 -99.053)" fill="#263238"/>
      <path id="Path_39907" data-name="Path 39907" d="M290.57,158.359c2.421-.123,4.842-.179,7.286-.224s4.848-.045,7.286-.073,4.842,0,7.286.073,4.842.1,7.286.224c-2.427.123-4.848.179-7.286.224s-4.842.045-7.286.067-4.848,0-7.286-.067S292.991,158.476,290.57,158.359Z" transform="translate(-253.391 -101.631)" fill="#263238"/>
      <path id="Path_39908" data-name="Path 39908" d="M250.57,266.445c1.782-.123,3.564-.179,5.341-.224s3.564-.045,5.347-.067,3.559,0,5.341.067,3.564.1,5.341.224c-1.777.123-3.559.179-5.341.224s-3.564.045-5.341.067-3.564,0-5.347-.067S252.352,266.568,250.57,266.445Z" transform="translate(-235.808 -149.145)" fill="#263238"/>
      <path id="Path_39909" data-name="Path 39909" d="M250.57,272.319c2.057-.123,4.119-.179,6.165-.224s4.119-.045,6.165-.073,4.119,0,6.165.067,4.114.106,6.165.23c-2.062.118-4.119.174-6.165.224s-4.119.045-6.165.067-4.114,0-6.165-.067S252.627,272.436,250.57,272.319Z" transform="translate(-235.808 -151.723)" fill="#263238"/>
      <path id="Path_39910" data-name="Path 39910" d="M250.57,305.771c3.234-.123,6.473-.179,9.707-.224l9.712-.067,9.707.067c3.239.045,6.473.1,9.712.224-3.239.123-6.473.179-9.712.224l-9.707.067L260.277,306C257.043,305.945,253.8,305.884,250.57,305.771Z" transform="translate(-235.808 -166.435)" fill="#263238"/>
      <path id="Path_39911" data-name="Path 39911" d="M250.57,278.2c1.255-.118,2.511-.174,3.766-.224s2.516-.062,3.772-.067,2.511,0,3.766.067,2.511.107,3.772.224c-1.261.123-2.516.179-3.772.23s-2.511.056-3.766.067-2.516,0-3.772-.073S251.825,278.323,250.57,278.2Z" transform="translate(-235.808 -154.315)" fill="#263238"/>
      <path id="Path_39912" data-name="Path 39912" d="M252.4,296.7c.93-.639,1.889-1.25,2.875-1.81a13.486,13.486,0,0,1,3.1-1.4,3.929,3.929,0,0,1,.432-.084.443.443,0,0,1,.471.157,1.648,1.648,0,0,1,.2.88,10.163,10.163,0,0,1-.179,1.709,34.013,34.013,0,0,1-.779,3.318,51.355,51.355,0,0,1-2.242,6.423,9.472,9.472,0,0,1-.807,1.524,1.776,1.776,0,0,1-.3.359.46.46,0,0,1-.3.129.3.3,0,0,1-.2-.073l-.107-.1a1.766,1.766,0,0,1-.241-.908,11.641,11.641,0,0,1,.6-3.363,19.615,19.615,0,0,1,1.278-3.166,9.684,9.684,0,0,1,2-2.8,3.172,3.172,0,0,1,1.569-.745,1.911,1.911,0,0,1,.885.073,1.407,1.407,0,0,1,.622.645,4.682,4.682,0,0,0,.471.678.7.7,0,0,0,.689.23,4.68,4.68,0,0,0,1.424-.835c.224-.174.448-.347.678-.51a3.162,3.162,0,0,1,.375-.224.426.426,0,0,1,.471,0c.219.28.163.56.275.829a.51.51,0,0,0,.56.37,5.151,5.151,0,0,0,1.244-1.087c.387-.415.757-.841,1.121-1.267.74-.857,1.468-1.726,2.242-2.567.381-.426.768-.841,1.177-1.239a6.961,6.961,0,0,1,.65-.56,1.764,1.764,0,0,1,.387-.23.561.561,0,0,1,.247-.056.32.32,0,0,1,.263.14,1.519,1.519,0,0,1,.118.9,7.275,7.275,0,0,1-.14.852,15.244,15.244,0,0,1-.454,1.648,16.365,16.365,0,0,1-1.351,3.144,3.363,3.363,0,0,1-.56.712.622.622,0,0,1-.5.2,1.406,1.406,0,0,1-.454-.129,2.118,2.118,0,0,1-1.121-1.384.79.79,0,0,1,.067-.532.561.561,0,0,1,.219-.207.594.594,0,0,1,.291-.067,3.267,3.267,0,0,1,.88.213c.56.191,1.065.42,1.586.644s1.031.46,1.552.667a6.91,6.91,0,0,0,.785.28,2.549,2.549,0,0,0,.376.084.56.56,0,0,0,.308-.067c.426-.213.712-.74,1.121-1.16a1.356,1.356,0,0,1,.869-.443.409.409,0,0,1,.465.46,2.41,2.41,0,0,1-.084.46c-.078.258-.112.56-.039.588a1.694,1.694,0,0,0,.65-.034,4.287,4.287,0,0,0,1.423-.745,7.744,7.744,0,0,1,.723-.488,1.4,1.4,0,0,1,.947-.224,3.514,3.514,0,0,1,1.452,1.048,3.7,3.7,0,0,0,.605.527c.1.062.191.084.219.062a2.472,2.472,0,0,0,.325-.2,12.791,12.791,0,0,0,1.272-1.076,14.386,14.386,0,0,0,2.191-2.522,2.858,2.858,0,0,0,.56-1.463c0-.51-.521-.74-1.065-.824a9.174,9.174,0,0,0-3.318.045,8.2,8.2,0,0,0-1.6.454,3.166,3.166,0,0,0-.717.392c-.207.151-.4.37-.336.56a1,1,0,0,0,.56.493c.241.123.516.207.779.314a15.681,15.681,0,0,0,1.614.476,37.551,37.551,0,0,0,6.725.639v.039a35.851,35.851,0,0,1-6.781-.493,15.182,15.182,0,0,1-1.642-.46,7.291,7.291,0,0,1-.807-.314,1.188,1.188,0,0,1-.667-.633.846.846,0,0,1,.415-.835,3.806,3.806,0,0,1,.762-.432,9.168,9.168,0,0,1,1.653-.493,9.69,9.69,0,0,1,3.435-.09,2.388,2.388,0,0,1,.863.291,1.031,1.031,0,0,1,.488.835,3.1,3.1,0,0,1-.56,1.681,14.011,14.011,0,0,1-2.242,2.612,14.816,14.816,0,0,1-1.317,1.121,2.409,2.409,0,0,1-.4.241.628.628,0,0,1-.56-.084,4.169,4.169,0,0,1-.684-.56,3.318,3.318,0,0,0-1.244-.942c-.415-.062-.9.325-1.351.645a4.619,4.619,0,0,1-1.564.813,1.255,1.255,0,0,1-1-.034.622.622,0,0,1-.2-.56,3.167,3.167,0,0,1,.09-.448,2.318,2.318,0,0,0,.078-.37v-.05c0,.017,0,0-.05,0a1,1,0,0,0-.605.325c-.387.353-.645.9-1.244,1.222a.93.93,0,0,1-.51.1,2.589,2.589,0,0,1-.454-.1,8.135,8.135,0,0,1-.813-.3c-.527-.213-1.048-.448-1.564-.678s-1.031-.46-1.552-.645a2.981,2.981,0,0,0-.768-.2c-.179,0-.28.151-.23.392a1.782,1.782,0,0,0,.936,1.155,1.211,1.211,0,0,0,.359.112.4.4,0,0,0,.252-.118,2.958,2.958,0,0,0,.488-.639,18.04,18.04,0,0,0,1.833-4.685,7.049,7.049,0,0,0,.146-.824,1.435,1.435,0,0,0-.067-.757c-.078-.146-.4.039-.6.185a7.293,7.293,0,0,0-.639.56c-.409.387-.8.8-1.177,1.216-.762.835-1.5,1.681-2.242,2.544-.375.42-.751.846-1.121,1.261a5.145,5.145,0,0,1-1.311,1.121.633.633,0,0,1-.729-.448c-.106-.263-.1-.6-.247-.768-.073-.067-.213,0-.331.045a3.268,3.268,0,0,0-.347.219c-.23.163-.448.342-.673.516a4.568,4.568,0,0,1-1.48.88.869.869,0,0,1-.852-.269,4.25,4.25,0,0,1-.5-.7c-.146-.235-.3-.482-.532-.56a1.608,1.608,0,0,0-.785-.05,2.9,2.9,0,0,0-1.452.712,9.449,9.449,0,0,0-1.905,2.729,19.02,19.02,0,0,0-1.227,3.133,11.3,11.3,0,0,0-.56,3.284,1.435,1.435,0,0,0,.179.712l.05.05h0a.168.168,0,0,0,.078-.05,1.418,1.418,0,0,0,.241-.291,11.447,11.447,0,0,0,.785-1.468,50.907,50.907,0,0,0,2.231-6.428,33.813,33.813,0,0,0,.807-3.284,9.971,9.971,0,0,0,.191-1.681,1.468,1.468,0,0,0-.146-.757c-.073-.09-.134-.112-.286-.084a3.983,3.983,0,0,0-.4.073,15,15,0,0,0-3.094,1.323c-1,.532-1.967,1.121-2.92,1.732Z" transform="translate(-236.613 -160.066)" fill="#263238"/>
      <path id="Path_39913" data-name="Path 39913" d="M236.01,98.583l13.232-.106,13.232-.034,26.464-.073,26.469.073,13.232.034,13.232.106-13.232.1-13.232.039-26.469.067-26.464-.067-13.232-.039Z" transform="translate(-229.246 -75.398)" fill="#3a8891"/>
      <path id="Path_39914" data-name="Path 39914" d="M294.87,114.46c3.682-.112,7.358-.168,11.041-.213s7.364-.039,11.046-.067l11.041.067,5.52.078c1.838.045,3.682.073,5.52.135-1.838.067-3.682.1-5.52.14l-5.52.078-11.041.062c-3.682,0-7.364,0-11.046-.062S298.552,114.578,294.87,114.46Z" transform="translate(-255.281 -82.347)" fill="#263238"/>
      <path id="Path_39915" data-name="Path 39915" d="M310.34,120.054c2.242-.112,4.483-.168,6.725-.213s4.483-.045,6.725-.067,4.483,0,6.725.067l3.363.078c1.121.045,2.242.073,3.363.134-1.121.067-2.242.09-3.363.14l-3.363.078c-2.242.045-4.483.039-6.725.062s-4.483,0-6.725-.067S312.576,120.171,310.34,120.054Z" transform="translate(-262.081 -84.802)" fill="#263238"/>
      <path id="Path_39916" data-name="Path 39916" d="M307.4,125.924c2.511-.112,5.044-.168,7.532-.213s5.044-.045,7.532-.067,5.044,0,7.527.067l3.766.078c1.255.045,2.511.073,3.766.135-1.255.067-2.511.09-3.766.14l-3.766.078c-2.511.045-5.044.039-7.527.062s-5.044,0-7.532-.062S309.911,126.041,307.4,125.924Z" transform="translate(-260.789 -87.382)" fill="#263238"/>
      <path id="Path_39917" data-name="Path 39917" d="M251.13,186.88l11.646-.135,11.651-.078,23.3-.067,23.3.067,11.651.078,11.646.135-11.646.14-11.651.078-23.3.062-23.3-.062-11.651-.084Z" transform="translate(-236.054 -114.18)" fill="#263238"/>
      <path id="Path_39918" data-name="Path 39918" d="M251.13,193.09l11.646-.134,11.651-.078,23.3-.067,23.3.067,11.651.073,11.646.14-11.646.135-11.651.078-23.3.067-23.3-.067-11.651-.078Z" transform="translate(-236.054 -116.91)" fill="#263238"/>
      <path id="Path_39919" data-name="Path 39919" d="M251.13,199.3l10.956-.14,10.957-.078,21.919-.062,21.919.062,10.957.078,10.956.14-10.956.135-10.957.078-21.919.067-21.919-.067-10.957-.078Z" transform="translate(-236.054 -119.64)" fill="#263238"/>
      <path id="Path_39920" data-name="Path 39920" d="M251.13,205.5c5-.112,10-.168,15-.213l15-.062,15,.062,7.5.078,7.5.135-7.5.14-7.5.078-15,.062-15-.062C261.145,205.662,256.129,205.622,251.13,205.5Z" transform="translate(-236.054 -122.369)" fill="#263238"/>
      <path id="Path_39921" data-name="Path 39921" d="M251.13,211.71c6.546-.112,13.1-.168,19.649-.213l19.649-.067,19.649.067,9.824.078,9.824.135-9.824.14-9.824.078-19.649.062-19.649-.067C264.227,211.878,257.676,211.828,251.13,211.71Z" transform="translate(-236.054 -125.094)" fill="#263238"/>
      <path id="Path_39922" data-name="Path 39922" d="M251.13,217.92l11.646-.135,11.651-.078,23.3-.067,23.3.062,11.651.084,11.646.135-11.646.135-11.651.078-23.3.067-23.3-.067-11.651-.078Z" transform="translate(-236.054 -127.824)" fill="#263238"/>
      <path id="Path_39923" data-name="Path 39923" d="M251.13,230.335l11.646-.135,11.651-.078,23.3-.062,23.3.062,11.651.078,11.646.135-11.646.14-11.651.078-23.3.062-23.3-.062-11.651-.078Z" transform="translate(-236.054 -133.284)" fill="#263238"/>
      <path id="Path_39924" data-name="Path 39924" d="M251.13,236.54c6.546-.112,13.1-.168,19.649-.213l19.649-.067,19.649.067,9.824.078,9.824.135-9.824.14-9.824.078-19.649.062-19.649-.067C264.227,236.708,257.676,236.675,251.13,236.54Z" transform="translate(-236.054 -136.009)" fill="#263238"/>
      <path id="Path_39925" data-name="Path 39925" d="M251.13,242.78c5.223-.118,10.447-.168,15.692-.213l15.692-.067,15.692.062,7.846.078,7.846.14-7.846.135-7.846.078-15.692.067-15.692-.067C261.576,242.932,256.353,242.881,251.13,242.78Z" transform="translate(-236.054 -138.752)" fill="#263238"/>
      <path id="Path_39946" data-name="Path 39946" d="M255.068,158.735a7.925,7.925,0,0,0,2.354.953,8.132,8.132,0,1,0-2.354-.953Z" transform="translate(-236.052 -95.293)" fill="#ebebeb"/>
      <path id="Path_39947" data-name="Path 39947" d="M261.2,154.589a2.477,2.477,0,1,0,2.443-2.5A2.477,2.477,0,0,0,261.2,154.589Z" transform="translate(-240.481 -99.011)" fill="#fff"/>
      <path id="Path_39948" data-name="Path 39948" d="M258.108,165.481v1.02a7.925,7.925,0,0,0,2.354.953,8.054,8.054,0,0,0,6.165-1.059V165.38a4.276,4.276,0,0,0-8.547.1Z" transform="translate(-239.109 -103.06)" fill="#fff"/>
      <text id="Lease" transform="translate(46.555 17.314)" fill="#3a8891" font-size="9" font-family="GreatVibes-Regular, Great Vibes" letter-spacing="0.2em"><tspan x="0" y="0">Lease</tspan></text>
    </g>
    <g id="freepik--Plant--inject-72" transform="translate(185.241 144.873)">
      <path id="Path_39949" data-name="Path 39949" d="M389.787,362.777s-8.306-1.883-12.862-6.075-7.1-11.7-7.1-11.7a71.269,71.269,0,0,1,9.314,2.449,15.547,15.547,0,0,1,2.8,3.985,19.107,19.107,0,0,0,0-2.847,12.519,12.519,0,0,1,2.959,1.793C388.722,353.676,389.787,362.777,389.787,362.777Z" transform="translate(-369.83 -320.901)" fill="#3a8891"/>
      <path id="Path_39950" data-name="Path 39950" d="M376.39,349.58c-1.121-.785-2.287-1.541-3.413-2.331a.063.063,0,1,1,.067-.106c2.141,1.278,4.248,2.64,6.294,4.074.712.5,1.407,1.02,2.1,1.547l-.146-.247c-.252-.415-.51-.824-.773-1.233a18.157,18.157,0,0,0-1.765-2.354s0-.067.039-.039c.65.745,1.295,1.48,1.883,2.275q.42.56.79,1.16c.129.207.252.415.375.628l.123.219c1.076.841,2.118,1.721,3.116,2.651.617.56,1.211,1.171,1.788,1.782-.325-1-.605-2.023-.975-3.01,0-.034.045-.05.056,0,.359,1.037.757,2.085,1.037,3.15.633.689,1.244,1.4,1.816,2.141a.234.234,0,0,0-.028-.135c-.1-.392-.2-.785-.3-1.171-.2-.751-.426-1.5-.678-2.242a13.024,13.024,0,0,0-2.242-4.215s0-.067.039-.039a16.157,16.157,0,0,1,3.183,6.647c.09.353.174.706.252,1.065.045.185.1.376.123.56.252.342.5.684.734,1.031a35.806,35.806,0,0,1,3.514,6.893,78.565,78.565,0,0,1,2.662,8.3c0,.056-.067.073-.084,0-1.625-4.859-3.284-9.791-6.064-14.134q-.885-1.379-1.894-2.656a15.763,15.763,0,0,1-4.041-.807,18,18,0,0,1-4.052-1.95c-.729-.476-1.4-1.026-2.074-1.569-.028-.028,0-.073.034-.045a16.606,16.606,0,0,0,3.811,2.3,20.834,20.834,0,0,0,4.192,1.407c.611.135,1.233.235,1.855.319a35.146,35.146,0,0,0-2.444-2.7c-.28-.28-.56-.56-.857-.818a19.838,19.838,0,0,0-3.071-1.754c-1.362-.661-2.7-1.356-4.052-2.04-.757-.387-1.513-.785-2.281-1.16-.028,0,0-.062.034-.045,1.362.656,2.752,1.272,4.13,1.905s2.606,1.188,3.85,1.889l.157.1c-1.121-.981-2.287-1.917-3.48-2.8C378.643,351.178,377.522,350.365,376.39,349.58Z" transform="translate(-371.2 -321.839)" fill="#263238"/>
      <path id="Path_39951" data-name="Path 39951" d="M379.9,359.139c.673.3,1.362.56,2.034.874s1.339.695,1.99,1.082c.028,0,0,.056-.028.045-.661-.319-1.334-.616-1.99-.942s-1.334-.7-2.023-1C379.852,359.178,379.869,359.128,379.9,359.139Z" transform="translate(-374.242 -327.115)" fill="#263238"/>
      <path id="Path_39952" data-name="Path 39952" d="M436.679,302a11.864,11.864,0,0,0-2.483,6.9c-.028.745.09,1.782.179,3a19.739,19.739,0,0,0-5.425,4.668,9.9,9.9,0,0,1,5.481-1.311,16.2,16.2,0,0,1-.319,2.483,9.257,9.257,0,0,0-3.52.7,7.919,7.919,0,0,1,3.172.628c-1.48,4.713-5.879,9.527-18.035,11.607a25.522,25.522,0,0,1,2.152-17.1C421.525,306.388,436.679,302,436.679,302Z" transform="translate(-389.737 -302)" fill="#3a8891"/>
      <path id="Path_39953" data-name="Path 39953" d="M408.353,353.346q.319-3.021.79-6.019a121.01,121.01,0,0,1,2.449-11.9,48.135,48.135,0,0,1,1.754-5.419,9.458,9.458,0,0,1-.045-.975c0-.387,0-.779,0-1.166,0-.779.045-1.558.112-2.331a28.411,28.411,0,0,1,.745-4.556c.224-.869.482-1.721.734-2.578,0-.034.067,0,.056,0a32.827,32.827,0,0,0-.9,4.551,42.693,42.693,0,0,0-.409,4.562v1.81a39.3,39.3,0,0,1,2.051-4.237,52.111,52.111,0,0,1,4.158-6.226,2.8,2.8,0,0,1,.1-.678c.056-.275.118-.56.179-.813.123-.56.263-1.121.415-1.681.3-1.121.7-2.163,1.042-3.251a.028.028,0,0,1,.056,0c-.325,1.076-.56,2.191-.785,3.284-.118.56-.235,1.087-.359,1.631-.056.269-.118.56-.174.813a.289.289,0,0,1,0,.062c.493-.622.992-1.233,1.508-1.833,2.32-2.724,4.865-5.234,7.426-7.728l.958-.908s.062,0,.039.045c-2.449,2.55-4.859,5.134-7.14,7.846q-.818.958-1.6,1.95c.275-.191.56-.37.829-.56.706-.465,1.423-.914,2.163-1.328s1.48-.818,2.242-1.194,1.614-.7,2.365-1.121c.034,0,.062.039.028.05a17.446,17.446,0,0,0-2.242,1.227c-.74.437-1.48.88-2.2,1.345s-1.435.9-2.146,1.356c-.56.387-1.171.807-1.782,1.16a57.34,57.34,0,0,0-3.9,5.666,41.372,41.372,0,0,0-2.023,3.867l.432-.185,1.121-.493,2.152-.942c1.362-.594,2.746-1.121,4.086-1.788a19.241,19.241,0,0,0,2.18-1.211c.028,0,.056.028.028.05a48.75,48.75,0,0,1-8.048,4.147l-1.194.527c-.331.146-.656.308-1,.437a41.954,41.954,0,0,0-2.057,5.621A114.186,114.186,0,0,0,409.911,346c-.7,3.968-1.171,7.964-1.536,11.977-.045.5-.09,1-.146,1.5a.162.162,0,0,1-.319,0C407.96,357.409,408.145,355.369,408.353,353.346Z" transform="translate(-386.569 -304.532)" fill="#263238"/>
      <path id="Path_39954" data-name="Path 39954" d="M421.548,326.332c.224-1.239.56-2.444.885-3.654,0-.034.062,0,.05,0-.3,1.188-.527,2.4-.751,3.6s-.426,2.46-.6,3.7H421.1A32.079,32.079,0,0,1,421.548,326.332Z" transform="translate(-392.366 -311.083)" fill="#263238"/>
      <path id="Path_39955" data-name="Path 39955" d="M431.231,333a22.184,22.184,0,0,1,2.64-1.491l1.339-.661c.465-.224.947-.409,1.4-.644.034,0,.062.034,0,.05-.443.224-.863.493-1.3.734s-.9.493-1.351.734a29.883,29.883,0,0,1-2.7,1.4.067.067,0,0,1-.034-.118Z" transform="translate(-396.81 -314.396)" fill="#263238"/>
      <path id="Path_39956" data-name="Path 39956" d="M392.814,334.54s-7.684-1.838-11.209-6.994c-3.363-4.926-4.484-13.316-4.545-14.056.134.678,1.721,8.014,6.955,11.433C388.016,327.54,391.889,329.692,392.814,334.54Z" transform="translate(-373.008 -307.051)" fill="#263238" opacity="0.1"/>
      <path id="Path_39957" data-name="Path 39957" d="M392.481,327.345a9.775,9.775,0,0,1,2.836,4.668h0a11.479,11.479,0,0,0-2.853-4.629C392.419,327.362,392.458,327.322,392.481,327.345Z" transform="translate(-379.77 -313.138)" fill="#263238"/>
      <path id="Path_39958" data-name="Path 39958" d="M392.812,334.5s-7.684-1.838-11.209-6.994c-3.363-4.926-4.483-13.316-4.545-14.056a.179.179,0,0,1,0-.05s3.688,5.24,7.56,6.574S393.922,325.931,392.812,334.5Z" transform="translate(-373.007 -307.011)" fill="#3a8891"/>
      <path id="Path_39959" data-name="Path 39959" d="M379.419,318.541A31.282,31.282,0,0,0,381.8,322.6a16.415,16.415,0,0,0,3.161,3.256c1.048.829,2.152,1.58,3.206,2.393v-.039c-.2-.291-.409-.56-.628-.857-.443-.56-.925-1.093-1.407-1.62-.958-1.037-1.934-2.051-2.8-3.172a11.546,11.546,0,0,1-1.233-1.99c0-.034.034-.05.05,0,1.25,2.6,3.738,4.259,5.515,6.456a11.045,11.045,0,0,1,.712.97,4.242,4.242,0,0,1,.443.779,16.527,16.527,0,0,1,2.623,2.651,11.159,11.159,0,0,0-.308-1.491,7.424,7.424,0,0,0-.818-1.945.03.03,0,0,1,.05-.034,9.468,9.468,0,0,1,.9,1.934,7.041,7.041,0,0,1,.28,1.681h0a15.312,15.312,0,0,1,1.042,1.62c-.034-.168-.067-.331-.1-.493-.157-.768-.325-1.53-.521-2.287a13.735,13.735,0,0,0-1.849-4.332c0-.028.028-.062.045-.028a16.459,16.459,0,0,1,2.051,4.237c.241.751.443,1.519.611,2.292.084.381.163.757.235,1.121.039.2.078.4.112.6a27.876,27.876,0,0,1,1.771,5.212,77.139,77.139,0,0,1,1.642,9.718,81.509,81.509,0,0,1,.527,10.323c0,.432-.034.863-.056,1.295a.09.09,0,1,1-.179,0c-.073-1.681-.118-3.413-.219-5.117s-.247-3.407-.432-5.106a90.429,90.429,0,0,0-1.6-9.942,25.6,25.6,0,0,0-2.965-8.1,15.5,15.5,0,0,0-2.774-3.3c-1.076-.964-2.242-1.81-3.391-2.707a18.532,18.532,0,0,1-3.116-2.993,24.821,24.821,0,0,1-2.444-3.968c-.179-.347-.37-.695-.56-1.042C379.357,318.541,379.4,318.513,379.419,318.541Z" transform="translate(-374.022 -309.266)" fill="#263238"/>
      <path id="Path_39960" data-name="Path 39960" d="M381.784,320.548a26.34,26.34,0,0,0,1.709,3s0,.045-.034,0a21.568,21.568,0,0,1-1.732-3C381.711,320.537,381.767,320.52,381.784,320.548Z" transform="translate(-375.058 -310.146)" fill="#263238"/>
      <path id="Path_39961" data-name="Path 39961" d="M439.122,345s.123,10.923-6.406,14.078-10.037.527-14.476,1.586h0c.174-.263,3.363-4.814,8.379-6.07C431.808,353.283,437.553,349.54,439.122,345Z" transform="translate(-391.109 -320.901)" fill="#3a8891"/>
      <path id="Path_39962" data-name="Path 39962" d="M439.122,345s.123,10.923-6.406,14.078-10.037.527-14.476,1.586h0a24.586,24.586,0,0,1,7.437-2.214C429.8,357.957,437.665,355.273,439.122,345Z" transform="translate(-391.109 -320.901)" opacity="0.1"/>
      <path id="Path_39963" data-name="Path 39963" d="M413.467,366.065a11.034,11.034,0,0,1,2.595-1.76c.14-.067.286-.118.426-.179s.146-.174.219-.252a5.741,5.741,0,0,1,.617-.56,8.813,8.813,0,0,1,1.317-.947c1.082-.639,2.242-1.082,3.363-1.681,0,0,.056.034,0,.05-.56.286-1.082.6-1.608.908s-1.048.594-1.552.919a11.394,11.394,0,0,0-1.295.964c-.112.1-.224.213-.336.325a17.807,17.807,0,0,1,2.208-.588c1.2-.241,2.4-.415,3.6-.667a16.883,16.883,0,0,0,1.737-.465c.56-.437,1.082-.874,1.592-1.345a13.4,13.4,0,0,0,1.681-1.872c0-.028.067,0,.045,0a19.686,19.686,0,0,1-2.679,2.953c.286-.107.56-.219.835-.342a13.45,13.45,0,0,0,5.565-4.635c0-.028.073,0,.05.034a15.243,15.243,0,0,1-4.483,4.321,13.641,13.641,0,0,1-2.847,1.345,26.158,26.158,0,0,1-3.536.835,25.031,25.031,0,0,0-3.458.824,10.367,10.367,0,0,0-2.9,1.53,13.59,13.59,0,0,0-3.923,4.853,24.338,24.338,0,0,0-2.152,7.986c0,.118-.2.118-.191,0C408.714,374.035,409.925,369.277,413.467,366.065Z" transform="translate(-386.762 -326.123)" fill="#263238"/>
      <path id="Path_39964" data-name="Path 39964" d="M431,364.918a3.805,3.805,0,0,1,1.345-1.222,4.908,4.908,0,0,0,1.6-1.317c0-.034.067,0,.045.028a5.3,5.3,0,0,1-1.407,1.261,4.988,4.988,0,0,0-1.541,1.272C431,364.963,431,364.963,431,364.918Z" transform="translate(-396.718 -328.534)" fill="#263238"/>
      <path id="Path_39965" data-name="Path 39965" d="M412.178,387.66l-.3,6.008-.913,18.349h-13.7l-.908-18.349-.3-6.008Z" transform="translate(-381.36 -339.653)" fill="#37474f"/>
      <path id="Path_39966" data-name="Path 39966" d="M412.178,387.66l-.3,6.008H396.357l-.3-6.008Z" transform="translate(-381.36 -339.653)" fill="#263238"/>
      <rect id="Rectangle_28925" data-name="Rectangle 28925" width="18.04" height="5.728" transform="translate(13.736 45.496)" fill="#37474f"/>
    </g>
  </g>
</svg>
