<svg id="Group_71449" data-name="Group 71449" xmlns="http://www.w3.org/2000/svg" width="19.502" height="19.502" viewBox="0 0 19.502 19.502">
  <g id="Group_71450" data-name="Group 71450">
    <g id="Group_71449-2" data-name="Group 71449">
      <path id="Path_41817" data-name="Path 41817" d="M16.252,0V4.063H19.5v7.313h-3.25V19.5H4.875L0,14.626V0Zm2.438,10.564V4.875H6.5v5.688ZM4.875,18.353V14.626H1.149ZM.813,13.814H5.688v4.875h9.751V11.376H5.688V4.063h9.751V.813H.813Z"/>
    </g>
  </g>
  <g id="Group_71452" data-name="Group 71452" transform="translate(14.805 5.92)">
    <g id="Group_71451" data-name="Group 71451">
      <path id="Path_41818" data-name="Path 41818" d="M48.077,118.778a2.446,2.446,0,0,0,.034.456.788.788,0,0,0,.093.268.294.294,0,0,0,.139.127.468.468,0,0,0,.173.032.408.408,0,0,0,.2-.047.339.339,0,0,0,.141-.18,1.4,1.4,0,0,0,.083-.378,6.087,6.087,0,0,0,.027-.639c0-.247-.006-.456-.02-.626a1.954,1.954,0,0,0-.068-.415.466.466,0,0,0-.134-.228.325.325,0,0,0-.217-.072.337.337,0,0,0-.329.174,1.277,1.277,0,0,0-.089.555h-.7a3.331,3.331,0,0,1,.027-.407,1.073,1.073,0,0,1,.134-.4.821.821,0,0,1,.323-.31,1.212,1.212,0,0,1,.592-.122,1.269,1.269,0,0,1,.628.134.91.91,0,0,1,.358.373,1.637,1.637,0,0,1,.161.573,7.3,7.3,0,0,1,0,1.459,1.612,1.612,0,0,1-.161.57.856.856,0,0,1-.358.366,1.331,1.331,0,0,1-.628.127,1.273,1.273,0,0,1-.563-.108.82.82,0,0,1-.336-.3,1.229,1.229,0,0,1-.163-.444,3.15,3.15,0,0,1-.044-.536Z" transform="translate(-47.376 -116.56)"/>
    </g>
  </g>
  <g id="Group_71454" data-name="Group 71454" transform="translate(11.739 5.917)">
    <g id="Group_71453" data-name="Group 71453">
      <path id="Path_41819" data-name="Path 41819" d="M107.277,118.77a.676.676,0,0,1,.1-.241.876.876,0,0,1,.2-.2,1.588,1.588,0,0,1,.326-.184l.541-.234a.6.6,0,0,0,.293-.2.5.5,0,0,0,.068-.271.62.62,0,0,0-.017-.151.317.317,0,0,0-.063-.131.335.335,0,0,0-.124-.09.5.5,0,0,0-.2-.034.325.325,0,0,0-.293.134.711.711,0,0,0-.087.384h-.673v-.1a1.043,1.043,0,0,1,.08-.427.779.779,0,0,1,.224-.292.892.892,0,0,1,.341-.166,1.717,1.717,0,0,1,.431-.051,1.152,1.152,0,0,1,.79.254.972.972,0,0,1,.288.77,1.216,1.216,0,0,1-.054.379.777.777,0,0,1-.168.288,1.057,1.057,0,0,1-.285.217,2.585,2.585,0,0,1-.4.171,2.7,2.7,0,0,0-.295.115.75.75,0,0,0-.193.124.391.391,0,0,0-.1.153.6.6,0,0,0-.032.2.4.4,0,0,0,.129.324.447.447,0,0,0,.29.1.584.584,0,0,0,.226-.039.358.358,0,0,0,.145-.108.4.4,0,0,0,.073-.168,1.216,1.216,0,0,0,.019-.221v-.1h.7v.141a1.008,1.008,0,0,1-.255.741,1.169,1.169,0,0,1-.852.258,1.407,1.407,0,0,1-.89-.252.958.958,0,0,1-.319-.8A1.342,1.342,0,0,1,107.277,118.77Z" transform="translate(-107.248 -116.512)"/>
    </g>
  </g>
  <g id="Group_71456" data-name="Group 71456" transform="translate(8.626 5.985)">
    <g id="Group_71455" data-name="Group 71455">
      <path id="Path_41820" data-name="Path 41820" d="M165.639,117.856l.517,2.574h.015l.49-2.574h.751l-.8,3.481h-.9l-.8-3.481Z" transform="translate(-164.912 -117.856)"/>
    </g>
  </g>
</svg>
