<svg id="Group_71399" data-name="Group 71399" xmlns="http://www.w3.org/2000/svg" width="57" height="57" viewBox="0 0 57 57">
  <circle id="Ellipse_6" data-name="Ellipse 6" cx="28.5" cy="28.5" r="28.5" fill="#eaf1f1"/>
  <g id="Group_31" data-name="Group 31" transform="translate(7.382 9.175)">
    <path id="Path_23" data-name="Path 23" d="M22.666,34.332A11.666,11.666,0,1,0,11,22.666,11.68,11.68,0,0,0,22.666,34.332Zm0-21.537a9.871,9.871,0,1,1-9.871,9.871A9.883,9.883,0,0,1,22.666,12.795Z" transform="translate(-11 3.358)" fill="#3a8891" stroke="#3a8891" stroke-width="0.2"/>
    <path id="Path_24" data-name="Path 24" d="M21.177,23.974a.9.9,0,0,0,.635-.262l3.59-3.59a.9.9,0,0,0-1.269-1.269l-2.911,2.911-5.65-6.458a.9.9,0,1,0-1.35,1.183L20.5,23.669a.892.892,0,0,0,.644.305h.029Z" transform="translate(-7.716 6.537)" fill="#3a8891" stroke="#3a8891" stroke-width="0.2"/>
    <path id="Path_25" data-name="Path 25" d="M26.024,35.306H38.588a4.492,4.492,0,0,0,4.487-4.487V7.487A4.492,4.492,0,0,0,38.588,3H4.487A4.492,4.492,0,0,0,0,7.487V18.256a.9.9,0,1,0,1.795,0V7.487A2.7,2.7,0,0,1,4.487,4.795h34.1A2.7,2.7,0,0,1,41.28,7.487V30.819a2.7,2.7,0,0,1-2.692,2.692H26.024a.9.9,0,1,0,0,1.795Z" transform="translate(0 -3)" fill="#3a8891" stroke="#3a8891" stroke-width="0.2"/>
    <path id="Path_26" data-name="Path 26" d="M4.487,22.358H17.05a.9.9,0,0,0,.9-.9V8.9a.9.9,0,0,0-.9-.9H4.487A4.492,4.492,0,0,0,0,12.487v5.384A4.492,4.492,0,0,0,4.487,22.358Zm11.666-1.795H4.487a2.7,2.7,0,0,1-2.692-2.692V12.487A2.7,2.7,0,0,1,4.487,9.795H16.153Z" transform="translate(25.127 0.974)" fill="#3a8891" stroke="#3a8891" stroke-width="0.2"/>
    <path id="Path_27" data-name="Path 27" d="M6.59,17.179A3.59,3.59,0,1,0,3,13.59,3.593,3.593,0,0,0,6.59,17.179Zm0-5.384A1.795,1.795,0,1,1,4.795,13.59,1.8,1.8,0,0,1,6.59,11.795Z" transform="translate(27.511 2.563)" fill="#3a8891" stroke="#3a8891" stroke-width="0.2"/>
  </g>
</svg>
