<svg id="Group_71401" data-name="Group 71401" xmlns="http://www.w3.org/2000/svg" width="57" height="57" viewBox="0 0 57 57">
  <ellipse id="Ellipse_7" data-name="Ellipse 7" cx="28.5" cy="28.5" rx="28.5" ry="28.5" transform="translate(0)" fill="#e2f7e8"/>
  <g id="Group_35" data-name="Group 35" transform="translate(5.403 8.847)">
    <path id="Path_25" data-name="Path 25" d="M27.7,37.392H41.079a4.782,4.782,0,0,0,4.777-4.777V7.777A4.782,4.782,0,0,0,41.079,3H4.777A4.782,4.782,0,0,0,0,7.777V19.24a.955.955,0,0,0,1.911,0V7.777A2.869,2.869,0,0,1,4.777,4.911h36.3a2.869,2.869,0,0,1,2.866,2.866V32.615a2.869,2.869,0,0,1-2.866,2.866H27.7a.955.955,0,1,0,0,1.911Z" transform="translate(0 -3)" fill="#1fc250" stroke="#1fc250" stroke-width="0.2"/>
    <path id="Path_26" data-name="Path 26" d="M4.777,23.285H18.151a.956.956,0,0,0,.955-.955V8.955A.956.956,0,0,0,18.151,8H4.777A4.782,4.782,0,0,0,0,12.777v5.732A4.782,4.782,0,0,0,4.777,23.285ZM17.2,21.374H4.777a2.869,2.869,0,0,1-2.866-2.866V12.777A2.869,2.869,0,0,1,4.777,9.911H17.2Z" transform="translate(26.749 1.553)" fill="#1fc250" stroke="#1fc250" stroke-width="0.2"/>
    <path id="Path_27" data-name="Path 27" d="M6.821,17.643A3.821,3.821,0,1,0,3,13.821,3.825,3.825,0,0,0,6.821,17.643Zm0-5.732a1.911,1.911,0,1,1-1.911,1.911A1.913,1.913,0,0,1,6.821,11.911Z" transform="translate(29.481 3.374)" fill="#1fc250" stroke="#1fc250" stroke-width="0.2"/>
    <g id="Group_36" data-name="Group 36" transform="translate(0 15.794)">
      <path id="Path_36" data-name="Path 36" d="M3.637,3.637A12.419,12.419,0,0,1,21.2,21.2,12.419,12.419,0,0,1,3.637,3.637Zm15.81,17.188a7.1,7.1,0,0,0-7.029-6.253,7.078,7.078,0,0,0-7.029,6.252,10.94,10.94,0,0,0,14.058,0Zm-7.029-7.751A3.772,3.772,0,1,0,8.646,9.3,3.776,3.776,0,0,0,12.418,13.074ZM4.137,19.6a8.555,8.555,0,0,1,5.355-5.964,5.227,5.227,0,1,1,5.851,0A8.547,8.547,0,0,1,20.7,19.594a10.963,10.963,0,1,0-16.564,0Zm0,0" transform="translate(0.001 0)" fill="#1fc250" stroke="#1fc250" stroke-width="0.2"/>
    </g>
  </g>
</svg>
