<svg xmlns="http://www.w3.org/2000/svg" width="25.2" height="29.2" viewBox="0 0 25.2 29.2">
  <g id="Iconly_Light-outline_Notification" data-name="Iconly/Light-outline/Notification" transform="translate(0.1 0.1)">
    <g id="Notification">
      <path id="Notification-2" data-name="Notification" d="M11.831,28.964A5.155,5.155,0,0,1,8.4,27.069a1.012,1.012,0,1,1,1.584-1.261,3.122,3.122,0,0,0,2.079,1.146,3.179,3.179,0,0,0,2.319-.646,2.793,2.793,0,0,0,.523-.5,1.013,1.013,0,0,1,1.58,1.268,4.808,4.808,0,0,1-.877.846,5.2,5.2,0,0,1-3.781,1.045ZM5.9,22.977a7.246,7.246,0,0,1-4.538-2.209A5.835,5.835,0,0,1,0,16.91v-.345A5.881,5.881,0,0,1,.985,13.6l.1-.125a5.567,5.567,0,0,0,1.366-2.64l-.023.089,0-.775.017-.864c.013-.38.034-.723.062-1.048A8.64,8.64,0,0,1,5.786,2.359,10.577,10.577,0,0,1,12.448,0h.106a10.589,10.589,0,0,1,6.661,2.358,8.7,8.7,0,0,1,3.29,5.885c.025.287.037.549.041.938v.976c0,.159,0,.3.007.446l.013.284.066.271A5.624,5.624,0,0,0,23.7,13.235l.221.257.091.115A5.805,5.805,0,0,1,25,16.615V17.2a5.845,5.845,0,0,1-1.42,3.62,7.077,7.077,0,0,1-4.48,2.156,62.088,62.088,0,0,1-6.607.354A62.033,62.033,0,0,1,5.9,22.977ZM2.627,14.789h0l-.114.187a3.854,3.854,0,0,0-.461,1.361l-.025.277v.317a3.818,3.818,0,0,0,.846,2.487,5.165,5.165,0,0,0,3.232,1.545,60.322,60.322,0,0,0,6.386.341,60.45,60.45,0,0,0,6.407-.342,5.079,5.079,0,0,0,3.172-1.494,3.832,3.832,0,0,0,.9-2.572v-.236a3.709,3.709,0,0,0-.639-1.918l.022.037-.2-.235a7.646,7.646,0,0,1-1.49-2.894l-.1-.4-.019-.134c-.016-.213-.024-.386-.028-.581l0-1.312c0-.33-.012-.553-.032-.793-.343-3.533-3.9-6.406-7.933-6.406h-.106c-4.034,0-7.586,2.87-7.919,6.4-.016.176-.029.371-.042.612l-.023.677-.011,1.332-.021.206a7.587,7.587,0,0,1-1.795,3.53h0Z" fill="#3a8891" stroke="#eaf1f1" stroke-width="0.2"/>
    </g>
  </g>
</svg>
