<svg id="Group_71404" data-name="Group 71404" xmlns="http://www.w3.org/2000/svg" width="57" height="57" viewBox="0 0 57 57">
  <circle id="Ellipse_8" data-name="Ellipse 8" cx="28.5" cy="28.5" r="28.5" fill="#e5f4f5"/>
  <g id="Group_47" data-name="Group 47" transform="translate(6.401 5.065)">
    <g id="Group_46" data-name="Group 46">
      <path id="Path_48" data-name="Path 48" d="M120.755,464h6.038a.755.755,0,0,1,0,1.51h-6.038a.755.755,0,0,1,0-1.51Z" transform="translate(-92.076 -420.982)" fill="#1fb1c2" stroke="#1fb1c2" stroke-width="0.1"/>
      <path id="Path_49" data-name="Path 49" d="M18.641,22.339H34.113v-11.7A2.644,2.644,0,0,1,36.754,8H58.64a2.644,2.644,0,0,1,2.641,2.641V52.15a2.644,2.644,0,0,1-2.641,2.641H36.754a2.644,2.644,0,0,1-2.641-2.641V41.207H18.641A2.644,2.644,0,0,1,16,38.565V24.981a2.644,2.644,0,0,1,2.641-2.641ZM44.136,9.509l.377,1.509h6.368l.377-1.509ZM35.622,52.15a1.133,1.133,0,0,0,1.132,1.132H58.64a1.133,1.133,0,0,0,1.132-1.132V10.641A1.133,1.133,0,0,0,58.64,9.509H52.815L52.2,11.956a.755.755,0,0,1-.732.572H43.924a.755.755,0,0,1-.732-.572l-.612-2.447H36.754a1.133,1.133,0,0,0-1.132,1.132ZM34.113,33.66H31.849v3.019h2.264Zm-16.6,4.906A1.133,1.133,0,0,0,18.641,39.7H34.113V38.188H31.094a.755.755,0,0,1-.755-.755V32.9a.755.755,0,0,1,.755-.755h3.019V29.886h-16.6Zm0-10.188h16.6V26.867h-16.6Zm0-3.019h16.6V23.849H18.641a1.133,1.133,0,0,0-1.132,1.132Z" transform="translate(-16 -8)" fill="#1fb1c2" stroke="#1fb1c2" stroke-width="0.1"/>
      <path id="Path_50" data-name="Path 50" d="M376.755,264h6.792a.755.755,0,0,1,0,1.509h-6.792a.755.755,0,1,1,0-1.509Z" transform="translate(-372.981 -239.85)" fill="#1fb1c2" stroke="#1fb1c2" stroke-width="0.1"/>
      <path id="Path_51" data-name="Path 51" d="M376.755,288h6.792a.755.755,0,0,1,0,1.509h-6.792a.755.755,0,1,1,0-1.509Z" transform="translate(-372.981 -261.586)" fill="#1fb1c2" stroke="#1fb1c2" stroke-width="0.1"/>
      <path id="Path_52" data-name="Path 52" d="M416.755,312h3.019a.755.755,0,0,1,0,1.509h-3.019a.755.755,0,0,1,0-1.509Z" transform="translate(-412.981 -283.322)" fill="#1fb1c2" stroke="#1fb1c2" stroke-width="0.1"/>
      <path id="Path_53" data-name="Path 53" d="M73.056,160A9.056,9.056,0,1,1,64,169.056,9.056,9.056,0,0,1,73.056,160Zm0,16.6a7.547,7.547,0,1,0-7.547-7.547A7.547,7.547,0,0,0,73.056,176.6Z" transform="translate(-41.359 -145.661)" fill="#1fb1c2" stroke="#1fb1c2" stroke-width="0.1"/>
      <path id="Path_54" data-name="Path 54" d="M113.288,224.221l4.82,4.82,2.5-1.871a.755.755,0,1,1,.906,1.207l-3.019,2.264a.755.755,0,0,1-.986-.07l-5.283-5.283a.755.755,0,1,1,1.067-1.067Z" transform="translate(-85.585 -203.623)" fill="#1fb1c2" stroke="#1fb1c2" stroke-width="0.1"/>
    </g>
  </g>
</svg>
