<svg xmlns="http://www.w3.org/2000/svg" width="20.258" height="20.247" viewBox="0 0 20.258 20.247">
  <g id="Group_71352" data-name="Group 71352" style="mix-blend-mode: luminosity;isolation: isolate">
    <g id="real_estate_office" transform="translate(0)">
      <g id="Group_70368" data-name="Group 70368">
        <path id="Path_56" data-name="Path 56" d="M7.213,16.759l5.062-2.713V9.43a.383.383,0,0,1,.4-.4h.4V7.4a.383.383,0,0,1,.4-.4h7.289a.383.383,0,0,1,.4.4v1.62h.4a.383.383,0,0,1,.4.4v3.24h4.859a.383.383,0,0,1,.4.4V26.842a.383.383,0,0,1-.4.4H7.416a.383.383,0,0,1-.4-.4C7.011,16.354,6.93,16.921,7.213,16.759ZM20.374,7.81H13.895V9.025h6.479ZM21.994,23.6h2.835v-.81H21.994Zm0-3.644h2.835v-.81H21.994Zm0-3.644h2.835V15.5H21.994Zm4.454-2.835H21.994v1.215h3.24a.383.383,0,0,1,.4.4v1.62a.383.383,0,0,1-.4.4h-3.24v1.215h3.24a.383.383,0,0,1,.4.4v1.62a.383.383,0,0,1-.4.4h-3.24v1.215h3.24a.383.383,0,0,1,.4.4v1.62a.383.383,0,0,1-.4.4h-3.24v2.025h4.454ZM21.184,9.835h-8.1v16.6H14.3V22.388a.383.383,0,0,1,.4-.4h4.859a.383.383,0,0,1,.4.4v4.049h1.215Zm-2.025,16.6V22.793H15.11v3.644Zm-11.338,0h4.454V14.977L7.821,17.367Z" transform="translate(-7 -7)"/>
        <path id="Path_57" data-name="Path 57" d="M27.025,19.43H25.4a.383.383,0,0,1-.4-.4V17.4a.383.383,0,0,1,.4-.4h1.62a.383.383,0,0,1,.4.4v1.62A.383.383,0,0,1,27.025,19.43Zm-.4-1.62h-.81v.81h.81Z" transform="translate(-14.461 -12.951)"/>
        <path id="Path_58" data-name="Path 58" d="M35.025,19.43H33.4a.383.383,0,0,1-.4-.4V17.4a.383.383,0,0,1,.4-.4h1.62a.383.383,0,0,1,.4.4v1.62A.383.383,0,0,1,35.025,19.43Zm-.4-1.62h-.81v.81h.81Z" transform="translate(-25.7 -12.951)"/>
        <path id="Path_59" data-name="Path 59" d="M27.025,28.43H25.4a.383.383,0,0,1-.4-.4V26.4a.383.383,0,0,1,.4-.4h1.62a.383.383,0,0,1,.4.4v1.62A.383.383,0,0,1,27.025,28.43Zm-.4-1.62h-.81v.81h.81Z" transform="translate(-14.461 -18.306)"/>
        <path id="Path_60" data-name="Path 60" d="M35.025,28.43H33.4a.383.383,0,0,1-.4-.4V26.4a.383.383,0,0,1,.4-.4h1.62a.383.383,0,0,1,.4.4v1.62A.383.383,0,0,1,35.025,28.43Zm-.4-1.62h-.81v.81h.81Z" transform="translate(-25.7 -18.306)"/>
        <path id="Path_61" data-name="Path 61" d="M27.025,37.43H25.4a.383.383,0,0,1-.4-.4V35.4a.383.383,0,0,1,.4-.4h1.62a.383.383,0,0,1,.4.4v1.62A.383.383,0,0,1,27.025,37.43Zm-.4-1.62h-.81v.81h.81Z" transform="translate(-14.461 -23.662)"/>
        <path id="Path_62" data-name="Path 62" d="M35.025,37.43H33.4a.383.383,0,0,1-.4-.4V35.4a.383.383,0,0,1,.4-.4h1.62a.383.383,0,0,1,.4.4v1.62A.383.383,0,0,1,35.025,37.43Zm-.4-1.62h-.81v.81h.81Z" transform="translate(-25.7 -23.662)"/>
        <path id="Path_63" data-name="Path 63" d="M48.025,37.43H46.4a.383.383,0,0,1-.4-.4V35.4a.383.383,0,0,1,.4-.4h1.62a.383.383,0,0,1,.4.4v1.62A.383.383,0,0,1,48.025,37.43Zm-.4-1.62h-.81v.81h.81Z" transform="translate(-43.965 -23.662)"/>
        <path id="Path_64" data-name="Path 64" d="M48.025,46.43H46.4a.383.383,0,0,1-.4-.4V44.4a.383.383,0,0,1,.4-.4h1.62a.383.383,0,0,1,.4.4v1.62A.383.383,0,0,1,48.025,46.43Zm-.4-1.62h-.81v.81h.81Z" transform="translate(-43.965 -29.017)"/>
      </g>
    </g>
  </g>
</svg>
