<svg xmlns="http://www.w3.org/2000/svg" width="21.093" height="21.1" viewBox="0 0 21.093 21.1">
  <g id="Group_71353" data-name="Group 71353" transform="translate(0.101 0.1)">
    <path id="Path_13" data-name="Path 13" d="M61.056,44.727a.337.337,0,0,1,0,.674H56.337a.337.337,0,0,1,0-.674h.674V42.7h-.674a.337.337,0,0,1-.219-.593l2.36-2.023a.337.337,0,0,1,.438,0l2.36,2.023a.337.337,0,0,1-.219.593h-.674v2.023ZM58.7,40.788,57.247,42.03h2.9ZM59.708,42.7H57.685v2.023h2.023Zm0,0" transform="translate(-42.861 -38.322)" stroke="#fff" stroke-width="0.2"/>
    <path id="Path_14" data-name="Path 14" d="M66.45,208.674H56.337a.337.337,0,1,1,0-.674H66.45a.337.337,0,0,1,0,.674Zm0,0" transform="translate(-48.255 -199.236)" stroke="#fff" stroke-width="0.2"/>
    <path id="Path_15" data-name="Path 15" d="M62.4,272.674H56.337a.337.337,0,0,1,0-.674H62.4a.337.337,0,0,1,0,.674Zm0,0" transform="translate(-44.21 -260.539)" stroke="#fff" stroke-width="0.2"/>
    <path id="Path_16" data-name="Path 16" d="M56.337,336h7.416a.337.337,0,1,1,0,.674H56.337a.337.337,0,1,1,0-.674Zm0,0" transform="translate(-45.558 -321.842)" stroke="#fff" stroke-width="0.2"/>
    <path id="Path_17" data-name="Path 17" d="M56.337,400h3.034a.337.337,0,1,1,0,.674H56.337a.337.337,0,1,1,0-.674Zm0,0" transform="translate(-41.176 -383.146)" stroke="#fff" stroke-width="0.2"/>
    <path id="Path_18" data-name="Path 18" d="M224.337,272h1.348a.337.337,0,0,1,0,.674h-1.348a.337.337,0,1,1,0-.674Zm0,0" transform="translate(-214.569 -260.539)" stroke="#fff" stroke-width="0.2"/>
    <path id="Path_19" data-name="Path 19" d="M.166,5.124l1.689-1a.338.338,0,0,1,.463.118L5.386,9.414V4.382a.337.337,0,0,1,.026-.126.3.3,0,0,1,.027-.044.327.327,0,0,1,.036-.057L9.183.109l.006,0a.354.354,0,0,1,.084-.06c.009,0,.016-.013.026-.017A.339.339,0,0,1,9.431,0H20.555a.337.337,0,0,1,.337.337V20.562a.337.337,0,0,1-.337.337H5.723a.337.337,0,0,1-.337-.337v-5.98l-1.63-2.747L.048,5.586a.337.337,0,0,1,.118-.462ZM1.488,6.691,6.846,15.72l.258-.151L1.746,6.539Zm6.666,9.045-.793.463.941.631Zm-.468-.507.27-.159L2.6,6.034,2.325,6.2ZM9.094,1.2,6.49,4.045h2.6ZM6.061,20.225H20.218V.674H9.769V4.382a.337.337,0,0,1-.337.337H6.061v5.73a.338.338,0,0,1-.015.076L8.71,15.018a.308.308,0,0,1,.021.061.346.346,0,0,1,.022.064l.316,2.338a.337.337,0,0,1-.522.325l-2.01-1.348s-.006-.008-.01-.011a.339.339,0,0,1-.09-.095l0,0-.375-.631ZM1.144,6.111l.546-.324.561-.334-.344-.58L.8,5.532Zm0,0" transform="translate(-0.001 0)" stroke="#fff" stroke-width="0.2"/>
  </g>
</svg>
