<svg xmlns="http://www.w3.org/2000/svg" width="15.366" height="15.366" viewBox="0 0 15.366 15.366">
  <g id="Iconly_Light-outline_Folder" data-name="Iconly/Light-outline/Folder" transform="translate(0.1 0.1)">
    <g id="Folder">
      <path id="Folder-2" data-name="Folder" d="M4.723,15.166A4.76,4.76,0,0,1,1.263,13.9,4.758,4.758,0,0,1,0,10.443V4.723A5.313,5.313,0,0,1,1.009,1.209,3.9,3.9,0,0,1,4.135,0H5.6A2.23,2.23,0,0,1,7.377.889l.669.891a1.134,1.134,0,0,0,.9.45h2.073c2.83,0,4.148,1.453,4.148,4.572l-.02,3.641a4.762,4.762,0,0,1-1.261,3.46,4.753,4.753,0,0,1-3.456,1.263ZM1.1,4.723v5.72a3.644,3.644,0,0,0,.94,2.682,3.647,3.647,0,0,0,2.683.94h5.706a3.636,3.636,0,0,0,2.679-.941,3.652,3.652,0,0,0,.939-2.684l.02-3.64a3.967,3.967,0,0,0-.693-2.669,2.93,2.93,0,0,0-2.357-.8H8.943a2.239,2.239,0,0,1-1.776-.889L6.5,1.551a1.127,1.127,0,0,0-.9-.45H4.135C2.007,1.1,1.1,2.184,1.1,4.723Zm2.955,5.339a.55.55,0,0,1-.074-1.1l.074-.005h7.03a.551.551,0,0,1,.074,1.1l-.074,0Z" stroke="#eaf1f1" stroke-width="0.2"/>
    </g>
  </g>
</svg>
