<svg id="Group_71458" data-name="Group 71458" xmlns="http://www.w3.org/2000/svg" width="17.463" height="19.274" viewBox="0 0 17.463 19.274">
  <g id="Group_71457" data-name="Group 71457" transform="translate(0)">
    <path id="Path_41821" data-name="Path 41821" d="M24.308,2.924,26.973.259A.88.88,0,0,1,27.6,0H38.816A.887.887,0,0,1,39.7.886V9.656h.623a1.189,1.189,0,0,1,1.188,1.188v5.432a1.189,1.189,0,0,1-1.188,1.188H30.97a.887.887,0,0,1-.886-.886V12.353a.887.887,0,0,1,.886-.886h9.355a.623.623,0,1,0,0-1.246H39.7v.321a.282.282,0,1,1-.565,0V.886a.322.322,0,0,0-.321-.321H27.933V3.3a.585.585,0,0,1-.584.584H24.614v14.5a.322.322,0,0,0,.321.321H38.816a.322.322,0,0,0,.321-.321.282.282,0,1,1,.565,0,.887.887,0,0,1-.886.886H24.935a.887.887,0,0,1-.886-.886V3.55A.88.88,0,0,1,24.308,2.924Zm16.016,9.108H30.97a.322.322,0,0,0-.321.321v4.225a.322.322,0,0,0,.321.321h9.355a.624.624,0,0,0,.623-.623V11.855A1.18,1.18,0,0,1,40.325,12.032ZM27.368,3.3V.662L24.711,3.319h2.638A.019.019,0,0,0,27.368,3.3Z" transform="translate(-24.049 0)"/>
    <path id="Path_41822" data-name="Path 41822" d="M230.325,347.889a.282.282,0,0,1-.282-.282v-.939h-.612a.282.282,0,0,1,0-.565h.612v-.611h-.689a.282.282,0,1,1,0-.565h.971a.282.282,0,0,1,.282.282v2.4A.282.282,0,0,1,230.325,347.889Z" transform="translate(-220.861 -331.943)"/>
    <path id="Path_41823" data-name="Path 41823" d="M157.484,348.467a.282.282,0,0,1-.2.082h0c-.02,0-.493,0-.682-.005a1.313,1.313,0,0,1-1.2-1.449c0-.869.494-1.454,1.228-1.454h.663a.282.282,0,0,1,.282.283v0h0v2.3a.4.4,0,0,1-.088.238Zm-.858-2.261c-.489,0-.664.459-.664.889,0,.6.326.878.649.884l.392,0c0-.277,0-1.488,0-1.777Z" transform="translate(-145.053 -332.63)"/>
    <path id="Path_41824" data-name="Path 41824" d="M89.594,347.671a.282.282,0,0,1-.282-.282v-.768h-.39a.964.964,0,1,1,0-1.927h.672a.282.282,0,0,1,.282.282h0v2.414A.282.282,0,0,1,89.594,347.671Zm-.672-2.414a.4.4,0,1,0,0,.8h.387c0-.144,0-.648,0-.8h-.389Z" transform="translate(-74.818 -331.716)"/>
    <path id="Path_41825" data-name="Path 41825" d="M186.416,87.26a4.546,4.546,0,0,1,1.786.914.788.788,0,0,1,.156,1.03.674.674,0,0,1-.57.342.751.751,0,0,1-.268-.052,2.715,2.715,0,0,1-1.1-1.1c-.131-.2-.263-.42-.4-.659l-.147-.042a14.081,14.081,0,0,0-2.489-.452,3.454,3.454,0,0,1-1.406.929.788.788,0,0,1-.991-.572.587.587,0,0,1,.286-.714,2.915,2.915,0,0,1,1.442-.242c.144,0,.3.008.455.017a11.274,11.274,0,0,0,1.552-2.051q-.029-.1-.055-.2a4.3,4.3,0,0,1-.2-1.629c.083-.527.423-.6.565-.61a.753.753,0,0,1,.874.655,2.7,2.7,0,0,1-.346,1.417c-.066.141-.141.287-.222.435q.046.147.1.305A16.224,16.224,0,0,0,186.416,87.26Zm1.356,1.72c.02,0,.054.007.112-.083a.174.174,0,0,0,.009-.2,2.155,2.155,0,0,0-1.039-.677C187.289,88.692,187.614,88.961,187.772,88.98ZM181.527,87.4a.1.1,0,0,0,0,.019c.07.215.165.235.326.2a2.042,2.042,0,0,0,.725-.414C181.829,87.209,181.565,87.345,181.527,87.4Zm3.823-4.5c-.012-.081-.024-.171-.239-.171h-.043c-.064.078-.1.427.051,1.117A2.017,2.017,0,0,0,185.35,82.9Zm-.393,2.409c-.124.19-.257.383-.4.575-.2.275-.432.561-.674.834.28.034.569.077.858.13.2.036.537.1.936.2q-.133-.275-.261-.57C185.248,86.1,185.091,85.7,184.957,85.313Z" transform="translate(-176.929 -79.074)"/>
  </g>
</svg>
