<svg id="Group_72179" data-name="Group 72179" xmlns="http://www.w3.org/2000/svg" width="35" height="35" viewBox="0 0 35 35">
  <circle id="Ellipse_3519" data-name="Ellipse 3519" cx="17.5" cy="17.5" r="17.5" fill="#eaf1f1"/>
  <g id="Group_70787" data-name="Group 70787" transform="translate(6.778 10)">
    <g id="Group_70786" data-name="Group 70786" transform="translate(0 0)">
      <g id="Group_70785" data-name="Group 70785">
        <path id="Path_39536" data-name="Path 39536" d="M3.125,88.514h.347V85.736A1.738,1.738,0,0,1,5.208,84H17.014a1.738,1.738,0,0,1,1.736,1.736v2.778H19.1a3.129,3.129,0,0,1,3.125,3.125V96.5h-.694v2.431H19.792V96.5H2.431v2.431H.694V96.5H0V91.639A3.129,3.129,0,0,1,3.125,88.514Zm14.931-2.778a1.042,1.042,0,0,0-1.042-1.042H5.208a1.042,1.042,0,0,0-1.042,1.042v2.778H5.208V87.125A1.042,1.042,0,0,1,6.25,86.083H9.375a1.042,1.042,0,0,1,1.042,1.042v1.389h1.389V87.125a1.042,1.042,0,0,1,1.042-1.042h3.125a1.042,1.042,0,0,1,1.042,1.042v1.389h1.042ZM5.9,87.125v1.389h3.82V87.125a.347.347,0,0,0-.347-.347H6.25A.347.347,0,0,0,5.9,87.125Zm6.6,0v1.389h3.82V87.125a.347.347,0,0,0-.347-.347H12.847A.347.347,0,0,0,12.5,87.125Zm7.986,11.111h.347V96.5h-.347Zm-19.1,0h.347V96.5H1.389ZM.694,95.806H21.528V94.07H.694Zm0-2.431H21.528V91.639A2.433,2.433,0,0,0,19.1,89.208H3.125A2.433,2.433,0,0,0,.694,91.639Z" transform="translate(0 -84)" fill="#3a8891"/>
      </g>
    </g>
  </g>
</svg>
