<svg id="Group_72177" data-name="Group 72177" xmlns="http://www.w3.org/2000/svg" width="30" height="30" viewBox="0 0 30 30">
  <circle id="Ellipse_3521" data-name="Ellipse 3521" cx="15" cy="15" r="15" fill="#eaf1f1"/>
  <g id="Group_70792" data-name="Group 70792" transform="translate(7.241 8)">
    <g id="Group_70791" data-name="Group 70791">
      <path id="Path_39537" data-name="Path 39537" d="M0,2.6V0H2.6V.868h9.55V0h2.6V2.6h-.868v9.55h.868v2.6h-2.6v-.868H2.6v.868H0v-2.6H.868V2.6ZM1.736.868H.868v.868h.868Zm12.155,0h-.868v.868h.868Zm-.868,13.023h.868v-.868h-.868Zm-12.155,0h.868v-.868H.868Zm.868-1.736H2.6v.868h9.55v-.868h.868V2.6h-.868V1.736H2.6V2.6H1.736Z" fill="#3a8891"/>
    </g>
  </g>
</svg>
