<svg xmlns="http://www.w3.org/2000/svg" width="411.655" height="270.024" viewBox="0 0 411.655 270.024">
  <g id="Group_70675" data-name="Group 70675" transform="translate(0 0)">
    <g id="Group_70671" data-name="Group 70671" transform="translate(0 0)">
      <g id="Group_67995" data-name="Group 67995" transform="translate(51.772 198.018)">
        <g id="Group_67994" data-name="Group 67994">
          <path id="Path_38831" data-name="Path 38831" d="M74.354,195.561c-2.214-7.842-12.406-7.081-12.406-7.081l.281,5.453c5.89-1.017,9.552,5.888,9.552,5.888Z" transform="translate(-61.948 -188.46)" fill="#e0e0e0"/>
        </g>
      </g>
      <g id="Group_67997" data-name="Group 67997" transform="translate(257.847 83.452)">
        <g id="Group_67996" data-name="Group 67996">
          <path id="Path_38832" data-name="Path 38832" d="M197.532,121.3c11.822,3.581,19.177-10.053,19.177-10.053l-7.193-4.1c-3.516,8.352-15.324,7.386-15.324,7.386Z" transform="translate(-194.193 -107.153)" fill="#e0e0e0"/>
        </g>
      </g>
      <g id="Group_67999" data-name="Group 67999" transform="translate(372.561 179.331)">
        <g id="Group_67998" data-name="Group 67998">
          <path id="Path_38833" data-name="Path 38833" d="M280.554,180.83c-2.286-6.519-10.871-5.337-10.871-5.337l.524,4.6c4.933-1.171,8.4,4.479,8.4,4.479Z" transform="translate(-269.683 -175.409)" fill="#e0e0e0"/>
        </g>
      </g>
      <g id="Group_68001" data-name="Group 68001" transform="translate(201.414 0)">
        <g id="Group_68000" data-name="Group 68000">
          <path id="Path_38834" data-name="Path 38834" d="M167.575,53.587c-2.287-6.519-10.871-5.338-10.871-5.338l.525,4.6c4.931-1.171,8.394,4.478,8.394,4.478Z" transform="translate(-156.704 -48.165)" fill="#e0e0e0"/>
        </g>
      </g>
      <g id="Group_68003" data-name="Group 68003" transform="translate(76.761 97.962)">
        <g id="Group_68002" data-name="Group 68002">
          <path id="Path_38835" data-name="Path 38835" d="M82.234,123.1c-2.288-6.52-10.871-5.338-10.871-5.338l.524,4.6c4.931-1.17,8.4,4.479,8.4,4.479Z" transform="translate(-71.363 -117.674)" fill="#ebebeb"/>
        </g>
      </g>
      <g id="Group_68005" data-name="Group 68005" transform="translate(45.276 27.896)">
        <g id="Group_68004" data-name="Group 68004">
          <path id="Path_38836" data-name="Path 38836" d="M63.682,71.409c-6.818,1.119-7.147,9.778-7.147,9.778l4.622.283c-.3-5.06,5.87-7.488,5.87-7.488Z" transform="translate(-56.535 -71.409)" fill="#ebebeb"/>
        </g>
      </g>
      <g id="Group_68007" data-name="Group 68007" transform="translate(0 255.273)">
        <g id="Group_68006" data-name="Group 68006">
          <path id="Path_38837" data-name="Path 38837" d="M22.149,242.754C33.97,246.335,41.325,232.7,41.325,232.7l-7.193-4.1c-3.515,8.352-15.322,7.386-15.322,7.386Z" transform="translate(-18.81 -228.603)" fill="#ebebeb"/>
        </g>
      </g>
      <g id="Group_68009" data-name="Group 68009" transform="translate(404.522 91.484)">
        <g id="Group_68008" data-name="Group 68008">
          <path id="Path_38838" data-name="Path 38838" d="M303.378,120.877c.8-5.474-5.73-7.825-5.73-7.825l-1.336,3.459c3.933,1,4.291,6.295,4.291,6.295Z" transform="translate(-296.313 -113.052)" fill="#e0e0e0"/>
        </g>
      </g>
      <g id="Group_68011" data-name="Group 68011" transform="translate(369.549 25.575)">
        <g id="Group_68010" data-name="Group 68010">
          <path id="Path_38839" data-name="Path 38839" d="M269.909,69.475c-4.61,3.059-2,9.49-2,9.49l3.467-1.314c-1.881-3.6,1.822-7.4,1.822-7.4Z" transform="translate(-267.173 -69.475)" fill="#ebebeb"/>
        </g>
      </g>
    </g>
    <g id="Confetti" transform="translate(67.026 6.85)">
      <g id="Group_68254" data-name="Group 68254" transform="translate(236.071 162.377)">
        <g id="Group_68253" data-name="Group 68253">
          <path id="Path_38964" data-name="Path 38964" d="M236.656,206.943c-2.213-7.842-12.4-7.081-12.4-7.081l.28,5.454c5.892-1.015,9.553,5.889,9.553,5.889Z" transform="translate(-224.251 -199.842)" fill="#3a8891"/>
        </g>
      </g>
      <g id="Group_68256" data-name="Group 68256" transform="translate(142.042 78.249)">
        <g id="Group_68255" data-name="Group 68255">
          <path id="Path_38965" data-name="Path 38965" d="M152.063,129.745c-5.5.583-6.159,7.491-6.159,7.491l3.682.437c-.006-4.059,5.033-5.719,5.033-5.719Z" transform="translate(-145.904 -129.745)" fill="#3a8891"/>
        </g>
      </g>
      <g id="Group_68258" data-name="Group 68258" transform="translate(199.429 0)">
        <g id="Group_68257" data-name="Group 68257">
          <path id="Path_38966" data-name="Path 38966" d="M193.72,69.613c3.356,8.551,14.7,6.562,14.7,6.562l-.921-6.087c-6.5,1.8-11.373-5.542-11.373-5.542Z" transform="translate(-193.72 -64.546)" fill="#3a8891"/>
        </g>
      </g>
      <g id="Group_68260" data-name="Group 68260" transform="translate(65.291 149.522)">
        <g id="Group_68259" data-name="Group 68259">
          <path id="Path_38967" data-name="Path 38967" d="M88.112,189.131c-5.5.584-6.159,7.491-6.159,7.491l3.682.437c-.006-4.059,5.035-5.719,5.035-5.719Z" transform="translate(-81.953 -189.131)" fill="#3a8891"/>
        </g>
      </g>
      <g id="Group_68262" data-name="Group 68262" transform="translate(87.052 24.566)">
        <g id="Group_68261" data-name="Group 68261">
          <path id="Path_38968" data-name="Path 38968" d="M107.15,92.84c.8-5.475-5.728-7.825-5.728-7.825l-1.337,3.458c3.933,1,4.291,6.3,4.291,6.3Z" transform="translate(-100.085 -85.015)" fill="#3a8891"/>
        </g>
      </g>
      <g id="Group_68264" data-name="Group 68264" transform="translate(0 112.808)">
        <g id="Group_68263" data-name="Group 68263">
          <path id="Path_38969" data-name="Path 38969" d="M27.612,162.146c-.988,8.585,10.383,10.662,10.383,10.662l2.052-5.617c-6.823-.616-7.807-8.652-7.807-8.652Z" transform="translate(-27.551 -158.54)" fill="#3a8891"/>
        </g>
      </g>
      <g id="Group_68266" data-name="Group 68266" transform="translate(268.144 67.57)">
        <g id="Group_68265" data-name="Group 68265">
          <path id="Path_38970" data-name="Path 38970" d="M253.14,128.27c5.524.314,7.291-6.394,7.291-6.394l-3.562-1.029c-.652,4.007-5.894,4.828-5.894,4.828Z" transform="translate(-250.975 -120.847)" fill="#3a8891"/>
        </g>
      </g>
    </g>
    <g id="Group_70672" data-name="Group 70672" transform="translate(121.763 64.331)">
      <circle id="Ellipse_174" data-name="Ellipse 174" cx="84.064" cy="84.064" r="84.064" transform="translate(0)" fill="#3a8891" opacity="0.19"/>
      <circle id="Ellipse_175" data-name="Ellipse 175" cx="75.442" cy="75.442" r="75.442" transform="translate(8.622 8.622)" fill="#3a8891" opacity="0.19"/>
      <circle id="Ellipse_176" data-name="Ellipse 176" cx="66.82" cy="66.82" r="66.82" transform="translate(17.244 17.244)" fill="#3a8891"/>
    </g>
    <path id="Stroke_3" data-name="Stroke 3" d="M0,20.473,20.481,40.945,61.426,0" transform="translate(175.114 127.923)" fill="none" stroke="#fff" stroke-linecap="round" stroke-linejoin="round" stroke-width="5"/>
  </g>
</svg>
