<?xml version="1.0" encoding="UTF-8" standalone="no"?>
<!DOCTYPE svg PUBLIC "-//W3C//DTD SVG 1.1//EN" "http://www.w3.org/Graphics/SVG/1.1/DTD/svg11.dtd">
<svg width="100%" height="100%" viewBox="0 0 512 512" version="1.1" xmlns="http://www.w3.org/2000/svg" xmlns:xlink="http://www.w3.org/1999/xlink" xml:space="preserve" xmlns:serif="http://www.serif.com/" style="fill-rule:evenodd;clip-rule:evenodd;stroke-linejoin:round;stroke-miterlimit:2;">
    <g id="Background">
        <path d="M41.5,0L391.5,0C396.006,2.662 404.505,3.807 413.123,10.969C434.708,28.907 431.958,52.143 431.958,54.5C431.96,312.566 431.896,312.635 432.4,313.575C432.879,314.467 452.289,317.848 469.173,329.967C509.916,359.211 510.916,400.137 510.998,400.434C511.126,400.904 511.87,401.03 511.999,401.5L511.999,422.5C511.877,422.972 511.119,423.093 510.997,423.565C510.747,424.531 511,425.563 510.947,426.56C509.812,447.669 487.382,500.37 426.54,510.727C424.871,511.011 425.052,511.35 423.5,511.999L398.5,511.999C397.846,511.638 398.134,511.153 396.436,510.859C360.88,504.714 358.546,491.978 348.5,491.966C331.22,491.944 157.022,491.73 132.5,491.966C99.824,492.28 83.137,468.999 80.319,447.523C79.682,442.673 80.227,84.32 80.022,81.552C79.89,79.773 78.833,80.035 29.5,80.035C8.42,80.035 7.117,81.469 0,73.5L0,41.5C3.013,36.2 3.083,27.378 12.773,16.748C25.341,2.961 35.823,3.334 41.5,0ZM253.5,19.966C271.479,20.143 369.341,19.978 380.503,20.036C406.505,20.17 412.159,41.968 412.021,50.506C411.875,59.497 411.998,301.549 411.958,308.5C411.934,312.502 410.539,311.976 406.476,312.127C385.81,312.897 360.964,322.543 343.827,338.845C308.956,372.017 313.035,410.097 311.523,411.523C310.392,412.589 215.746,411.822 171.497,412.035C157.117,412.105 160.129,424.782 159.958,441.514C159.586,477.749 107.711,484.084 100.47,446.505C99.329,440.584 100.306,69.014 99.937,48.482C99.644,32.172 90.541,21.702 90.934,20.662C91.229,19.88 91.586,19.966 253.5,19.966ZM331.976,412.5C332.589,405.346 332.676,350.999 391.604,334.951C420.935,326.963 462.019,338.071 480.166,369.701C526.255,450.032 428.122,532.139 358.093,470.945C333.82,449.735 332.229,417.615 331.976,412.5ZM199.5,472.034C197.332,472.013 176.998,471.812 172.393,471.991C169.301,472.112 171.645,470.372 174.178,465.329C185.523,442.75 175.149,431.948 183.499,432.035C185.22,432.053 311.07,431.994 312.581,432.072C313.9,432.14 315.191,437.078 315.314,437.552C320.576,457.681 331.451,470.38 331.086,471.345C330.792,472.121 330.422,472.034 199.5,472.034ZM50.5,60.034C37.042,59.802 22.229,60.105 21.393,59.915C19.294,59.437 20.038,51.404 20.048,50.493C20.447,11.227 83.32,5.723 79.924,58.607C79.809,60.384 78.817,60.034 50.5,60.034Z" style="fill-opacity:1;"/>
        <path d="M164.5,190.034C188.485,190.034 199.724,187.848 199.956,200.483C200.032,204.646 200.828,248.095 199.603,252.529C197.158,261.386 192.662,259.966 152.5,259.966C142.32,259.966 130.125,262.291 130.042,248.504C129.737,198.494 129.251,198.181 131.676,194.614C135.497,188.994 139.302,190.034 164.5,190.034ZM175.5,240.034C151.966,239.71 149.878,240.956 149.97,237.495C150.149,230.698 149.969,213.218 150.085,211.397C150.174,210.01 154.13,210.033 154.5,210.035C176.695,210.161 176.679,209.959 178.604,210.081C179.992,210.17 179.969,214.13 179.967,214.5C179.84,236.696 180.043,236.68 179.92,238.605C179.813,240.279 179.052,239.578 175.5,240.034Z" style="fill-opacity:1;"/>
        <path d="M185.5,290.034C186.784,290.064 194.298,288.637 198.333,294.609C200.48,297.787 199.499,298.116 199.968,347.5C200.107,362.217 192.953,359.966 157.5,359.966C141.673,359.966 130.128,362.316 130.042,348.504C129.73,298.494 129.252,298.182 131.673,294.612C135.31,289.246 136.647,290.034 185.5,290.034ZM175.5,340.034C151.966,339.71 149.878,340.956 149.97,337.495C150.149,330.698 149.969,313.218 150.085,311.397C150.174,310.01 154.13,310.033 154.5,310.035C176.695,310.161 176.679,309.959 178.604,310.081C179.992,310.17 179.969,314.13 179.967,314.5C179.84,336.696 180.043,336.68 179.92,338.605C179.813,340.279 179.052,339.578 175.5,340.034Z" style="fill-opacity:1;"/>
        <path d="M144.5,159.966C127.912,159.56 130.04,153.158 130.04,130.5C130.04,96.694 127.808,90.121 142.5,90.034C191.578,89.745 191.888,89.291 195.386,91.675C202.182,96.306 199.551,104.054 199.968,147.5C199.974,148.127 201.121,156.197 193.425,159.304C191.513,160.076 191.432,159.966 144.5,159.966ZM155.5,140.034C154.348,139.915 150.005,141.73 150.038,136.5C150.203,111.043 149.974,110.979 150.486,110.486C151.321,109.682 178.887,109.826 179.518,110.482C181.018,112.04 180.133,112.424 179.967,137.513C179.945,140.746 178.152,140.034 155.5,140.034Z" style="fill-opacity:1;"/>
        <path d="M402.028,360.5C402.09,358.533 401.035,352.401 406.582,348.631C408.487,347.337 411.872,346.705 414.523,347.415C423.316,349.771 422.025,360.131 422.041,360.534C422.17,363.751 423.642,362.737 429.572,365.333C441.978,370.763 435.884,380.584 434.231,382.229C428.308,388.121 419.436,382.738 417.358,381.984C414.299,380.873 407.537,381.751 405.23,387.383C400.345,399.308 417.103,403.191 421.283,404.98C443.115,414.322 446.625,444.715 425.281,458.139C421.087,460.777 422.081,461.622 421.941,466.521C421.651,476.686 411.675,478.657 406.602,475.336C401.06,471.709 402.002,464.942 401.947,463.469C401.842,460.665 397.52,459.955 394.436,458.649C393.29,458.164 382.877,453.754 387.742,444.614C393.123,434.505 403.585,440.874 405.477,441.56C412.96,444.27 417.512,439.544 418.733,436.603C423.802,424.389 406.142,420.67 400.726,418.045C383.509,409.698 377.424,383.864 394.692,368.723C399.078,364.877 401.424,366.378 402.028,360.5Z" style="fill-opacity:1;"/>
        <path d="M355.5,114.966C238.343,114.966 238.183,115.124 235.368,113.758C227.213,109.802 228.38,95.305 240.479,95.051C244.22,94.972 364.356,95.132 370.497,94.968C380.034,94.712 382.563,102.653 381.766,106.542C379.655,116.843 370.248,114.966 355.5,114.966Z"/>
        <path d="M283.5,154.966C236.164,154.966 234.195,155.923 231.23,149.634C228.88,144.65 229.714,135.129 241.495,135.037C249.337,134.975 335.66,134.3 339.521,135.421C350.495,138.606 349.021,154.689 336.52,154.95C335.648,154.969 322.578,154.966 283.5,154.966Z"/>
        <path d="M292.5,295.034C340.851,295.034 342.815,294.085 345.764,300.37C348.119,305.389 347.194,314.863 335.506,314.963C327.664,315.03 241.843,315.762 237.482,314.567C226.74,311.625 227.756,295.298 240.481,295.048C241.313,295.032 254.844,295.034 292.5,295.034Z"/>
        <path d="M335.5,214.966C282.041,214.966 281.344,215.464 277.917,212.076C272.831,207.048 274.461,195.272 285.48,195.049C289.198,194.974 364.524,195.133 370.497,194.967C379.23,194.726 383.475,201.688 381.266,208.417C378.701,216.226 374.337,214.966 335.5,214.966Z"/>
        <path d="M291.5,354.966C237.039,354.966 236.335,355.459 232.925,352.071C228.79,347.962 227.702,335.128 241.496,335.036C297.815,334.661 298.33,333.984 302.264,336.843C306.978,340.271 306.672,345.916 305.722,348.583C302.91,356.479 292.202,354.952 291.5,354.966Z" style="fill-opacity:1;"/>
        <path d="M291.5,254.966C237.038,254.966 236.337,255.459 232.922,252.072C228.679,247.863 227.882,235.133 241.495,235.036C297.831,234.635 298.366,233.924 302.269,236.827C307,240.345 306.658,245.951 305.723,248.583C302.918,256.488 292.206,254.953 291.5,254.966Z" style="fill-opacity:1;"/>
        <path d="M239.477,195.104C251.975,195.684 252.298,208.588 245.413,213.362C233.338,221.737 221.139,197.888 239.477,195.104Z"/>
    </g>
</svg>
