<svg xmlns="http://www.w3.org/2000/svg" width="36.853" height="36.833" viewBox="0 0 36.853 36.833">
  <g id="Group_72127" data-name="Group 72127" style="mix-blend-mode: normal;isolation: isolate">
    <g id="real_estate_office">
      <g id="Group_70368" data-name="Group 70368">
        <path id="Path_56" data-name="Path 56" d="M7.388,24.754,16.6,19.818v-8.4a.7.7,0,0,1,.737-.737h.737V7.737A.7.7,0,0,1,18.806,7h13.26a.7.7,0,0,1,.737.737v2.947h.737a.7.7,0,0,1,.737.737v5.893h8.84a.7.7,0,0,1,.737.737V43.1a.7.7,0,0,1-.737.737H7.756a.7.7,0,0,1-.737-.737C7.019,24.017,6.872,25.048,7.388,24.754ZM31.329,8.473H19.543v2.21H31.329ZM34.276,37.2h5.157V35.73H34.276Zm0-6.63h5.157V29.1H34.276Zm0-6.63h5.157V22.47H34.276Zm8.1-5.157h-8.1V21h5.893a.7.7,0,0,1,.737.737V24.68a.7.7,0,0,1-.737.737H34.276v2.21h5.893a.7.7,0,0,1,.737.737V31.31a.7.7,0,0,1-.737.737H34.276v2.21h5.893a.7.7,0,0,1,.737.737V37.94a.7.7,0,0,1-.737.737H34.276V42.36h8.1ZM32.8,12.157H18.069v30.2h2.21V34.993a.7.7,0,0,1,.737-.737h8.84a.7.7,0,0,1,.737.737V42.36H32.8Zm-3.683,30.2V35.73H21.753v6.63Zm-20.627,0h8.1V21.512l-8.1,4.346Z" transform="translate(-7 -7)" fill="#3a8891"/>
        <path id="Path_57" data-name="Path 57" d="M28.683,21.42H25.737A.7.7,0,0,1,25,20.683V17.737A.7.7,0,0,1,25.737,17h2.947a.7.7,0,0,1,.737.737v2.947A.7.7,0,0,1,28.683,21.42Zm-.737-2.947H26.473v1.473h1.473Z" transform="translate(-5.827 -9.633)" fill="#3a8891"/>
        <path id="Path_58" data-name="Path 58" d="M36.683,21.42H33.737A.7.7,0,0,1,33,20.683V17.737A.7.7,0,0,1,33.737,17h2.947a.7.7,0,0,1,.737.737v2.947A.7.7,0,0,1,36.683,21.42Zm-.737-2.947H34.473v1.473h1.473Z" transform="translate(-19.721 -9.633)" fill="#3a8891"/>
        <path id="Path_59" data-name="Path 59" d="M28.683,30.42H25.737A.7.7,0,0,1,25,29.683V26.737A.7.7,0,0,1,25.737,26h2.947a.7.7,0,0,1,.737.737v2.947A.7.7,0,0,1,28.683,30.42Zm-.737-2.947H26.473v1.473h1.473Z" transform="translate(-5.827 -12.003)" fill="#3a8891"/>
        <path id="Path_60" data-name="Path 60" d="M36.683,30.42H33.737A.7.7,0,0,1,33,29.683V26.737A.7.7,0,0,1,33.737,26h2.947a.7.7,0,0,1,.737.737v2.947A.7.7,0,0,1,36.683,30.42Zm-.737-2.947H34.473v1.473h1.473Z" transform="translate(-19.721 -12.003)" fill="#3a8891"/>
        <path id="Path_61" data-name="Path 61" d="M28.683,39.42H25.737A.7.7,0,0,1,25,38.683V35.737A.7.7,0,0,1,25.737,35h2.947a.7.7,0,0,1,.737.737v2.947A.7.7,0,0,1,28.683,39.42Zm-.737-2.947H26.473v1.473h1.473Z" transform="translate(-5.827 -14.373)" fill="#3a8891"/>
        <path id="Path_62" data-name="Path 62" d="M36.683,39.42H33.737A.7.7,0,0,1,33,38.683V35.737A.7.7,0,0,1,33.737,35h2.947a.7.7,0,0,1,.737.737v2.947A.7.7,0,0,1,36.683,39.42Zm-.737-2.947H34.473v1.473h1.473Z" transform="translate(-19.721 -14.373)" fill="#3a8891"/>
        <path id="Path_63" data-name="Path 63" d="M49.683,39.42H46.737A.7.7,0,0,1,46,38.683V35.737A.7.7,0,0,1,46.737,35h2.947a.7.7,0,0,1,.737.737v2.947A.7.7,0,0,1,49.683,39.42Zm-.737-2.947H47.473v1.473h1.473Z" transform="translate(-42.297 -14.373)" fill="#3a8891"/>
        <path id="Path_64" data-name="Path 64" d="M49.683,48.42H46.737A.7.7,0,0,1,46,47.683V44.737A.7.7,0,0,1,46.737,44h2.947a.7.7,0,0,1,.737.737v2.947A.7.7,0,0,1,49.683,48.42Zm-.737-2.947H47.473v1.473h1.473Z" transform="translate(-42.297 -16.743)" fill="#3a8891"/>
      </g>
    </g>
  </g>
</svg>
