<svg id="Group_72126" data-name="Group 72126" xmlns="http://www.w3.org/2000/svg" width="40.09" height="41.896" viewBox="0 0 40.09 41.896">
  <g id="Group_71329" data-name="Group 71329">
    <path id="Path_41408" data-name="Path 41408" d="M32.449,24.113h5.418V23.029a.722.722,0,1,1,1.445,0v9.752h1.806a1.445,1.445,0,0,1,1.445,1.445V45.783a1.445,1.445,0,0,1,1.445,1.445v1.445a1.445,1.445,0,0,1-1.445,1.445H6.445A1.445,1.445,0,0,1,5,48.673V47.228a1.445,1.445,0,0,1,1.445-1.445V34.226a1.445,1.445,0,0,1,1.445-1.445H9.7V27.363a.722.722,0,0,1,1.445,0v1.084h5.418v-5.29a1.437,1.437,0,0,1,.909-1.341l1.258-.5v-6.59a.722.722,0,1,1,1.445,0v6.012l1.445-.578V15.806a.722.722,0,1,1,1.445,0v3.773L24.5,19V16.889a.722.722,0,1,1,1.445,0v1.534l4.52-1.806a1.445,1.445,0,0,1,1.981,1.339Zm-4.7,1.445V45.783H29.2V40a1.445,1.445,0,0,1,1.445-1.445h4.334A1.445,1.445,0,0,1,36.422,40v5.779h1.445V25.558ZM20.711,45.783h5.6V42.894h-5.6Zm9.932,0h4.334V40H30.643ZM41.117,34.226H39.311V45.783h1.806ZM6.445,48.673H42.562V47.228H6.445Zm10.113-7.223H14.029v4.334h2.528ZM7.889,34.226V45.783H9.7V34.226Zm3.251-4.334V45.783h1.445V41.449A1.445,1.445,0,0,1,14.029,40h2.528V38.56H13.307a.722.722,0,1,1,0-1.445h3.251V35.67H13.307a.722.722,0,1,1,0-1.445h3.251V32.781H13.307a.722.722,0,1,1,0-1.445h3.251V29.892Zm14.367-9.736h0l-2.889,1.156h0L18,23.157V45.783h1.264V42.894a1.445,1.445,0,0,1,1.445-1.445h5.6V25.558a1.445,1.445,0,0,1,1.445-1.445H31V17.956Z" transform="translate(-3.916 -8.221)" fill="#006"/>
    <path id="Path_41409" data-name="Path 41409" d="M17.667,45.445H16.222a.722.722,0,1,1,0-1.445h1.445a.722.722,0,1,1,0,1.445Z" transform="translate(14.116 -16.551)" fill="#006"/>
    <path id="Path_41410" data-name="Path 41410" d="M23.667,45.445H22.222a.722.722,0,1,1,0-1.445h1.445a.722.722,0,0,1,0,1.445Z" transform="translate(3.782 -16.551)" fill="#006"/>
    <path id="Path_41411" data-name="Path 41411" d="M17.667,41.445H16.222a.722.722,0,1,1,0-1.445h1.445a.722.722,0,1,1,0,1.445Z" transform="translate(14.116 -15.44)" fill="#006"/>
    <path id="Path_41412" data-name="Path 41412" d="M23.667,41.445H22.222a.722.722,0,1,1,0-1.445h1.445a.722.722,0,0,1,0,1.445Z" transform="translate(3.782 -15.44)" fill="#006"/>
    <path id="Path_41413" data-name="Path 41413" d="M17.667,37.445H16.222a.722.722,0,1,1,0-1.445h1.445a.722.722,0,1,1,0,1.445Z" transform="translate(14.116 -14.33)" fill="#006"/>
    <path id="Path_41414" data-name="Path 41414" d="M23.667,37.445H22.222a.722.722,0,1,1,0-1.445h1.445a.722.722,0,0,1,0,1.445Z" transform="translate(3.782 -14.33)" fill="#006"/>
    <path id="Path_41415" data-name="Path 41415" d="M17.667,33.445H16.222a.722.722,0,1,1,0-1.445h1.445a.722.722,0,1,1,0,1.445Z" transform="translate(14.116 -13.219)" fill="#006"/>
    <path id="Path_41416" data-name="Path 41416" d="M23.667,33.445H22.222a.722.722,0,1,1,0-1.445h1.445a.722.722,0,0,1,0,1.445Z" transform="translate(3.782 -13.219)" fill="#006"/>
    <path id="Path_41417" data-name="Path 41417" d="M32.875,45.445h-.9a.722.722,0,0,1,0-1.445h.9a.722.722,0,1,1,0,1.445Z" transform="translate(-12.469 -16.551)" fill="#006"/>
    <path id="Path_41418" data-name="Path 41418" d="M37.625,45.445h-.9a.722.722,0,0,1,0-1.445h.9a.722.722,0,1,1,0,1.445Z" transform="translate(-20.65 -16.551)" fill="#006"/>
    <path id="Path_41419" data-name="Path 41419" d="M32.875,49.445h-.9a.722.722,0,0,1,0-1.445h.9a.722.722,0,1,1,0,1.445Z" transform="translate(-12.469 -17.662)" fill="#006"/>
    <path id="Path_41420" data-name="Path 41420" d="M37.625,49.445h-.9a.722.722,0,0,1,0-1.445h.9a.722.722,0,0,1,0,1.445Z" transform="translate(-20.65 -17.662)" fill="#006"/>
    <path id="Path_41421" data-name="Path 41421" d="M32.875,41.445h-.9a.722.722,0,0,1,0-1.445h.9a.722.722,0,1,1,0,1.445Z" transform="translate(-12.469 -15.44)" fill="#006"/>
    <path id="Path_41422" data-name="Path 41422" d="M37.625,41.445h-.9a.722.722,0,0,1,0-1.445h.9a.722.722,0,0,1,0,1.445Z" transform="translate(-20.65 -15.44)" fill="#006"/>
    <path id="Path_41423" data-name="Path 41423" d="M32.875,37.445h-.9a.722.722,0,0,1,0-1.445h.9a.722.722,0,1,1,0,1.445Z" transform="translate(-12.469 -14.33)" fill="#006"/>
    <path id="Path_41424" data-name="Path 41424" d="M37.625,37.445h-.9a.722.722,0,0,1,0-1.445h.9a.722.722,0,1,1,0,1.445Z" transform="translate(-20.65 -14.33)" fill="#006"/>
    <path id="Path_41425" data-name="Path 41425" d="M32.875,33.445h-.9a.722.722,0,0,1,0-1.445h.9a.722.722,0,1,1,0,1.445Z" transform="translate(-12.469 -13.219)" fill="#006"/>
    <path id="Path_41426" data-name="Path 41426" d="M37.625,33.445h-.9a.722.722,0,0,1,0-1.445h.9a.722.722,0,0,1,0,1.445Z" transform="translate(-20.65 -13.219)" fill="#006"/>
    <path id="Path_41427" data-name="Path 41427" d="M32.875,29.445h-.9a.722.722,0,0,1,0-1.445h.9a.722.722,0,1,1,0,1.445Z" transform="translate(-12.469 -12.108)" fill="#006"/>
    <path id="Path_41428" data-name="Path 41428" d="M37.625,29.445h-.9a.722.722,0,0,1,0-1.445h.9a.722.722,0,0,1,0,1.445Z" transform="translate(-20.65 -12.108)" fill="#006"/>
    <path id="Path_41431" data-name="Path 41431" d="M12.222,22.751a.722.722,0,0,1-.722-.722V20.222a.722.722,0,1,1,1.445,0v1.806A.722.722,0,0,1,12.222,22.751Z" transform="translate(22.45 -9.748)" fill="#006"/>
    <path id="Path_41432" data-name="Path 41432" d="M49,19a6.5,6.5,0,1,1,6.5-6.5A6.5,6.5,0,0,1,49,19ZM49,7.445A5.056,5.056,0,1,0,54.058,12.5,5.056,5.056,0,0,0,49,7.445Z" transform="translate(-42.5 -6)" fill="#006"/>
    <path id="Path_41433" data-name="Path 41433" d="M50.665,14.334a.722.722,0,1,0,.677.964.722.722,0,1,1,1.362.48,2.167,2.167,0,1,1-2.039-2.889.722.722,0,1,0-.677-.964.722.722,0,1,1-1.362-.48,2.167,2.167,0,1,1,2.039,2.889Z" transform="translate(-44.164 -7.11)" fill="#006"/>
    <path id="Path_41434" data-name="Path 41434" d="M51.945,26.222v1.806a.722.722,0,1,1-1.445,0V26.222a.722.722,0,1,1,1.445,0Z" transform="translate(-44.721 -11.414)" fill="#006"/>
  </g>
</svg>
