<svg id="Group_72128" data-name="Group 72128" xmlns="http://www.w3.org/2000/svg" width="36.853" height="36.883" viewBox="0 0 36.853 36.883">
  <path id="Path_41444" data-name="Path 41444" d="M4.929,1.8H8.5a.884.884,0,0,1,.883.883V6.561L17.736.3a1.486,1.486,0,0,1,1.8,0L35.974,12.628a2.736,2.736,0,0,1,.57,3.782l-.053.073a2.734,2.734,0,0,1-3.27.91V34.379a2.507,2.507,0,0,1-2.5,2.5H6.55a2.507,2.507,0,0,1-2.5-2.5V17.393A2.627,2.627,0,0,1,3,17.608a2.843,2.843,0,0,1-.421-.032,2.67,2.67,0,0,1-1.8-1.094L.723,16.41a2.737,2.737,0,0,1,.57-3.782l2.752-2.063V2.683A.884.884,0,0,1,4.929,1.8ZM8.234,2.952H5.2V9.7L8.234,7.425ZM5.2,34.379A1.353,1.353,0,0,0,6.55,35.731H30.717a1.353,1.353,0,0,0,1.352-1.352V16.622L18.841,6.657a.334.334,0,0,0-.415,0L5.2,16.622ZM1.985,13.55a1.579,1.579,0,0,0-.329,2.183l.052.072a1.573,1.573,0,0,0,2.218.331l13.806-10.4a1.485,1.485,0,0,1,1.8,0l13.806,10.4a1.573,1.573,0,0,0,2.218-.331l.053-.072a1.579,1.579,0,0,0-.329-2.183L18.84,1.226a.334.334,0,0,0-.414,0Zm25.3,11.1A8.654,8.654,0,1,1,18.634,16,8.654,8.654,0,0,1,27.288,24.655Zm-8.654,7.5A7.467,7.467,0,0,0,23.45,30.4a5.21,5.21,0,0,0-4.817-3.179A5.272,5.272,0,0,0,13.816,30.4a7.468,7.468,0,0,0,4.817,1.756Zm2.3-8.6a2.3,2.3,0,1,0-2.3,2.3,2.3,2.3,0,0,0,2.3-2.3Zm-9.8,1.1a7.469,7.469,0,0,0,1.815,4.887,6.4,6.4,0,0,1,3.71-3.161,3.453,3.453,0,1,1,3.956,0,6.344,6.344,0,0,1,3.707,3.162,7.5,7.5,0,1,0-13.188-4.887Z" transform="translate(-0.207 -0.001)" fill="#1fb1c2"/>
</svg>
