<svg id="Iconly_Light-outline_Chat" data-name="Iconly/Light-outline/Chat" xmlns="http://www.w3.org/2000/svg" width="18.725" height="18.721" viewBox="0 0 18.725 18.721">
  <g id="Chat" transform="translate(0)">
    <path id="Chat-2" data-name="Chat" d="M4.979,17.642l-.043-.015a.016.016,0,0,1-.009-.011l-.639-.362A.7.7,0,0,0,4.03,17.2a.435.435,0,0,0-.105.011,16.556,16.556,0,0,1-2.032.587l-.126.015H1.728A1.047,1.047,0,0,1,.9,17.486a1.288,1.288,0,0,1-.276-.861l.019-.153a17.245,17.245,0,0,1,.634-2.063.5.5,0,0,0-.04-.379l-.172-.335A9.366,9.366,0,0,1,9.38,0h.036A9.36,9.36,0,1,1,4.979,17.642Zm-.16-1.58c.086.041.2.1.346.184l.4.227.006,0,.269.136a8.082,8.082,0,0,0,8.637-1.03l.206-.175a8.055,8.055,0,0,0-5.271-14.1l-.263,0A8.052,8.052,0,0,0,2.225,13.093l.169.33a1.819,1.819,0,0,1,.118,1.409,16.6,16.6,0,0,0-.6,1.947L2,16.434l.37-.1c.267-.074.518-.15.768-.233l.392-.135a1.915,1.915,0,0,1,.506-.068A2.044,2.044,0,0,1,4.819,16.062ZM12.5,9.36a1.068,1.068,0,1,1,1.068,1.068A1.068,1.068,0,0,1,12.5,9.36Zm-4.154,0a1.068,1.068,0,1,1,1.068,1.068A1.068,1.068,0,0,1,8.343,9.36Zm-4.154,0a1.068,1.068,0,1,1,1.068,1.068A1.068,1.068,0,0,1,4.189,9.36Z" fill="#9b9b9b"/>
  </g>
</svg>
