<svg xmlns="http://www.w3.org/2000/svg" width="15.466" height="17.291" viewBox="0 0 15.466 17.291">
  <g id="Swap" transform="translate(0.15 17.11) rotate(-90)">
    <path id="Swap-2" data-name="Swap" d="M12.373.124h0l0,0h0a.648.648,0,0,0-.071.06l0,0L8.771,3.672a.63.63,0,0,0,0,.9.656.656,0,0,0,.844.06l.072-.062,2.417-2.388V12.22a.649.649,0,0,0,1.291.086l.006-.086V2.184l2.417,2.388a.655.655,0,0,0,.916,0,.63.63,0,0,0,.065-.83l-.063-.071L13.215.188h0l0,0a.655.655,0,0,0-.839-.061ZM3.531,2.859l-.005.086V12.984l-2.417-2.39a.657.657,0,0,0-.844-.064l-.073.061a.631.631,0,0,0-.065.83l.063.072,3.525,3.484a.647.647,0,0,0,.266.159h0l.013,0H4l.011,0h.006l.009,0,.008,0,.007,0,.009,0h.006l.01,0h.187l.014,0H4.3l.008,0H4.31l.009,0h0a.65.65,0,0,0,.236-.108l0,0a.649.649,0,0,0,.064-.054l.006,0,3.525-3.484a.632.632,0,0,0,0-.9.656.656,0,0,0-.844-.06l-.073.062-2.417,2.39V2.946a.649.649,0,0,0-1.291-.086Z" transform="translate(0)" fill="#9b9b9b" stroke="#eaf1f1" stroke-width="0.3"/>
  </g>
</svg>
