<svg xmlns="http://www.w3.org/2000/svg" width="19.732" height="12.501" viewBox="0 0 19.732 12.501">
  <g id="Group_71386" data-name="Group 71386" transform="translate(0.208 0.208)">
    <path id="Path_41803" data-name="Path 41803" d="M77.672,31.466a1.665,1.665,0,0,1-1.178-2.842c.025-.025.051-.049.077-.072l-2.881-3.96a1.666,1.666,0,0,1-2.823-.207l-2.211,1.794a1.665,1.665,0,1,1-3.027-.655L62.6,22.331a1.665,1.665,0,1,1,.473-.469L66.1,25.055a1.666,1.666,0,0,1,2.3.473l2.279-1.849a1.664,1.664,0,1,1,3.308.19l3.166,4.351a1.665,1.665,0,1,1,.518,3.246ZM62.392,20.231a1,1,0,1,0,0,1.413A1,1,0,0,0,62.392,20.231Zm5.329,5.512a1,1,0,1,0,0,1.413A1,1,0,0,0,67.721,25.742Zm5.329-2.836a1,1,0,1,0,0,1.413A1,1,0,0,0,73.05,22.907ZM78.379,29.1a1,1,0,1,0,0,1.413,1,1,0,0,0,0-1.413Z" transform="translate(-60.02 -19.273)" fill="#9b9b9b" stroke="#9b9b9b" stroke-width="0.2"/>
  </g>
</svg>
