<svg xmlns="http://www.w3.org/2000/svg" width="21.203" height="21.067" viewBox="0 0 21.203 21.067">
  <g id="Group_71385" data-name="Group 71385" transform="translate(0.239 0.176)">
    <path id="Path_41444" data-name="Path 41444" d="M18.277,1.013h-2.01a.5.5,0,0,0-.5.5V3.69L11.075.171a.836.836,0,0,0-1.01,0L.818,7.1A1.539,1.539,0,0,0,.5,9.229l.03.041a1.5,1.5,0,0,0,1.013.615,1.5,1.5,0,0,0,.826-.1v9.553a1.41,1.41,0,0,0,1.408,1.408H17.365a1.41,1.41,0,0,0,1.408-1.408V9.782a1.477,1.477,0,0,0,.589.121,1.6,1.6,0,0,0,.237-.018,1.5,1.5,0,0,0,1.013-.615l.029-.041A1.539,1.539,0,0,0,20.321,7.1l-1.548-1.16V1.509a.5.5,0,0,0-.5-.5Zm-1.859.648h1.707v3.8l-1.707-1.28Zm1.707,17.673a.761.761,0,0,1-.76.76H3.774a.761.761,0,0,1-.76-.76V9.348l7.439-5.6a.188.188,0,0,1,.233,0l7.439,5.6ZM19.932,7.621a.888.888,0,0,1,.185,1.227l-.029.041a.884.884,0,0,1-1.247.186L11.076,3.226a.835.835,0,0,0-1.013,0L2.3,9.075a.844.844,0,0,1-.663.168.844.844,0,0,1-.585-.355l-.03-.041a.888.888,0,0,1,.185-1.227L10.453.69a.188.188,0,0,1,.233,0ZM5.7,13.866A4.867,4.867,0,1,0,10.57,9,4.867,4.867,0,0,0,5.7,13.866Zm4.867,4.219A4.2,4.2,0,0,1,7.861,17.1a2.93,2.93,0,0,1,2.709-1.788A2.965,2.965,0,0,1,13.279,17.1a4.2,4.2,0,0,1-2.709.988ZM9.276,13.246a1.293,1.293,0,1,1,1.293,1.293,1.293,1.293,0,0,1-1.293-1.293Zm5.512.619a4.2,4.2,0,0,1-1.021,2.748,3.6,3.6,0,0,0-2.086-1.777,1.942,1.942,0,1,0-2.225,0,3.568,3.568,0,0,0-2.085,1.778,4.218,4.218,0,1,1,7.416-2.748Z" transform="translate(-0.207 -0.001)" fill="#9b9b9b" stroke="#9b9b9b" stroke-width="0.3"/>
  </g>
</svg>
