<svg xmlns="http://www.w3.org/2000/svg" width="21.093" height="21.099" viewBox="0 0 21.093 21.099">
  <g id="Group_71353" data-name="Group 71353" transform="translate(0.1 0.1)">
    <path id="Path_13" data-name="Path 13" d="M56.337,44.727a.337.337,0,1,0,0,.674h4.719a.337.337,0,0,0,0-.674h-.674V42.7h.674a.337.337,0,0,0,.219-.593l-2.36-2.023a.337.337,0,0,0-.438,0l-2.36,2.023a.337.337,0,0,0,.219.593h.674v2.023Zm2.36-3.938,1.449,1.242h-2.9ZM57.685,42.7h2.023v2.023H57.685Zm0,0" transform="translate(-53.64 -38.322)" fill="#9b9b9b" stroke="#9b9b9b" stroke-width="0.2"/>
    <path id="Path_14" data-name="Path 14" d="M56.337,208.674H66.45a.337.337,0,1,0,0-.674H56.337a.337.337,0,0,0,0,.674Zm0,0" transform="translate(-53.64 -199.236)" fill="#9b9b9b" stroke="#9b9b9b" stroke-width="0.2"/>
    <path id="Path_15" data-name="Path 15" d="M56.337,272.674H62.4a.337.337,0,0,0,0-.674H56.337a.337.337,0,0,0,0,.674Zm0,0" transform="translate(-53.64 -260.539)" fill="#9b9b9b" stroke="#9b9b9b" stroke-width="0.2"/>
    <path id="Path_16" data-name="Path 16" d="M63.753,336H56.337a.337.337,0,1,0,0,.674h7.416a.337.337,0,1,0,0-.674Zm0,0" transform="translate(-53.64 -321.842)" fill="#9b9b9b" stroke="#9b9b9b" stroke-width="0.2"/>
    <path id="Path_17" data-name="Path 17" d="M59.371,400H56.337a.337.337,0,1,0,0,.674h3.034a.337.337,0,1,0,0-.674Zm0,0" transform="translate(-53.64 -383.146)" fill="#9b9b9b" stroke="#9b9b9b" stroke-width="0.2"/>
    <path id="Path_18" data-name="Path 18" d="M225.685,272h-1.348a.337.337,0,0,0,0,.674h1.348a.337.337,0,1,0,0-.674Zm0,0" transform="translate(-214.562 -260.539)" fill="#9b9b9b" stroke="#9b9b9b" stroke-width="0.2"/>
    <path id="Path_19" data-name="Path 19" d="M20.727,5.124l-1.689-1a.338.338,0,0,0-.463.118L15.507,9.414V4.382a.337.337,0,0,0-.026-.126.3.3,0,0,0-.027-.044.327.327,0,0,0-.036-.057L11.71.109,11.7.1a.354.354,0,0,0-.084-.06C11.612.04,11.6.032,11.6.028A.339.339,0,0,0,11.462,0H.338A.337.337,0,0,0,0,.337V20.562a.337.337,0,0,0,.337.337H15.17a.337.337,0,0,0,.337-.337v-5.98l1.63-2.747,3.708-6.249a.337.337,0,0,0-.118-.462ZM19.405,6.691,14.047,15.72l-.258-.151,5.358-9.03Zm-6.666,9.045.793.463-.941.631Zm.468-.507-.27-.159L18.3,6.034l.272.161ZM11.8,1.2l2.6,2.842H11.8Zm3.034,19.022H.675V.674h10.45V4.382a.337.337,0,0,0,.337.337h3.371v5.73a.338.338,0,0,0,.015.076l-2.665,4.493a.308.308,0,0,0-.021.061.346.346,0,0,0-.022.064l-.316,2.338a.337.337,0,0,0,.522.325l2.01-1.348s.006-.008.01-.011a.339.339,0,0,0,.09-.095l0,0,.375-.631ZM19.749,6.111,19.2,5.787l-.561-.334.344-.58,1.109.658Zm0,0" transform="translate(-0.001 0)" fill="#9b9b9b" stroke="#9b9b9b" stroke-width="0.2"/>
  </g>
</svg>
