<svg id="Group_71351" data-name="Group 71351" xmlns="http://www.w3.org/2000/svg" width="17.491" height="17.491" viewBox="0 0 17.491 17.491">
  <g id="Group_2" data-name="Group 2">
    <g id="Group_1" data-name="Group 1">
      <path id="Path_1" data-name="Path 1" d="M11.342,10.659h4.1a2.052,2.052,0,0,1,2.05,2.05v2.733a2.052,2.052,0,0,1-2.05,2.05h-4.1a2.052,2.052,0,0,1-2.05-2.05V12.709A2.052,2.052,0,0,1,11.342,10.659Zm-.683,4.783a.684.684,0,0,0,.683.683h4.1a.684.684,0,0,0,.683-.683V12.709a.684.684,0,0,0-.683-.683h-4.1a.684.684,0,0,0-.683.683ZM2.05,0h4.1A2.052,2.052,0,0,1,8.2,2.05V4.783a2.052,2.052,0,0,1-2.05,2.05H2.05A2.052,2.052,0,0,1,0,4.783V2.05A2.052,2.052,0,0,1,2.05,0ZM1.367,4.783a.684.684,0,0,0,.683.683h4.1a.684.684,0,0,0,.683-.683V2.05a.684.684,0,0,0-.683-.683H2.05a.684.684,0,0,0-.683.683ZM2.05,7.926h4.1A2.052,2.052,0,0,1,8.2,9.976v5.466a2.052,2.052,0,0,1-2.05,2.05H2.05A2.052,2.052,0,0,1,0,15.442V9.976A2.052,2.052,0,0,1,2.05,7.926Zm-.683,7.516a.684.684,0,0,0,.683.683h4.1a.684.684,0,0,0,.683-.683V9.976a.684.684,0,0,0-.683-.683H2.05a.684.684,0,0,0-.683.683ZM11.342,0h4.1a2.052,2.052,0,0,1,2.05,2.05V7.516a2.052,2.052,0,0,1-2.05,2.05h-4.1a2.052,2.052,0,0,1-2.05-2.05V2.05A2.052,2.052,0,0,1,11.342,0Zm-.683,7.516a.684.684,0,0,0,.683.683h4.1a.684.684,0,0,0,.683-.683V2.05a.684.684,0,0,0-.683-.683h-4.1a.684.684,0,0,0-.683.683Z" fill="#3a8891"/>
    </g>
  </g>
</svg>
