<svg id="Group_71141" data-name="Group 71141" xmlns="http://www.w3.org/2000/svg" width="17.661" height="17.35" viewBox="0 0 17.661 17.35">
  <g id="Group_71104" data-name="Group 71104" transform="translate(0 0)">
    <g id="Group_70881" data-name="Group 70881" transform="translate(0 0)">
      <g id="Group_70879" data-name="Group 70879">
        <path id="Path_39632" data-name="Path 39632" d="M2.093,14.9a3.654,3.654,0,0,1,3.282.083A7.287,7.287,0,0,1,8.312,13.5L8.23,13.45a3.829,3.829,0,0,1-1.69-2.426,1.432,1.432,0,0,1-.875-.7,1.491,1.491,0,0,1-.021-1.457.347.347,0,0,1,.3-.174h.519a4.089,4.089,0,0,1,.986-2.95A4.083,4.083,0,0,1,10.478,4.5a4.639,4.639,0,0,1,2.838.945,3.435,3.435,0,0,1,1.331,2.743v.505h.5a.347.347,0,0,1,.3.174,1.514,1.514,0,0,1-.013,1.479,1.388,1.388,0,0,1-.843.679,3.652,3.652,0,0,1-1.227,2.062,4.407,4.407,0,0,1-.558.416,6.454,6.454,0,0,1,3.955,2.583c.069.226.136.211.047.381a.347.347,0,0,1-.308.187,1.089,1.089,0,0,1-.274-.1,5.754,5.754,0,0,0-4.318-2.521l-.439,1.2.7,3.621a.348.348,0,0,1-.014.183l-.254.706a21.271,21.271,0,0,0,3.039-.385V17.983a.347.347,0,0,1,.695,0V19.2c.453-.109.894-.234,1.319-.373a4.945,4.945,0,0,0-.77-2.359.347.347,0,0,1,.581-.381,5.717,5.717,0,0,1,.9,2.971.347.347,0,0,1-.234.341,20.765,20.765,0,0,1-6.02,1.056h0c-.256.008-.516.012-.772.012h-.169c-.256,0-.515,0-.772-.012h0a22.368,22.368,0,0,1-2.96-.291A3.651,3.651,0,1,1,2.093,14.9Zm8.137-.05h.639l.264-.719a3.964,3.964,0,0,1-.566.045h-.023a3.833,3.833,0,0,1-.578-.045ZM6.272,9.986a.849.849,0,0,0,.212.251V9.387H6.178A.857.857,0,0,0,6.272,9.986Zm7.68-1.8a3.207,3.207,0,0,0-3.473-2.993A3.389,3.389,0,0,0,7.962,6.212a3.424,3.424,0,0,0-.8,2.481H9.793a3.874,3.874,0,0,0,2.9-1.1.347.347,0,0,1,.594.249.86.86,0,0,0,.2.635.83.83,0,0,0,.466.21v-.5Zm.876,1.822a.867.867,0,0,0,.088-.622h-.27v.843A.8.8,0,0,0,14.828,10.01Zm-.876.433V9.385a1.548,1.548,0,0,1-.96-.422A1.306,1.306,0,0,1,12.7,8.5a4.673,4.673,0,0,1-2.906.884H7.178v1.055a2.4,2.4,0,0,0,.013.252V10.7a3.078,3.078,0,0,0,1.423,2.172,3.525,3.525,0,0,0,1.928.608h.019a3.425,3.425,0,0,0,.978-.151l.015-.006h0l.029-.01h0l.022-.005A3.244,3.244,0,0,0,13.952,10.443Zm-3.4,9.328h.083c.171,0,.343,0,.515-.006l.317-.881-.642-3.34h-.55l-.642,3.34.317.881c.172,0,.345.006.515.006ZM9.2,19.736l-.254-.706a.347.347,0,0,1-.014-.183l.7-3.621-.439-1.2a6.942,6.942,0,0,0-3.213,1.358A3.647,3.647,0,0,1,7.06,19.513C7.758,19.622,8.475,19.7,9.2,19.736ZM3.652,21.155a2.958,2.958,0,0,0,2.591-1.532l0-.008a2.957,2.957,0,1,0-2.6,1.54Z" transform="translate(0 -4.5)" fill="#9b9b9b"/>
        <path id="Path_39633" data-name="Path 39633" d="M50.029,307.264a.346.346,0,0,1-.192-.058l-.006,0a.347.347,0,1,1,.385-.579l.006,0a.347.347,0,0,1-.193.637Z" transform="translate(-34.43 -296.146)" fill="#9b9b9b"/>
      </g>
      <g id="Group_70880" data-name="Group 70880" transform="translate(2.482 11.248)">
        <path id="Path_39634" data-name="Path 39634" d="M372.213,333.61a.96.96,0,0,0,.25.695,1.2,1.2,0,0,0,.606.345V335a.333.333,0,0,0,.333.327.328.328,0,0,0,.327-.327v-.353a1.291,1.291,0,0,0,.4-.164,1.125,1.125,0,0,0,.256-.206l.071-.094c.3-.4-.2-.818-.486-.513-.035.036-.072.081-.115.128a.571.571,0,0,1-.444.156c-.274,0-.411-.112-.411-.339,0-.081.053-.144.156-.189a2.407,2.407,0,0,1,.377-.119,3.2,3.2,0,0,0,.445-.142.852.852,0,0,0,.378-.306.921.921,0,0,0,.155-.55.959.959,0,0,0-.79-.944v-.448a.327.327,0,0,0-.655,0v.453a1.273,1.273,0,0,0-.283.095.963.963,0,0,0-.178.1l-.051.044c-.43.322-.015.894.357.581.251-.211.822-.258.822.13a.228.228,0,0,1-.113.2.7.7,0,0,1-.282.1,2.8,2.8,0,0,0-.367.083,2.572,2.572,0,0,0-.367.136.645.645,0,0,0-.282.275.975.975,0,0,0-.113.491Z" transform="translate(-372.213 -330.596)" fill="#9b9b9b"/>
      </g>
    </g>
  </g>
</svg>
