<svg xmlns="http://www.w3.org/2000/svg" width="15.466" height="17.283" viewBox="0 0 15.466 17.283">
  <g id="Paper" transform="translate(0.15 0.15)">
    <path id="Paper-2" data-name="Paper" d="M4.077,0A3.989,3.989,0,0,0,0,3.985v9.159a3.683,3.683,0,0,0,1.209,2.7,4.185,4.185,0,0,0,2.868,1.126H9.642a.7.7,0,0,0,.236,0h.116a.685.685,0,0,0,.481-.2l4.5-4.51a.63.63,0,0,0,.187-.445V3.985A4.038,4.038,0,0,0,11.182,0Zm0,15.69a2.686,2.686,0,0,1-2.742-2.547V3.985a2.675,2.675,0,0,1,.79-1.922,2.756,2.756,0,0,1,1.952-.78h7.106a2.63,2.63,0,0,1,1.859.809,2.738,2.738,0,0,1,.791,1.894v7.028l-.778,0-1.01,0A2.908,2.908,0,0,0,9.1,13.694l0,.161v1.837Zm6.351-1.836a1.591,1.591,0,0,1,1.618-1.56H13.1l-2.673,2.677Zm-5.636-9.1A.64.64,0,0,0,4.7,6.028l.09.005h4.8a.64.64,0,0,0,.09-1.276l-.09-.005Zm0,4.233a.64.64,0,0,0-.09,1.276l.09.006H7.776a.64.64,0,0,0,.09-1.276l-.09-.006Z" transform="translate(15.166 16.983) rotate(180)" fill="#9b9b9b" stroke="#eaf1f1" stroke-width="0.3"/>
  </g>
</svg>
