<svg id="Group_71354" data-name="Group 71354" xmlns="http://www.w3.org/2000/svg" width="15.354" height="20.113" viewBox="0 0 15.354 20.113">
  <g id="Group_70371" data-name="Group 70371" transform="translate(0)">
    <g id="Group_70370" data-name="Group 70370">
      <path id="Path_65" data-name="Path 65" d="M51.079.52h0a.927.927,0,0,1,1.009.153l1.307,1.157L55.173.24a.941.941,0,0,1,1.255,0l1.777,1.589L59.983.24a.941.941,0,0,1,1.256,0l1.779,1.591L64.325.673a.935.935,0,0,1,1.557.705V18.734a.937.937,0,0,1-1.559.706l-1.307-1.157-1.778,1.591a.941.941,0,0,1-1.255,0l-1.777-1.589-1.777,1.589a.941.941,0,0,1-1.256,0l-1.779-1.591-1.308,1.157a.935.935,0,0,1-1.557-.706V1.379A.927.927,0,0,1,51.079.52Zm1.693,17.056a.94.94,0,0,1,1.251,0L55.8,19.17l1.777-1.589a.941.941,0,0,1,1.256,0L60.61,19.17l1.779-1.591a.936.936,0,0,1,1.247,0l1.3,1.157v-2.51l0-14.844L63.639,2.536a.94.94,0,0,1-1.251,0L60.61.942,58.833,2.531a.941.941,0,0,1-1.256,0L55.8.942,54.021,2.533a.936.936,0,0,1-1.247,0l-1.3-1.157v11.93l0,5.425Z" transform="translate(-50.529)" fill="#9b9b9b"/>
    </g>
  </g>
  <g id="Group_70373" data-name="Group 70373" transform="translate(2.741 9.585)">
    <g id="Group_70372" data-name="Group 70372">
      <path id="Path_66" data-name="Path 66" d="M109.207,203.527h8.929a.471.471,0,0,1,0,.942h-8.929a.471.471,0,0,1,0-.942Z" transform="translate(-108.736 -203.527)" fill="#9b9b9b"/>
    </g>
  </g>
  <g id="Group_70375" data-name="Group 70375" transform="translate(6.98 6.76)">
    <g id="Group_70374" data-name="Group 70374">
      <path id="Path_67" data-name="Path 67" d="M109.207,143.527h4.69a.471.471,0,1,1,0,.942h-4.69a.471.471,0,0,1,0-.942Z" transform="translate(-108.736 -143.527)" fill="#9b9b9b"/>
    </g>
  </g>
  <g id="Group_70377" data-name="Group 70377" transform="translate(2.741 12.411)">
    <g id="Group_70376" data-name="Group 70376">
      <path id="Path_68" data-name="Path 68" d="M109.207,263.527h8.929a.471.471,0,1,1,0,.942h-8.929a.471.471,0,1,1,0-.942Z" transform="translate(-108.736 -263.527)" fill="#9b9b9b"/>
    </g>
  </g>
</svg>
