<svg xmlns="http://www.w3.org/2000/svg" width="18.779" height="18.779" viewBox="0 0 18.779 18.779">
  <g id="Group_71375" data-name="Group 71375" transform="translate(0.1 0.1)">
    <path id="Path_41799" data-name="Path 41799" d="M32.876,34.946h.062a2.013,2.013,0,0,0,1.333-3.519l-3.813-3.382a3.372,3.372,0,0,0-4.4-4.034.422.422,0,0,0-.157.7l.99.991L25.7,26.891l-.99-.99a.422.422,0,0,0-.7.157,3.372,3.372,0,0,0,4.034,4.4l3.382,3.813A1.994,1.994,0,0,0,32.876,34.946Zm-4.692-5.4a.433.433,0,0,0-.141.024,2.525,2.525,0,0,1-3.375-2.521l.734.735a.434.434,0,0,0,.6,0L27.791,26a.422.422,0,0,0,0-.6l-.735-.734a2.525,2.525,0,0,1,2.521,3.375.422.422,0,0,0,.118.457l4.016,3.562a1.168,1.168,0,0,1,.051,1.7,1.145,1.145,0,0,1-.861.342,1.157,1.157,0,0,1-.839-.393L28.5,29.692A.422.422,0,0,0,28.184,29.55Z" transform="translate(-17.982 -17.981)" fill="#9b9b9b" stroke="#eaf1f1" stroke-width="0.2"/>
    <path id="Path_41800" data-name="Path 41800" d="M29.229,25.376a6.359,6.359,0,1,0-3.853,3.853l-.611-.689a5.508,5.508,0,1,1,3.775-3.775Z" transform="translate(-13.975 -13.975)" fill="#9b9b9b" stroke="#eaf1f1" stroke-width="0.2"/>
    <path id="Path_41801" data-name="Path 41801" d="M44.969,44.97a.422.422,0,1,0-.3.124A.422.422,0,0,0,44.969,44.97Z" transform="translate(-29.787 -29.788)" fill="#9b9b9b" stroke="#eaf1f1" stroke-width="0.2"/>
    <path id="Path_41802" data-name="Path 41802" d="M27.338,21.4a1.243,1.243,0,0,0,1.241-1.241V18.42a1.243,1.243,0,0,0-1.241-1.241.41.41,0,0,1-.394-.278,7.987,7.987,0,0,0-.553-1.33.412.412,0,0,1,.081-.477l.008-.009a1.243,1.243,0,0,0-.008-1.748l-1.23-1.23a1.271,1.271,0,0,0-1.757,0,.411.411,0,0,1-.477.081,7.975,7.975,0,0,0-1.332-.553.41.41,0,0,1-.277-.392A1.243,1.243,0,0,0,20.16,10H18.419a1.246,1.246,0,0,0-1.241,1.259.386.386,0,0,1-.259.371,7.96,7.96,0,0,0-1.349.558.412.412,0,0,1-.478-.084,1.271,1.271,0,0,0-1.756,0l-1.23,1.232a1.244,1.244,0,0,0-.008,1.748l.009.009a.412.412,0,0,1,.082.477,8,8,0,0,0-.554,1.331.41.41,0,0,1-.394.277A1.243,1.243,0,0,0,10,18.42v1.74A1.243,1.243,0,0,0,11.241,21.4a.41.41,0,0,1,.394.278,7.986,7.986,0,0,0,.553,1.33.412.412,0,0,1-.081.477L12.1,23.5a1.243,1.243,0,0,0,.008,1.748l1.23,1.23a1.271,1.271,0,0,0,1.757,0,.412.412,0,0,1,.477-.081,7.976,7.976,0,0,0,1.332.553.41.41,0,0,1,.277.392,1.243,1.243,0,0,0,1.241,1.241H20.16A1.243,1.243,0,0,0,21.4,27.337a.41.41,0,0,1,.277-.394,8.028,8.028,0,0,0,.908-.354L22,25.929c-.188.077-.38.148-.573.208a1.246,1.246,0,0,0-.87,1.2.4.4,0,0,1-.4.4H18.419a.4.4,0,0,1-.4-.4,1.246,1.246,0,0,0-.87-1.2,7.145,7.145,0,0,1-1.19-.494,1.228,1.228,0,0,0-.574-.142,1.263,1.263,0,0,0-.894.375.407.407,0,0,1-.562,0l-1.23-1.23a.4.4,0,0,1,0-.562l.008-.009a1.246,1.246,0,0,0,.224-1.46,7.122,7.122,0,0,1-.494-1.189,1.246,1.246,0,0,0-1.2-.87.4.4,0,0,1-.4-.4V18.42a.4.4,0,0,1,.4-.4,1.245,1.245,0,0,0,1.2-.87,7.135,7.135,0,0,1,.495-1.19,1.247,1.247,0,0,0-.224-1.459l-.009-.009a.4.4,0,0,1,0-.562l1.23-1.23a.405.405,0,0,1,.562,0,1.249,1.249,0,0,0,1.468.231,7.129,7.129,0,0,1,1.206-.5,1.224,1.224,0,0,0,.854-1.193.4.4,0,0,1,.4-.4H20.16a.4.4,0,0,1,.4.4,1.246,1.246,0,0,0,.87,1.2,7.145,7.145,0,0,1,1.19.494,1.248,1.248,0,0,0,1.468-.233.407.407,0,0,1,.562,0l1.23,1.23a.4.4,0,0,1,0,.562l-.008.009a1.246,1.246,0,0,0-.224,1.46,7.123,7.123,0,0,1,.494,1.189,1.246,1.246,0,0,0,1.2.87.4.4,0,0,1,.4.4v1.74a.4.4,0,0,1-.414.4,1.236,1.236,0,0,0-1.178.854c-.061.2-.133.4-.211.589l.658.584a7.865,7.865,0,0,0,.36-.924.392.392,0,0,1,.389-.258Z" transform="translate(-10 -10)" fill="#9b9b9b" stroke="#eaf1f1" stroke-width="0.2"/>
  </g>
</svg>
