<svg xmlns="http://www.w3.org/2000/svg" width="15.366" height="15.366" viewBox="0 0 15.366 15.366">
  <g id="Folder" transform="translate(0.1 0.1)">
    <path id="Folder-2" data-name="Folder" d="M4.723,0A4.76,4.76,0,0,0,1.263,1.263,4.758,4.758,0,0,0,0,4.723v5.72a5.313,5.313,0,0,0,1.009,3.515,3.9,3.9,0,0,0,3.126,1.209H5.6a2.23,2.23,0,0,0,1.777-.889l.669-.891a1.134,1.134,0,0,1,.9-.45h2.073c2.83,0,4.148-1.453,4.148-4.572l-.02-3.641a4.762,4.762,0,0,0-1.261-3.46A4.753,4.753,0,0,0,10.429,0ZM1.1,10.442V4.723a3.644,3.644,0,0,1,.94-2.682A3.647,3.647,0,0,1,4.723,1.1h5.706a3.636,3.636,0,0,1,2.679.941,3.652,3.652,0,0,1,.939,2.684l.02,3.64a3.967,3.967,0,0,1-.693,2.669,2.93,2.93,0,0,1-2.357.8H8.943a2.239,2.239,0,0,0-1.776.889l-.67.891a1.127,1.127,0,0,1-.9.45H4.135C2.007,14.065,1.1,12.982,1.1,10.442ZM4.055,5.1A.55.55,0,0,0,3.98,6.2l.074.005h7.03a.551.551,0,0,0,.074-1.1l-.074,0Z" transform="translate(15.166 15.166) rotate(180)" fill="#9b9b9b" stroke="#eaf1f1" stroke-width="0.2"/>
  </g>
</svg>
