<svg xmlns="http://www.w3.org/2000/svg" width="20.258" height="20.247" viewBox="0 0 20.258 20.247">
  <g id="Group_71352" data-name="Group 71352" transform="translate(0 0)" style="mix-blend-mode: luminosity;isolation: isolate">
    <g id="real_estate_office" transform="translate(0 0)">
      <g id="Group_70368" data-name="Group 70368">
        <path id="Path_56" data-name="Path 56" d="M27.045,16.759l-5.062-2.713V9.43a.383.383,0,0,0-.4-.4h-.4V7.4a.383.383,0,0,0-.4-.4H13.479a.383.383,0,0,0-.4.4v1.62h-.4a.383.383,0,0,0-.4.4v3.24H7.4a.383.383,0,0,0-.4.4V26.842a.383.383,0,0,0,.4.4H26.842a.383.383,0,0,0,.4-.4C27.247,16.354,27.328,16.921,27.045,16.759ZM13.884,7.81h6.479V9.025H13.884ZM12.264,23.6H9.43v-.81h2.835Zm0-3.644H9.43v-.81h2.835Zm0-3.644H9.43V15.5h2.835ZM7.81,13.479h4.454v1.215H9.025a.383.383,0,0,0-.4.4v1.62a.383.383,0,0,0,.4.4h3.24v1.215H9.025a.383.383,0,0,0-.4.4v1.62a.383.383,0,0,0,.4.4h3.24v1.215H9.025a.383.383,0,0,0-.4.4v1.62a.383.383,0,0,0,.4.4h3.24v2.025H7.81Zm5.264-3.644h8.1v16.6H19.958V22.388a.383.383,0,0,0-.4-.4H14.694a.383.383,0,0,0-.4.4v4.049H13.074Zm2.025,16.6V22.793h4.049v3.644Zm11.338,0H21.983V14.977l4.454,2.389Z" transform="translate(-7 -7)" fill="#9b9b9b"/>
        <path id="Path_57" data-name="Path 57" d="M25.4,19.43h1.62a.383.383,0,0,0,.4-.4V17.4a.383.383,0,0,0-.4-.4H25.4a.383.383,0,0,0-.4.4v1.62A.383.383,0,0,0,25.4,19.43Zm.4-1.62h.81v.81h-.81Z" transform="translate(-17.711 -12.951)" fill="#9b9b9b"/>
        <path id="Path_58" data-name="Path 58" d="M33.4,19.43h1.62a.383.383,0,0,0,.4-.4V17.4a.383.383,0,0,0-.4-.4H33.4a.383.383,0,0,0-.4.4v1.62A.383.383,0,0,0,33.4,19.43Zm.4-1.62h.81v.81h-.81Z" transform="translate(-22.472 -12.951)" fill="#9b9b9b"/>
        <path id="Path_59" data-name="Path 59" d="M25.4,28.43h1.62a.383.383,0,0,0,.4-.4V26.4a.383.383,0,0,0-.4-.4H25.4a.383.383,0,0,0-.4.4v1.62A.383.383,0,0,0,25.4,28.43Zm.4-1.62h.81v.81h-.81Z" transform="translate(-17.711 -18.306)" fill="#9b9b9b"/>
        <path id="Path_60" data-name="Path 60" d="M33.4,28.43h1.62a.383.383,0,0,0,.4-.4V26.4a.383.383,0,0,0-.4-.4H33.4a.383.383,0,0,0-.4.4v1.62A.383.383,0,0,0,33.4,28.43Zm.4-1.62h.81v.81h-.81Z" transform="translate(-22.472 -18.306)" fill="#9b9b9b"/>
        <path id="Path_61" data-name="Path 61" d="M25.4,37.43h1.62a.383.383,0,0,0,.4-.4V35.4a.383.383,0,0,0-.4-.4H25.4a.383.383,0,0,0-.4.4v1.62A.383.383,0,0,0,25.4,37.43Zm.4-1.62h.81v.81h-.81Z" transform="translate(-17.711 -23.662)" fill="#9b9b9b"/>
        <path id="Path_62" data-name="Path 62" d="M33.4,37.43h1.62a.383.383,0,0,0,.4-.4V35.4a.383.383,0,0,0-.4-.4H33.4a.383.383,0,0,0-.4.4v1.62A.383.383,0,0,0,33.4,37.43Zm.4-1.62h.81v.81h-.81Z" transform="translate(-22.472 -23.662)" fill="#9b9b9b"/>
        <path id="Path_63" data-name="Path 63" d="M46.4,37.43h1.62a.383.383,0,0,0,.4-.4V35.4a.383.383,0,0,0-.4-.4H46.4a.383.383,0,0,0-.4.4v1.62A.383.383,0,0,0,46.4,37.43Zm.4-1.62h.81v.81h-.81Z" transform="translate(-30.207 -23.662)" fill="#9b9b9b"/>
        <path id="Path_64" data-name="Path 64" d="M46.4,46.43h1.62a.383.383,0,0,0,.4-.4V44.4a.383.383,0,0,0-.4-.4H46.4a.383.383,0,0,0-.4.4v1.62A.383.383,0,0,0,46.4,46.43Zm.4-1.62h.81v.81h-.81Z" transform="translate(-30.207 -29.017)" fill="#9b9b9b"/>
      </g>
    </g>
  </g>
</svg>
