<?xml version="1.0" encoding="UTF-8" standalone="no"?>
<!-- Created with Inkscape (http://www.inkscape.org/) -->

<svg
   width="9.9045887mm"
   height="9.9045887mm"
   viewBox="0 0 9.9045887 9.9045889"
   version="1.1"
   id="svg9319"
   inkscape:version="1.1.1 (3bf5ae0d25, 2021-09-20)"
   sodipodi:docname="instagram.svg"
   xmlns:inkscape="http://www.inkscape.org/namespaces/inkscape"
   xmlns:sodipodi="http://sodipodi.sourceforge.net/DTD/sodipodi-0.dtd"
   xmlns="http://www.w3.org/2000/svg"
   xmlns:svg="http://www.w3.org/2000/svg">
  <sodipodi:namedview
     id="namedview9321"
     pagecolor="#ffffff"
     bordercolor="#666666"
     borderopacity="1.0"
     inkscape:pageshadow="2"
     inkscape:pageopacity="0.0"
     inkscape:pagecheckerboard="0"
     inkscape:document-units="mm"
     showgrid="false"
     inkscape:zoom="11.473419"
     inkscape:cx="4.532215"
     inkscape:cy="10.676853"
     inkscape:window-width="1920"
     inkscape:window-height="1001"
     inkscape:window-x="-9"
     inkscape:window-y="-9"
     inkscape:window-maximized="1"
     inkscape:current-layer="g1904" />
  <defs
     id="defs9316">
    <inkscape:path-effect
       effect="powermask"
       id="path-effect11216"
       is_visible="true"
       lpeversion="1"
       uri="#mask-powermask-path-effect11216"
       invert="false"
       hide_mask="false"
       background="false"
       background_color="#ffffffff" />
    <mask
       maskUnits="userSpaceOnUse"
       id="mask-powermask-path-effect11216">
      <g
         id="g11214"
         transform="translate(-9.2105009,17.303726)">
        <path
           d="M 0,0 V -3.093 H -3.564 V -7.151 H 0 V -17.304 H 4.387 V -7.151 H 7.658 L 8.28,-3.093 H 4.387 v 2.633 c 0,1.11 0.544,2.192 2.287,2.192 h 1.771 v 3.455 c 0,0 -1.607,0.274 -3.143,0.274 C 2.096,5.461 0,3.518 0,0"
           style="fill:#36373c;fill-opacity:1;fill-rule:nonzero;stroke:none"
           id="path11212" />
      </g>
    </mask>
  </defs>
  <g
     inkscape:label="Layer 1"
     inkscape:groupmode="layer"
     id="layer1"
     transform="translate(-172.50566,-185.27317)">
    <g
       id="g1904"
       transform="matrix(0.35277777,0,0,-0.35277777,177.90541,188.75618)">
      <g
         id="g1888"
         transform="translate(6.16421,4.860002)">
        <path
           d="m 0,0 c -0.909,0 -1.646,-0.737 -1.646,-1.646 0,-0.909 0.737,-1.646 1.646,-1.646 0.909,0 1.646,0.737 1.646,1.646 C 1.646,-0.737 0.909,0 0,0"
           style="fill:#e8e8e8;fill-opacity:1;fill-rule:nonzero;stroke:none"
           id="path1890" />
      </g>
      <g
         id="g1892"
         transform="translate(-1.15319,-8.594098)">
        <path
           d="m 0,0 c -2.442,0 -4.429,1.987 -4.429,4.43 0,2.441 1.987,4.428 4.429,4.428 2.442,0 4.429,-1.987 4.429,-4.428 C 4.429,1.987 2.442,0 0,0 m 0,11.343 c -3.813,0 -6.914,-3.101 -6.914,-6.913 0,-3.813 3.101,-6.914 6.914,-6.914 3.813,0 6.914,3.101 6.914,6.914 0,3.812 -3.101,6.913 -6.914,6.913"
           style="fill:#e8e8e8;fill-opacity:1;fill-rule:nonzero;stroke:none"
           id="path1894" />
      </g>
      <g
         id="g1896"
         transform="translate(-6.87339,7.231102)">
        <path
           d="m 0,0 c -3.193,0 -5.792,-2.598 -5.792,-5.791 v -11.21 c 0,-3.193 2.599,-5.791 5.792,-5.791 h 11.209 c 3.194,0 5.792,2.598 5.792,5.791 v 11.21 C 17.001,-2.598 14.403,0 11.209,0 Z M 11.209,-25.434 H 0 c -4.65,0 -8.433,3.784 -8.433,8.433 v 11.21 c 0,4.649 3.783,8.433 8.433,8.433 h 11.209 c 4.65,0 8.434,-3.784 8.434,-8.433 v -11.21 c 0,-4.649 -3.784,-8.433 -8.434,-8.433"
           style="fill:#e8e8e8;fill-opacity:1;fill-rule:nonzero;stroke:none"
           id="path1898" />
      </g>
    </g>
  </g>
</svg>
