<svg width="512" height="512" xmlns="http://www.w3.org/2000/svg">

 <g>
  <title>background</title>
  <rect fill="none" id="canvas_background" height="402" width="582" y="-1" x="-1"/>
 </g>
 <g>
  <title>Layer 1</title>
  <path fill="#a01f61" id="svg_2" d="m266.533,114.519c-55.518,0 -100.687,45.168 -100.687,100.687c0,16.021 3.858,31.964 11.153,46.104c1.713,3.325 5.803,4.627 9.126,2.915c3.325,-1.716 4.631,-5.801 2.914,-9.126c-6.399,-12.404 -9.645,-25.826 -9.645,-39.893c0,-48.049 39.089,-87.138 87.138,-87.138s87.139,39.089 87.139,87.138c0,28.891 -14.283,55.85 -38.211,72.115c-3.094,2.104 -3.896,6.317 -1.793,9.412c1.312,1.928 3.439,2.965 5.607,2.965c1.313,0 2.637,-0.38 3.803,-1.172c27.642,-18.791 44.143,-49.938 44.143,-83.32c0.001,-55.519 -45.167,-100.687 -100.687,-100.687z"/>
  <path fill="#a01f61" id="svg_3" d="m288.548,279.445c0.806,0 1.625,-0.146 2.423,-0.452c26.231,-10.056 43.854,-35.689 43.854,-63.788c0,-37.657 -30.635,-68.292 -68.292,-68.292c-37.656,0 -68.294,30.635 -68.294,68.292c0,17.505 6.616,34.151 18.63,46.875c2.566,2.721 6.855,2.847 9.575,0.276c2.722,-2.569 2.845,-6.855 0.275,-9.575c-9.628,-10.201 -14.932,-23.546 -14.932,-37.576c0,-30.185 24.559,-54.743 54.745,-54.743c30.186,0 54.744,24.558 54.744,54.743c0,22.527 -14.129,43.076 -35.156,51.138c-3.493,1.34 -5.239,5.258 -3.901,8.751c1.035,2.695 3.603,4.351 6.329,4.351z"/>
  <path fill="#d91a5d" id="svg_4" d="m139.154,291.404c3.741,0 6.774,-3.034 6.774,-6.775c0,-3.74 -3.033,-6.773 -6.774,-6.773l-18.954,0c-3.74,0 -6.773,3.033 -6.773,6.773l0,94.236c0,3.74 3.033,6.774 6.773,6.774l43.683,0l123.129,0c16.077,0 31.971,-5.372 44.752,-15.127l41.123,-31.384c11.452,-8.738 13.832,-25.293 5.306,-36.902c-8.536,-11.625 -25.058,-14.301 -36.831,-5.965l-21.052,14.91c-3.053,2.163 -3.774,6.391 -1.612,9.445c2.164,3.051 6.391,3.773 9.444,1.612l21.053,-14.911c5.78,-4.096 13.891,-2.776 18.077,2.928c4.187,5.699 3.019,13.824 -2.603,18.113l-41.124,31.383c-10.436,7.964 -23.408,12.349 -36.533,12.349l-116.355,0l0,-80.687l45.86,0c7.957,0 15.471,3.062 21.159,8.624c8.239,8.048 19.117,12.48 30.632,12.48l13.123,0c6.145,0 11.142,4.997 11.142,11.14c0,8.19 -6.662,14.854 -14.853,14.854l-47.532,0c-3.74,0 -6.774,3.033 -6.774,6.773c0,3.741 3.034,6.774 6.774,6.774l47.532,0c15.66,0 28.401,-12.741 28.401,-28.401c0,-13.611 -11.076,-24.688 -24.69,-24.688l-13.123,0c-7.956,0 -15.471,-3.063 -21.162,-8.623c-8.233,-8.051 -19.111,-12.482 -30.629,-12.482l-52.635,0c-3.74,0 -6.774,3.033 -6.774,6.773l0,87.462l-30.134,0l0,-80.687l12.18,0l0,0.002z"/>
  <path fill="#d91a5d" id="svg_5" d="m266.533,264.991c3.741,0 6.774,-3.034 6.774,-6.774l0,-5.484c9.539,-1.76 16.792,-10.123 16.792,-20.163c0,-11.316 -9.205,-20.521 -20.521,-20.521l-1.047,0l-3.98,0l-1.047,0c-3.845,0 -6.973,-3.126 -6.973,-6.971c0,-3.845 3.128,-6.971 6.973,-6.971l15.839,0c3.741,0 6.774,-3.034 6.774,-6.774c0,-3.74 -3.033,-6.774 -6.774,-6.774l-6.035,0l0,-4.326c0,-3.741 -3.033,-6.774 -6.774,-6.774c-3.74,0 -6.773,3.034 -6.773,6.774l0,4.685c-9.532,1.767 -16.777,10.127 -16.777,20.161c0,11.314 9.205,20.519 20.521,20.519l1.047,0l3.98,0l1.047,0c3.845,0 6.973,3.128 6.973,6.973s-3.128,6.971 -6.973,6.971l-15.839,0c-3.74,0 -6.774,3.034 -6.774,6.774c0,3.741 3.034,6.774 6.774,6.774l6.021,0l0,5.128c-0.001,3.739 3.032,6.773 6.772,6.773z"/>
  <path fill="#7a2990" id="svg_6" d="m438.971,425.09l-55.309,-38.197c-3.078,-2.125 -7.299,-1.355 -9.424,1.724c-2.126,3.079 -1.354,7.298 1.724,9.425l47.238,32.623l-36.613,25.288l0,-11.453c0,-3.74 -3.034,-6.774 -6.774,-6.774l-212.849,0l0,-14.123l212.849,0c3.74,0 6.774,-3.034 6.774,-6.774s-3.034,-6.773 -6.774,-6.773l-219.624,0c-3.74,0 -6.773,3.033 -6.773,6.773l0,27.671c0,3.74 3.033,6.773 6.773,6.773l212.849,0l0,17.59c0,2.518 1.397,4.829 3.627,5.999c0.989,0.519 2.069,0.775 3.147,0.775c1.352,0 2.697,-0.405 3.85,-1.2l55.309,-38.199c1.832,-1.265 2.925,-3.35 2.925,-5.574c0,-2.226 -1.093,-4.31 -2.925,-5.574z"/>
  <path fill="#d91a5d" id="svg_7" d="m131.646,410.055l-30.093,0c-3.74,0 -6.774,3.033 -6.774,6.773l0,27.672c0,3.74 3.034,6.773 6.774,6.773l30.093,0c3.74,0 6.773,-3.033 6.773,-6.773l0,-27.672c0,-3.74 -3.033,-6.773 -6.773,-6.773zm-6.775,27.671l-16.544,0l0,-14.123l16.544,0l0,14.123z"/>
  <path fill="#a01f61" id="svg_8" d="m73.008,410.055c-3.74,0 -6.774,3.033 -6.774,6.773l0,27.672c0,3.74 3.034,6.773 6.774,6.773s6.774,-3.033 6.774,-6.773l0,-27.672c0,-3.74 -3.034,-6.773 -6.774,-6.773z"/>
  <path fill="#7a2990" id="svg_9" d="m73.029,86.91l55.309,38.199c1.176,0.811 2.516,1.2 3.844,1.2c2.151,0 4.267,-1.021 5.58,-2.924c2.126,-3.079 1.354,-7.297 -1.724,-9.424l-47.238,-32.626l36.613,-25.288l0,11.453c0,3.74 3.034,6.774 6.774,6.774l212.849,0l0,14.123l-212.848,0c-3.74,0 -6.774,3.034 -6.774,6.774c0,3.74 3.034,6.774 6.774,6.774l219.623,0c3.74,0 6.773,-3.034 6.773,-6.774l0,-27.671c0,-3.741 -3.033,-6.774 -6.773,-6.774l-212.849,0l0,-17.59c0,-2.518 -1.397,-4.829 -3.627,-6c-2.23,-1.168 -4.927,-1.005 -6.997,0.426l-55.309,38.2c-1.832,1.264 -2.925,3.349 -2.925,5.574s1.093,4.309 2.925,5.574z"/>
  <path fill="#d91a5d" id="svg_10" d="m380.355,101.945l30.092,0c3.74,0 6.774,-3.034 6.774,-6.774l0,-27.671c0,-3.741 -3.034,-6.774 -6.774,-6.774l-30.092,0c-3.741,0 -6.775,3.034 -6.775,6.774l0,27.671c0,3.741 3.034,6.774 6.775,6.774zm6.774,-27.671l16.544,0l0,14.123l-16.544,0l0,-14.123z"/>
  <path fill="#a01f61" id="svg_11" d="m438.992,60.726c-3.74,0 -6.774,3.034 -6.774,6.774l0,27.671c0,3.74 3.034,6.774 6.774,6.774s6.774,-3.034 6.774,-6.774l0,-27.671c0.001,-3.741 -3.034,-6.774 -6.774,-6.774z"/>
 </g>
</svg>