<?xml version="1.0" encoding="utf-8"?>
<!-- Generator: Adobe Illustrator 17.0.0, SVG Export Plug-In . SVG Version: 6.00 Build 0)  -->
<!DOCTYPE svg PUBLIC "-//W3C//DTD SVG 1.1//EN" "http://www.w3.org/Graphics/SVG/1.1/DTD/svg11.dtd">
<svg version="1.1" id="Layer_1" xmlns="http://www.w3.org/2000/svg" xmlns:xlink="http://www.w3.org/1999/xlink" x="0px" y="0px"
	 width="91.438px" height="91.433px" viewBox="0 0 91.438 91.433" enable-background="new 0 0 91.438 91.433" xml:space="preserve">
<g>
	<g>
		<path fill="#FFFFFF" d="M45.718,91.433C20.502,91.433,0,70.934,0,45.717C0,20.466,20.502,0,45.718,0
			c25.18,0,45.72,20.466,45.72,45.717C91.437,70.934,70.897,91.433,45.718,91.433z M45.718,3.606
			c-23.251,0-42.109,18.896-42.109,42.111c0,23.216,18.858,42.11,42.109,42.11c23.215,0,42.112-18.894,42.112-42.11
			C87.83,22.502,68.932,3.606,45.718,3.606z"/>
	</g>
	<g>
		<path fill="#FFFFFF" d="M46.182,33.252v29.502l3.321-2.857c0,0,15.824,0,17.287-1.001l0.465-23.679
			C55.04,23.823,48.219,30.573,46.182,33.252z"/>
		<path fill="#FFFFFF" d="M24.823,34.716c-1.429,1.107-0.498,24.68,1.001,24.18c1.463-0.463,16.787,1.001,16.787,1.001l2.57,2.25
			V33.324C43.969,30.608,39.182,23.645,24.823,34.716z"/>
	</g>
</g>
</svg>
