<?xml version="1.0" encoding="utf-8"?>
<!-- Generator: Adobe Illustrator 17.0.0, SVG Export Plug-In . SVG Version: 6.00 Build 0)  -->
<!DOCTYPE svg PUBLIC "-//W3C//DTD SVG 1.1//EN" "http://www.w3.org/Graphics/SVG/1.1/DTD/svg11.dtd">
<svg version="1.1" id="Layer_1" xmlns="http://www.w3.org/2000/svg" xmlns:xlink="http://www.w3.org/1999/xlink" x="0px" y="0px"
	 width="92.045px" height="91.816px" viewBox="0 0 92.045 91.816" enable-background="new 0 0 92.045 91.816" xml:space="preserve">
<g>
	<g>
		<path fill="#FFFFFF" d="M46.327,91.816c-25.218,0-45.719-20.5-45.719-45.716c0-25.253,20.501-45.718,45.719-45.718
			c25.179,0,45.718,20.465,45.718,45.718C92.045,71.316,71.506,91.816,46.327,91.816z M46.327,3.989
			C23.074,3.989,4.216,22.885,4.216,46.1c0,23.216,18.858,42.109,42.111,42.109c23.215,0,42.11-18.894,42.11-42.109
			S69.542,3.989,46.327,3.989z"/>
	</g>
</g>
<g>
	<path fill="#FFFFFF" d="M27.838,25.065v44.456c0,1.512,1.227,2.74,2.74,2.74h21.035V63.92H33.379c-0.453,0-0.824-0.365-0.824-0.821
		c0-0.455,0.371-0.823,0.824-0.823h18.279c0.261-1.555,1.617-2.745,3.244-2.745h9.441V25.065c0-1.514-1.228-2.742-2.743-2.742
		H30.578C29.064,22.323,27.838,23.552,27.838,25.065L27.838,25.065z M49.339,27.481l2.327,8.327c0.533,1.874,0.914,3.496,1.47,5.393
		h0.1c0.559-1.896,0.936-3.519,1.442-5.393l2.304-8.327h3.014l-5.137,16.555h-3.472l-5.163-16.555
		C46.224,27.481,49.339,27.481,49.339,27.481z M40.781,27.179c2.003,0,3.67,0.984,4.711,2.1l-1.646,1.823
		c-0.834-0.834-1.773-1.367-3.038-1.367c-2.732,0-4.657,2.277-4.657,5.999c0,3.773,1.771,6.05,4.558,6.05
		c1.466,0,2.53-0.608,3.468-1.646l1.646,1.8c-1.344,1.544-3.092,2.403-5.165,2.403c-4.229,0-7.519-3.037-7.519-8.531
		C33.139,30.392,36.531,27.179,40.781,27.179L40.781,27.179z M33.379,48.183h25.422c0.454,0,0.823,0.368,0.823,0.821
		c0,0.454-0.369,0.823-0.823,0.823H33.379c-0.453,0-0.824-0.369-0.824-0.823C32.555,48.551,32.926,48.183,33.379,48.183
		L33.379,48.183z M33.379,55.479h25.422c0.454,0,0.823,0.367,0.823,0.823c0,0.454-0.369,0.823-0.823,0.823H33.379
		c-0.453,0-0.824-0.369-0.824-0.823C32.555,55.846,32.926,55.479,33.379,55.479L33.379,55.479z"/>
	<path fill="#FFFFFF" d="M64.086,61.177h-9.184c-0.908,0-1.643,0.734-1.643,1.644v9.44l11.084-11.085L64.086,61.177L64.086,61.177z"
		/>
</g>
</svg>
