<?xml version="1.0" encoding="utf-8"?>
<!-- Generator: Adobe Illustrator 17.0.0, SVG Export Plug-In . SVG Version: 6.00 Build 0)  -->
<!DOCTYPE svg PUBLIC "-//W3C//DTD SVG 1.1//EN" "http://www.w3.org/Graphics/SVG/1.1/DTD/svg11.dtd">
<svg version="1.1" id="Layer_1" xmlns="http://www.w3.org/2000/svg" xmlns:xlink="http://www.w3.org/1999/xlink" x="0px" y="0px"
	 width="91.879px" height="91.434px" viewBox="0 -0.618 91.879 91.434" enable-background="new 0 -0.618 91.879 91.434"
	 xml:space="preserve">
<g>
	<g>
		<path fill="#FFFFFF" d="M46.16,90.816c-25.217,0-45.718-20.5-45.718-45.716c0-25.253,20.501-45.718,45.718-45.718
			c25.179,0,45.719,20.465,45.719,45.718C91.879,70.316,71.339,90.816,46.16,90.816z M46.16,2.989
			C22.908,2.989,4.05,21.885,4.05,45.1c0,23.216,18.858,42.109,42.11,42.109c23.214,0,42.111-18.894,42.111-42.109
			C88.271,21.885,69.374,2.989,46.16,2.989z"/>
	</g>
</g>
<g>
	<path fill="#FFFFFF" d="M37.904,35.504l-3.655-3.455c0.423-0.772,0.692-1.647,0.692-2.589c0-2.994-2.426-5.421-5.42-5.421
		S24.1,26.466,24.1,29.46c0,2.987,2.427,5.413,5.421,5.413c1.054,0,2.032-0.31,2.863-0.835l3.647,3.45
		C36.588,36.758,37.205,36.09,37.904,35.504L37.904,35.504z"/>
	<path fill="#FFFFFF" d="M53.348,35.067l4.852-8.165c0.481,0.139,0.973,0.238,1.496,0.238c2.995,0,5.421-2.427,5.421-5.421
		c0-2.987-2.426-5.413-5.421-5.413c-2.992,0-5.413,2.419-5.413,5.413c0,1.484,0.6,2.832,1.566,3.811l-4.84,8.141
		C51.844,34.05,52.624,34.519,53.348,35.067L53.348,35.067z"/>
	<path fill="#FFFFFF" d="M70.082,41.903c-2.328,0-4.298,1.484-5.065,3.549l-6.743-0.668c0,0.051,0.007,0.102,0.007,0.15
		c0,0.879-0.093,1.741-0.268,2.569l6.735,0.661c0.412,2.588,2.632,4.572,5.334,4.572c2.992,0,5.419-2.426,5.419-5.413
		C75.501,44.33,73.074,41.903,70.082,41.903L70.082,41.903z"/>
	<path fill="#FFFFFF" d="M51.482,63.204l-1.51-6.588c-0.849,0.294-1.734,0.507-2.657,0.611l1.51,6.594
		c-1.733,0.903-2.926,2.693-2.926,4.784c0,2.987,2.421,5.413,5.421,5.413c2.986,0,5.413-2.426,5.413-5.413
		C56.733,65.667,54.394,63.291,51.482,63.204L51.482,63.204z"/>
	<path fill="#FFFFFF" d="M33.8,47.548l-8.39,2.813c-0.967-1.479-2.638-2.457-4.534-2.457c-2.994,0-5.413,2.419-5.413,5.413
		s2.419,5.421,5.413,5.421s5.42-2.427,5.42-5.421c0-0.124-0.024-0.243-0.036-0.361l8.42-2.819
		C34.299,49.313,33.999,48.453,33.8,47.548L33.8,47.548z"/>
	<path fill="#FFFFFF" d="M55.186,44.935c0,5.134-4.153,9.287-9.287,9.287c-5.127,0-9.287-4.153-9.287-9.287
		c0-5.127,4.16-9.287,9.287-9.287C51.033,35.648,55.186,39.808,55.186,44.935L55.186,44.935z"/>
</g>
</svg>
