<?xml version="1.0" encoding="utf-8"?>
<!-- Generator: Adobe Illustrator 17.0.0, SVG Export Plug-In . SVG Version: 6.00 Build 0)  -->
<!DOCTYPE svg PUBLIC "-//W3C//DTD SVG 1.1//EN" "http://www.w3.org/Graphics/SVG/1.1/DTD/svg11.dtd">
<svg version="1.1" id="Layer_1" xmlns="http://www.w3.org/2000/svg" xmlns:xlink="http://www.w3.org/1999/xlink" x="0px" y="0px"
	 width="20.566px" height="20.567px" viewBox="0 0 20.566 20.567" enable-background="new 0 0 20.566 20.567" xml:space="preserve">
<g>
	<path fill="#FFFFFF" d="M10.279,0C4.607,0,0,4.607,0,10.28c0,5.68,4.607,10.287,10.279,10.287c5.679,0,10.286-4.606,10.286-10.287
		C20.566,4.601,15.958,0,10.279,0L10.279,0z M12.941,10.28h-1.689v6.168h-2.31V10.28l-1.544,0V8.159l1.544-0.007L8.937,6.903
		c0-1.732,0.471-2.793,2.517-2.793h1.699v2.128h-1.066c-0.79,0-0.835,0.301-0.835,0.853v1.06h1.915L12.941,10.28z M12.941,10.28"/>
</g>
</svg>
