<?xml version="1.0" encoding="utf-8"?>
<!-- Generator: Adobe Illustrator 17.0.0, SVG Export Plug-In . SVG Version: 6.00 Build 0)  -->
<!DOCTYPE svg PUBLIC "-//W3C//DTD SVG 1.1//EN" "http://www.w3.org/Graphics/SVG/1.1/DTD/svg11.dtd">
<svg version="1.1" id="Layer_1" xmlns="http://www.w3.org/2000/svg" xmlns:xlink="http://www.w3.org/1999/xlink" x="0px" y="0px"
	 width="91.722px" height="91.435px" viewBox="0 -0.123 91.722 91.435" enable-background="new 0 -0.123 91.722 91.435"
	 xml:space="preserve">
<g>
	<path fill="#FFFFFF" d="M46.004,91.312c-25.217,0-45.717-20.5-45.717-45.718c0-25.251,20.5-45.717,45.717-45.717
		c25.18,0,45.718,20.466,45.718,45.717C91.721,70.812,71.183,91.312,46.004,91.312z M46.004,3.483
		c-23.252,0-42.109,18.896-42.109,42.11c0,23.217,18.858,42.112,42.109,42.112c23.215,0,42.11-18.896,42.11-42.112
		C88.114,22.379,69.219,3.483,46.004,3.483z"/>
</g>
<rect x="23.921" y="23" fill="#FFFFFF" width="18" height="18"/>
<rect x="47.921" y="23" fill="#FFFFFF" width="19" height="18"/>
<rect x="23.921" y="48" fill="#FFFFFF" width="18" height="20"/>
<rect x="47.921" y="48" fill="#FFFFFF" width="19" height="20"/>
</svg>
