<?xml version="1.0" encoding="utf-8"?>
<!-- Generator: Adobe Illustrator 17.0.0, SVG Export Plug-In . SVG Version: 6.00 Build 0)  -->
<!DOCTYPE svg PUBLIC "-//W3C//DTD SVG 1.1//EN" "http://www.w3.org/Graphics/SVG/1.1/DTD/svg11.dtd">
<svg version="1.1" id="Layer_1" xmlns="http://www.w3.org/2000/svg" xmlns:xlink="http://www.w3.org/1999/xlink" x="0px" y="0px"
	 width="92.164px" height="1157.895px" viewBox="11.553 0 92.164 1157.895" enable-background="new 11.553 0 92.164 1157.895"
	 xml:space="preserve">
<g>
	<g>
		<path fill="#FFFFFF" d="M57.984,92.433c-25.216,0-45.718-20.499-45.718-45.716C12.266,21.466,32.768,1,57.984,1
			c25.18,0,45.72,20.466,45.72,45.717C103.703,71.934,83.163,92.433,57.984,92.433z M57.984,4.606
			c-23.251,0-42.109,18.896-42.109,42.111c0,23.216,18.858,42.11,42.109,42.11c23.215,0,42.112-18.894,42.112-42.11
			C100.096,23.502,81.198,4.606,57.984,4.606z"/>
	</g>
	<g>
		<path fill="#FFFFFF" d="M58.448,34.252v29.502l3.321-2.857c0,0,15.824,0,17.287-1.001l0.465-23.679
			C67.306,24.823,60.485,31.573,58.448,34.252z"/>
		<path fill="#FFFFFF" d="M37.089,35.716c-1.429,1.107-0.498,24.68,1.001,24.18c1.463-0.463,16.787,1.001,16.787,1.001l2.57,2.25
			V34.324C56.235,31.608,51.448,24.645,37.089,35.716z"/>
	</g>
</g>
<g>
	<path fill="#FFFFFF" d="M57.999,284.124c-25.218,0-45.718-20.501-45.718-45.718c0-25.251,20.5-45.717,45.718-45.717
		c25.179,0,45.718,20.466,45.718,45.717C103.717,263.623,83.178,284.124,57.999,284.124z M57.999,196.295
		c-23.253,0-42.109,18.896-42.109,42.11c0,23.217,18.857,42.111,42.109,42.111c23.214,0,42.11-18.895,42.11-42.111
		C100.11,215.191,81.213,196.295,57.999,196.295z"/>
</g>
<g>
	<path fill="#FFFFFF" d="M76.977,222.626h-8.013v-3.396c0-2.718-2.211-4.929-4.929-4.929H52.691c-2.718,0-4.929,2.211-4.929,4.929
		v3.396H39.75c-3.329,0-6.031,2.7-6.031,6.03v24.319c0,3.33,2.702,6.029,6.031,6.029h37.225c3.33,0,6.03-2.7,6.03-6.029v-24.319
		C83.005,225.326,80.307,222.626,76.977,222.626L76.977,222.626z M48.272,249.885c0,0.777-0.627,1.405-1.405,1.405
		c-0.776,0-1.403-0.628-1.403-1.405v-16.807c0-0.776,0.627-1.406,1.403-1.406c0.778,0,1.405,0.629,1.405,1.406V249.885z
		 M59.768,249.885c0,0.777-0.629,1.405-1.405,1.405c-0.774,0-1.405-0.628-1.405-1.405v-16.807c0-0.776,0.631-1.406,1.405-1.406
		c0.776,0,1.405,0.629,1.405,1.406V249.885z M64.739,222.626H51.985v-3.396c0-0.388,0.316-0.704,0.706-0.704h11.345
		c0.388,0,0.704,0.316,0.704,0.704v3.396H64.739z M71.264,249.885c0,0.777-0.629,1.405-1.406,1.405
		c-0.774,0-1.404-0.628-1.404-1.405v-16.807c0-0.776,0.63-1.406,1.404-1.406c0.777,0,1.406,0.629,1.406,1.406V249.885z"/>
</g>
<g>
	<path fill="#FFFFFF" d="M57.762,476.582c-25.218,0-45.718-20.499-45.718-45.717c0-25.252,20.5-45.718,45.718-45.718
		c25.179,0,45.717,20.466,45.717,45.718C103.479,456.083,82.941,476.582,57.762,476.582z M57.762,388.754
		c-23.253,0-42.11,18.896-42.11,42.111c0,23.216,18.858,42.111,42.11,42.111c23.214,0,42.109-18.895,42.109-42.111
		C99.871,407.65,80.976,388.754,57.762,388.754z"/>
</g>
<g>
	<path fill="#FFFFFF" d="M77.629,429.206c-1.236,0-2.234,1.001-2.234,2.235v11.321c0,3.281-2.066,6.258-5.139,7.406
		c-0.883,0.329-1.811,0.495-2.764,0.495H44.855c-4.359,0-7.902-3.545-7.902-7.901v-22.641c0-4.356,3.543-7.902,7.902-7.902h11.317
		c1.234,0,2.234-1,2.234-2.235c0-1.232-1-2.233-2.234-2.233H44.855c-6.822,0-12.37,5.549-12.37,12.37v22.641
		c0,6.82,5.548,12.372,12.37,12.372h22.638c1.485,0,2.941-0.262,4.326-0.78c4.813-1.795,8.044-6.453,8.044-11.592V431.44
		C79.862,430.207,78.862,429.206,77.629,429.206L77.629,429.206z"/>
	<path fill="#FFFFFF" d="M73.178,402.993c-6.308,0-11.439,5.133-11.439,11.441c0,6.309,5.132,11.441,11.439,11.441
		c6.309,0,11.442-5.132,11.442-11.441C84.62,408.126,79.486,402.993,73.178,402.993L73.178,402.993z M73.178,421.409
		c-3.845,0-6.973-3.129-6.973-6.974c0-3.846,3.128-6.972,6.973-6.972c3.846,0,6.973,3.126,6.973,6.972
		C80.151,418.281,77.024,421.409,73.178,421.409L73.178,421.409z"/>
	<path fill="#FFFFFF" d="M50.026,426.724c0,1.232,1,2.234,2.235,2.234h7.819c1.237,0,2.235-1.001,2.235-2.234
		s-0.998-2.234-2.235-2.234h-7.819C51.03,424.49,50.026,425.491,50.026,426.724L50.026,426.724z"/>
	<path fill="#FFFFFF" d="M60.081,433.924h-7.819c-1.231,0-2.235,1.001-2.235,2.234c0,1.232,1.004,2.234,2.235,2.234h7.819
		c1.237,0,2.235-1.001,2.235-2.234C62.317,434.925,61.318,433.924,60.081,433.924L60.081,433.924z"/>
</g>
<g>
	<path fill="#FFFFFF" d="M57.27,670.312c-25.217,0-45.717-20.5-45.717-45.718c0-25.251,20.5-45.717,45.717-45.717
		c25.18,0,45.718,20.466,45.718,45.717C102.987,649.812,82.449,670.312,57.27,670.312z M57.27,582.483
		c-23.252,0-42.109,18.896-42.109,42.11c0,23.217,18.858,42.112,42.109,42.112c23.215,0,42.11-18.896,42.11-42.112
		C99.38,601.379,80.485,582.483,57.27,582.483z"/>
</g>
<rect x="35.187" y="602" fill="#FFFFFF" width="18" height="18"/>
<rect x="59.187" y="602" fill="#FFFFFF" width="19" height="18"/>
<rect x="35.187" y="627" fill="#FFFFFF" width="18" height="20"/>
<rect x="59.187" y="627" fill="#FFFFFF" width="19" height="20"/>
<g>
	<g>
		<path fill="#FFFFFF" d="M57.713,861.816c-25.217,0-45.718-20.5-45.718-45.716c0-25.253,20.501-45.718,45.718-45.718
			c25.179,0,45.719,20.465,45.719,45.718C103.432,841.316,82.892,861.816,57.713,861.816z M57.713,773.989
			c-23.252,0-42.11,18.896-42.11,42.111c0,23.216,18.858,42.109,42.11,42.109c23.214,0,42.111-18.894,42.111-42.109
			C99.824,792.885,80.927,773.989,57.713,773.989z"/>
	</g>
</g>
<g>
	<path fill="#FFFFFF" d="M49.457,806.504l-3.655-3.455c0.423-0.772,0.692-1.647,0.692-2.589c0-2.994-2.426-5.421-5.42-5.421
		s-5.421,2.427-5.421,5.421c0,2.987,2.427,5.413,5.421,5.413c1.054,0,2.032-0.31,2.863-0.835l3.647,3.45
		C48.141,807.758,48.758,807.09,49.457,806.504L49.457,806.504z"/>
	<path fill="#FFFFFF" d="M64.901,806.067l4.852-8.165c0.481,0.139,0.973,0.238,1.496,0.238c2.995,0,5.421-2.427,5.421-5.421
		c0-2.987-2.426-5.413-5.421-5.413c-2.992,0-5.413,2.419-5.413,5.413c0,1.484,0.6,2.832,1.566,3.811l-4.84,8.141
		C63.397,805.05,64.177,805.519,64.901,806.067L64.901,806.067z"/>
	<path fill="#FFFFFF" d="M81.635,812.903c-2.328,0-4.298,1.484-5.065,3.549l-6.743-0.668c0,0.051,0.007,0.102,0.007,0.15
		c0,0.879-0.093,1.741-0.268,2.569l6.735,0.661c0.412,2.588,2.632,4.572,5.334,4.572c2.992,0,5.419-2.426,5.419-5.413
		C87.054,815.33,84.627,812.903,81.635,812.903L81.635,812.903z"/>
	<path fill="#FFFFFF" d="M63.035,834.204l-1.51-6.588c-0.849,0.294-1.734,0.507-2.657,0.611l1.51,6.594
		c-1.733,0.903-2.926,2.693-2.926,4.784c0,2.987,2.421,5.413,5.421,5.413c2.986,0,5.413-2.426,5.413-5.413
		C68.286,836.667,65.947,834.291,63.035,834.204L63.035,834.204z"/>
	<path fill="#FFFFFF" d="M45.353,818.548l-8.39,2.813c-0.967-1.479-2.638-2.457-4.534-2.457c-2.994,0-5.413,2.419-5.413,5.413
		s2.419,5.421,5.413,5.421s5.42-2.427,5.42-5.421c0-0.124-0.024-0.243-0.036-0.361l8.42-2.819
		C45.852,820.313,45.552,819.453,45.353,818.548L45.353,818.548z"/>
	<path fill="#FFFFFF" d="M66.739,815.935c0,5.134-4.153,9.287-9.287,9.287c-5.127,0-9.287-4.153-9.287-9.287
		c0-5.127,4.16-9.287,9.287-9.287C62.586,806.648,66.739,810.808,66.739,815.935L66.739,815.935z"/>
</g>
<g>
	<g>
		<path fill="#FFFFFF" d="M57.88,1053.816c-25.218,0-45.719-20.5-45.719-45.716c0-25.253,20.501-45.718,45.719-45.718
			c25.179,0,45.718,20.465,45.718,45.718C103.598,1033.316,83.059,1053.816,57.88,1053.816z M57.88,965.989
			c-23.253,0-42.111,18.896-42.111,42.111c0,23.216,18.858,42.109,42.111,42.109c23.215,0,42.11-18.894,42.11-42.109
			C99.99,984.885,81.095,965.989,57.88,965.989z"/>
	</g>
</g>
<g>
	<path fill="#FFFFFF" d="M39.391,987.065v44.456c0,1.512,1.227,2.74,2.74,2.74h21.035v-8.341H44.932
		c-0.453,0-0.824-0.365-0.824-0.821c0-0.455,0.371-0.823,0.824-0.823h18.279c0.261-1.555,1.617-2.745,3.244-2.745h9.441v-34.466
		c0-1.514-1.228-2.742-2.743-2.742H42.131C40.617,984.323,39.391,985.552,39.391,987.065L39.391,987.065z M60.892,989.481
		l2.327,8.327c0.533,1.874,0.914,3.496,1.47,5.393h0.1c0.559-1.896,0.936-3.519,1.442-5.393l2.304-8.327h3.014l-5.137,16.555H62.94
		l-5.163-16.555H60.892z M52.334,989.179c2.003,0,3.67,0.984,4.711,2.1l-1.646,1.823c-0.834-0.834-1.773-1.367-3.038-1.367
		c-2.732,0-4.657,2.277-4.657,5.999c0,3.773,1.771,6.05,4.558,6.05c1.466,0,2.53-0.608,3.468-1.646l1.646,1.8
		c-1.344,1.544-3.092,2.403-5.165,2.403c-4.229,0-7.519-3.037-7.519-8.531C44.692,992.392,48.084,989.179,52.334,989.179
		L52.334,989.179z M44.932,1010.183h25.422c0.454,0,0.823,0.368,0.823,0.821c0,0.454-0.369,0.823-0.823,0.823H44.932
		c-0.453,0-0.824-0.369-0.824-0.823C44.108,1010.551,44.479,1010.183,44.932,1010.183L44.932,1010.183z M44.932,1017.479h25.422
		c0.454,0,0.823,0.367,0.823,0.823c0,0.454-0.369,0.823-0.823,0.823H44.932c-0.453,0-0.824-0.369-0.824-0.823
		C44.108,1017.846,44.479,1017.479,44.932,1017.479L44.932,1017.479z"/>
	<path fill="#FFFFFF" d="M75.639,1023.177h-9.184c-0.908,0-1.643,0.734-1.643,1.644v9.44l11.084-11.085h-0.257V1023.177z"/>
</g>
</svg>
