<?xml version="1.0" encoding="utf-8"?>
<!-- Generator: Adobe Illustrator 17.0.0, SVG Export Plug-In . SVG Version: 6.00 Build 0)  -->
<!DOCTYPE svg PUBLIC "-//W3C//DTD SVG 1.1//EN" "http://www.w3.org/Graphics/SVG/1.1/DTD/svg11.dtd">
<svg version="1.1" id="Layer_1" xmlns="http://www.w3.org/2000/svg" xmlns:xlink="http://www.w3.org/1999/xlink" x="0px" y="0px"
	 width="91.389px" height="92.582px" viewBox="0.049 0 91.389 92.582" enable-background="new 0.049 0 91.389 92.582"
	 xml:space="preserve">
<g>
	<path fill="#FFFFFF" d="M45.721,92.582c-25.218,0-45.718-20.499-45.718-45.717c0-25.252,20.5-45.718,45.718-45.718
		c25.179,0,45.717,20.466,45.717,45.718C91.438,72.083,70.9,92.582,45.721,92.582z M45.721,4.754
		c-23.253,0-42.11,18.896-42.11,42.111c0,23.216,18.858,42.111,42.11,42.111c23.214,0,42.109-18.895,42.109-42.111
		C87.83,23.65,68.935,4.754,45.721,4.754z"/>
</g>
<g>
	<path fill="#FFFFFF" d="M65.588,45.206c-1.236,0-2.234,1.001-2.234,2.235v11.321c0,3.281-2.066,6.258-5.139,7.406
		c-0.883,0.329-1.811,0.495-2.764,0.495H32.814c-4.359,0-7.902-3.545-7.902-7.901V36.121c0-4.356,3.543-7.902,7.902-7.902h11.317
		c1.234,0,2.234-1,2.234-2.235c0-1.232-1-2.233-2.234-2.233H32.814c-6.822,0-12.37,5.549-12.37,12.37v22.641
		c0,6.82,5.548,12.372,12.37,12.372h22.638c1.485,0,2.941-0.262,4.326-0.78c4.813-1.795,8.044-6.453,8.044-11.592V47.44
		C67.821,46.207,66.821,45.206,65.588,45.206L65.588,45.206z"/>
	<path fill="#FFFFFF" d="M61.137,18.993c-6.308,0-11.439,5.133-11.439,11.441c0,6.309,5.132,11.441,11.439,11.441
		c6.309,0,11.442-5.132,11.442-11.441C72.579,24.126,67.445,18.993,61.137,18.993L61.137,18.993z M61.137,37.409
		c-3.845,0-6.973-3.129-6.973-6.974c0-3.846,3.128-6.972,6.973-6.972c3.846,0,6.973,3.126,6.973,6.972S64.983,37.409,61.137,37.409
		L61.137,37.409z"/>
	<path fill="#FFFFFF" d="M37.985,42.724c0,1.232,1,2.234,2.235,2.234h7.819c1.237,0,2.235-1.001,2.235-2.234
		s-0.998-2.234-2.235-2.234H40.22C38.989,40.49,37.985,41.491,37.985,42.724L37.985,42.724z"/>
	<path fill="#FFFFFF" d="M48.04,49.924h-7.819c-1.231,0-2.235,1.001-2.235,2.234c0,1.232,1.004,2.234,2.235,2.234h7.819
		c1.237,0,2.235-1.001,2.235-2.234C50.276,50.925,49.277,49.924,48.04,49.924L48.04,49.924z"/>
</g>
</svg>
