<?xml version="1.0" encoding="utf-8"?>
<!-- Generator: Adobe Illustrator 17.0.0, SVG Export Plug-In . SVG Version: 6.00 Build 0)  -->
<!DOCTYPE svg PUBLIC "-//W3C//DTD SVG 1.1//EN" "http://www.w3.org/Graphics/SVG/1.1/DTD/svg11.dtd">
<svg version="1.1" id="Layer_1" xmlns="http://www.w3.org/2000/svg" xmlns:xlink="http://www.w3.org/1999/xlink" x="0px" y="0px"
	 width="92.164px" height="92.124px" viewBox="0 0 92.164 92.124" enable-background="new 0 0 92.164 92.124" xml:space="preserve">
<g>
	<path fill="#FFFFFF" d="M46.446,92.124c-25.218,0-45.718-20.501-45.718-45.718c0-25.251,20.5-45.717,45.718-45.717
		c25.179,0,45.718,20.466,45.718,45.717C92.164,71.623,71.625,92.124,46.446,92.124z M46.446,4.295
		c-23.253,0-42.109,18.896-42.109,42.11c0,23.217,18.857,42.111,42.109,42.111c23.214,0,42.11-18.895,42.11-42.111
		C88.557,23.191,69.66,4.295,46.446,4.295z"/>
</g>
<g>
	<path fill="#FFFFFF" d="M65.424,30.626h-8.013V27.23c0-2.718-2.211-4.929-4.929-4.929H41.138c-2.718,0-4.929,2.211-4.929,4.929
		v3.396h-8.012c-3.329,0-6.031,2.7-6.031,6.03v24.319c0,3.33,2.702,6.029,6.031,6.029h37.225c3.33,0,6.03-2.7,6.03-6.029V36.656
		C71.452,33.326,68.754,30.626,65.424,30.626L65.424,30.626z M36.719,57.885c0,0.777-0.627,1.405-1.405,1.405
		c-0.776,0-1.403-0.628-1.403-1.405V41.078c0-0.776,0.627-1.406,1.403-1.406c0.778,0,1.405,0.629,1.405,1.406V57.885z
		 M48.215,57.885c0,0.777-0.629,1.405-1.405,1.405c-0.774,0-1.405-0.628-1.405-1.405V41.078c0-0.776,0.631-1.406,1.405-1.406
		c0.776,0,1.405,0.629,1.405,1.406V57.885z M53.186,30.626H40.432V27.23c0-0.388,0.316-0.704,0.706-0.704h11.345
		c0.388,0,0.704,0.316,0.704,0.704L53.186,30.626L53.186,30.626z M59.711,57.885c0,0.777-0.629,1.405-1.406,1.405
		c-0.774,0-1.404-0.628-1.404-1.405V41.078c0-0.776,0.63-1.406,1.404-1.406c0.777,0,1.406,0.629,1.406,1.406V57.885z"/>
</g>
</svg>
