<?xml version="1.0" encoding="utf-8"?>
<!-- Generator: Adobe Illustrator 17.0.0, SVG Export Plug-In . SVG Version: 6.00 Build 0)  -->
<!DOCTYPE svg PUBLIC "-//W3C//DTD SVG 1.1//EN" "http://www.w3.org/Graphics/SVG/1.1/DTD/svg11.dtd">
<svg version="1.1" id="Layer_1" xmlns="http://www.w3.org/2000/svg" xmlns:xlink="http://www.w3.org/1999/xlink" x="0px" y="0px"
	 width="20.566px" height="20.567px" viewBox="0 0 20.566 20.567" enable-background="new 0 0 20.566 20.567" xml:space="preserve">
<g>
	<path fill="#FFFFFF" d="M10.279-0.046c-5.699,0-10.326,4.628-10.326,10.327c0,5.705,4.627,10.333,10.326,10.333
		c5.705,0,10.334-4.628,10.334-10.333C20.613,4.574,15.984-0.046,10.279-0.046L10.279-0.046z M15.423,7.966l0.006,0.328
		c0,3.361-2.559,7.236-7.237,7.236c-1.437,0-2.773-0.421-3.896-1.147c0.195,0.027,0.398,0.04,0.606,0.04
		c1.191,0,2.287-0.411,3.158-1.092c-1.116-0.02-2.049-0.758-2.378-1.767c0.159,0.033,0.316,0.045,0.481,0.045
		c0.234,0,0.46-0.032,0.669-0.088c-1.161-0.236-2.038-1.261-2.038-2.49V9c0.342,0.189,0.732,0.303,1.149,0.315
		C5.261,8.862,4.812,8.08,4.812,7.205c0-0.467,0.127-0.908,0.348-1.28c1.249,1.538,3.127,2.547,5.238,2.654
		c-0.043-0.184-0.062-0.378-0.062-0.579c0-1.401,1.134-2.541,2.54-2.541c0.732,0,1.393,0.308,1.859,0.8
		c0.573-0.114,1.123-0.321,1.614-0.611c-0.189,0.593-0.593,1.09-1.123,1.405c0.518-0.062,1.01-0.202,1.464-0.404
		C16.35,7.16,15.916,7.608,15.423,7.966L15.423,7.966z M15.423,7.966"/>
</g>
</svg>
