<?xml version="1.0" encoding="utf-8"?>
<!-- Generator: Adobe Illustrator 17.0.0, SVG Export Plug-In . SVG Version: 6.00 Build 0)  -->
<!DOCTYPE svg PUBLIC "-//W3C//DTD SVG 1.1//EN" "http://www.w3.org/Graphics/SVG/1.1/DTD/svg11.dtd">
<svg version="1.1" id="Layer_1" xmlns="http://www.w3.org/2000/svg" xmlns:xlink="http://www.w3.org/1999/xlink" x="0px" y="0px"
	 width="128px" height="82.237px" viewBox="0 0 128 82.237" enable-background="new 0 0 128 82.237" xml:space="preserve">
<g>
	<path fill="#FFFFFF" d="M38.352,47.41c1.701-0.972,3.333-1.904,5.237-2.992c-3.281-3.527-7.014-5.741-11.17-7.29
		c-6.573-2.45-13.478-2.888-20.389-3.236c-1.914-0.096-3.845,0.018-5.744-0.184c-1.201-0.128-2.506-0.429-3.506-1.061
		c-2.314-1.464-2.427-3.737,0.029-4.794c3.382-1.455,7.012-2.666,10.644-3.118c4.086-0.508,8.293-0.13,12.443,0.008
		c2.304,0.077,3.96,1.374,4.609,3.596c1.361,4.658,4.705,6.078,9.157,5.97c2.832-0.068,5.673,0.132,8.497-0.03
		c0.91-0.052,2.303-0.669,2.582-1.378c4.255-10.839,13.583-12.46,23.47-13.128c1.412-0.095,2.83-0.121,4.242-0.211
		c0.22-0.014,0.43-0.2,0.868-0.417c-0.95-2.973-1.898-5.938-2.956-9.248c-2.504,1.566-4.763,2.95-6.992,4.379
		c-2.33,1.493-4.541,1.355-5.744-0.41c-1.281-1.882-0.844-3.96,1.629-5.471c3.608-2.205,7.32-4.276,11.135-6.095
		c3.303-1.574,5.142-0.554,6.231,2.916c0.1,0.318,0.263,0.63,0.288,0.954c0.209,2.68,1.551,3.506,4.268,3.375
		c5.127-0.248,6.382,0.818,7.886,5.721c0.756,2.463,1.492,4.94,2.056,7.452c0.974,4.337-0.192,5.779-4.686,6.08
		c-0.326,0.022-0.649,0.085-1.524,0.203c2.09,4.258,4.075,8.304,6.033,12.292c12.805-3.118,23.35-0.311,25.073,6.705
		c-0.737,0.16-1.471,0.319-2.531,0.549c4.651,3.882,7.242,8.651,7.455,14.536c0.145,4.032-0.994,7.767-3.265,11.081
		c-4.538,6.624-12.897,9.555-20.482,7.294c-9.281-2.767-13.058-9.012-13.307-22.443c-0.635,1.177-0.968,2.108-1.571,2.805
		c-0.422,0.488-1.219,0.887-1.84,0.876c-0.354-0.006-0.914-0.88-1.002-1.425c-0.818-5.048,1.082-9.369,4.077-13.181
		c1.352-1.721,1.553-2.962,0.426-4.809c-1.511-2.476-2.727-5.132-4.239-8.034c-2.689,5.191-4.381,10.435-5.212,15.905
		c-0.573,3.771-0.734,7.616-0.875,11.435c-0.069,1.884-0.928,3.042-2.517,3.611c-8.21,2.938-16.315,3.082-24.578-0.25
		c-2.688-1.084-5.985-0.725-9.01-0.817c-0.375-0.011-0.919,1.22-1.166,1.95c-2.92,8.634-8.85,13.699-17.877,14.971
		C14.169,83.507,3.991,76.275,1.577,65.877c-2.432-10.47,3.696-21.443,13.771-24.662C23.809,38.513,31.058,40.415,38.352,47.41z
		 M30.198,52.06c-4.057-3.889-10.074-4.33-14.77-1.326c-4.663,2.983-6.738,8.862-5.018,14.217c1.783,5.55,6.901,8.892,12.917,8.435
		c4.873-0.37,9.335-3.957,10.115-8.369c-3.342,0-6.642-0.06-9.94,0.021c-2.271,0.055-4.236-0.391-4.955-2.807
		c-0.716-2.407,0.604-3.888,2.621-5.001C24.149,55.586,27.078,53.852,30.198,52.06z M104.728,53.706
		c2.003,2.387,3.995,4.702,5.92,7.071c1.969,2.423,1.243,5.763-1.492,6.068c-1.308,0.146-3.08-0.667-4.08-1.629
		c-2.182-2.098-4.005-4.569-6.004-6.923c-2.904,4.257-1.936,10.031,2.132,13.576c4.101,3.573,10.3,3.519,14.383-0.125
		c4.137-3.692,4.862-10.06,1.651-14.498C114.293,53.174,108.757,51.491,104.728,53.706z M49.26,57.29
		c-0.623-2.211-1.15-4.085-1.744-6.196c-1.644,0.938-3.079,1.607-4.316,2.538c-0.474,0.357-0.782,1.382-0.644,1.982
		c0.146,0.634,0.861,1.525,1.422,1.6C45.591,57.43,47.251,57.29,49.26,57.29z"/>
	<path fill="none" d="M30.198,52.06c-3.119,1.792-6.049,3.526-9.028,5.169c-2.017,1.113-3.338,2.594-2.621,5.001
		c0.719,2.417,2.684,2.863,4.955,2.807c3.297-0.08,6.598-0.021,9.94-0.021c-0.78,4.412-5.242,7.999-10.115,8.369
		c-6.017,0.457-11.135-2.885-12.917-8.435c-1.72-5.355,0.355-11.234,5.018-14.217C20.123,47.73,26.14,48.171,30.198,52.06z"/>
	<path fill="none" d="M104.728,53.706c4.029-2.215,9.565-0.532,12.51,3.54c3.211,4.439,2.485,10.806-1.651,14.498
		c-4.083,3.644-10.282,3.698-14.383,0.125c-4.068-3.545-5.036-9.319-2.132-13.576c2,2.354,3.822,4.825,6.004,6.923
		c1.001,0.962,2.773,1.775,4.08,1.629c2.735-0.305,3.462-3.645,1.492-6.068C108.723,58.409,106.732,56.094,104.728,53.706z"/>
	<path fill="#FFFFFF" d="M49.26,57.29c-2.009,0-3.669,0.14-5.282-0.076c-0.561-0.075-1.276-0.966-1.422-1.6
		c-0.138-0.6,0.17-1.625,0.644-1.982c1.236-0.932,2.671-1.6,4.316-2.538C48.109,53.205,48.637,55.079,49.26,57.29z"/>
</g>
</svg>
