<?xml version="1.0" standalone="no"?>
<!DOCTYPE svg PUBLIC "-//W3C//DTD SVG 20010904//EN"
 "http://www.w3.org/TR/2001/REC-SVG-20010904/DTD/svg10.dtd">
<svg version="1.0" xmlns="http://www.w3.org/2000/svg"
 width="500.000000pt" height="500.000000pt" viewBox="0 0 500.000000 500.000000"
 preserveAspectRatio="xMidYMid meet">
<metadata>
Created by potrace 1.14, written by Peter Selinger 2001-2017
</metadata>
<g transform="translate(0.000000,500.000000) scale(0.100000,-0.100000)"
fill="#000000" stroke="none">
<path d="M1010 4615 l0 -65 45 0 45 0 1 -112 c2 -281 -1 -433 -9 -436 -4 -1
-65 -36 -135 -76 -70 -41 -127 -71 -127 -68 0 4 -4 2 -8 -4 -8 -12 -250 -154
-263 -154 -5 0 -9 -4 -9 -10 0 -23 -36 -3 -218 120 l-191 129 -33 -47 c-63
-89 -70 -102 -54 -102 8 0 16 -4 18 -8 2 -4 56 -43 121 -87 64 -43 117 -82
117 -87 0 -5 4 -7 9 -4 5 3 24 -8 42 -24 19 -16 39 -30 46 -30 6 0 15 -6 20
-12 4 -7 7 -195 8 -417 l0 -404 -85 -41 c-47 -22 -88 -39 -92 -38 -5 1 -8 -2
-8 -8 0 -5 -4 -10 -10 -10 -18 0 -219 -101 -222 -112 -6 -16 63 -146 76 -144
6 1 26 10 43 19 18 10 35 18 38 18 2 0 46 21 97 46 51 26 95 47 98 48 3 0 34
16 70 33 73 37 84 37 162 -10 29 -17 68 -39 86 -49 61 -36 107 -62 147 -84 22
-13 101 -59 176 -102 74 -44 142 -83 150 -86 8 -4 27 -15 43 -25 l29 -18 1
-139 1 -140 85 0 85 0 1 139 c0 125 2 139 19 150 135 81 177 104 189 104 5 0
12 4 15 9 6 9 201 124 321 189 19 11 40 25 48 31 7 7 20 13 28 13 8 0 14 5 14
11 0 5 5 7 10 4 6 -3 10 -2 10 3 0 17 51 24 69 10 9 -7 25 -18 36 -24 21 -11
85 -47 158 -88 l43 -24 43 70 c49 79 50 77 -34 123 -105 57 -190 109 -197 119
-4 5 -3 17 2 25 4 8 4 25 -1 38 -5 13 -5 23 -1 23 9 0 7 53 -2 69 -4 5 -2 12
3 15 8 5 6 60 -3 75 -3 4 -1 13 4 21 4 7 4 24 -1 37 -5 12 -5 23 -1 23 9 0 7
64 -2 78 -3 5 -1 14 4 22 4 7 4 24 -1 37 -5 12 -5 23 -1 23 9 0 7 53 -2 69 -4
5 -2 12 3 15 8 5 6 60 -3 75 -3 4 -1 13 4 21 4 7 4 24 -1 37 -5 12 -5 23 -1
23 5 0 7 17 6 38 -3 37 -2 37 103 107 58 39 115 77 128 85 26 17 178 121 184
126 2 2 -3 12 -12 22 -10 10 -17 24 -17 30 0 7 -4 12 -10 12 -5 0 -10 7 -10
15 0 8 -3 15 -8 15 -4 0 -14 11 -23 25 l-15 25 -57 -40 c-32 -22 -60 -40 -63
-40 -4 0 -78 -52 -109 -78 -5 -4 -17 -11 -25 -15 -16 -7 -105 -69 -128 -88
-16 -14 -10 -17 -245 120 -49 28 -93 51 -98 51 -5 0 -9 5 -9 10 0 6 -5 10 -10
10 -6 0 -27 11 -48 23 -20 13 -64 39 -97 57 -33 18 -63 37 -66 42 -3 5 -10 8
-15 6 -5 -1 -10 26 -10 62 -1 36 -3 70 -4 75 -1 6 -1 12 0 15 7 17 4 200 -4
200 -5 0 -5 5 0 13 5 6 9 51 9 100 l0 87 45 0 46 0 -1 63 0 62 -303 3 -302 2
0 -65z m475 -790 c50 -29 107 -62 128 -74 20 -11 52 -29 70 -40 17 -10 96 -55
175 -101 102 -59 143 -88 146 -103 6 -30 2 -804 -4 -810 -5 -5 -228 -133 -503
-291 -93 -53 -174 -96 -181 -96 -6 0 -16 4 -22 9 -5 4 -34 22 -64 38 -64 35
-104 58 -178 102 -29 17 -57 31 -62 31 -6 0 -10 5 -10 10 0 6 -5 10 -11 10 -6
0 -24 9 -40 21 -16 11 -29 17 -29 12 0 -4 -4 -3 -8 3 -4 6 -45 32 -92 58 -131
74 -154 87 -173 101 -18 13 -19 35 -19 402 0 213 1 395 1 404 1 9 13 22 28 29
16 8 39 22 53 31 14 9 45 27 70 41 25 14 72 41 105 60 33 19 76 44 95 54 19
10 37 21 40 24 3 3 16 11 30 18 14 7 81 45 150 85 l125 74 45 -25 c25 -13 86
-48 135 -77z"/>
<path d="M698 2901 c-16 -18 -14 -21 23 -45 21 -14 43 -26 49 -26 5 0 10 -5
10 -12 0 -6 3 -8 7 -5 3 4 21 -5 40 -19 18 -14 33 -22 33 -18 0 4 8 1 18 -7 9
-8 28 -20 41 -27 13 -8 40 -23 60 -34 20 -11 39 -25 43 -32 4 -6 8 -8 8 -4 0
4 41 -17 92 -47 84 -49 93 -52 105 -37 7 9 13 22 13 27 0 9 -123 88 -140 90
-3 0 -16 8 -30 16 -61 39 -342 199 -348 199 -4 0 -15 -9 -24 -19z"/>
<path d="M1870 2911 c0 -5 -9 -13 -20 -16 -11 -4 -48 -23 -83 -44 -34 -21 -72
-41 -84 -45 -13 -4 -23 -12 -23 -17 0 -5 -7 -9 -15 -9 -8 0 -15 -5 -15 -12 0
-6 -3 -8 -6 -5 -4 4 -19 -2 -34 -13 -16 -11 -33 -20 -38 -20 -6 0 -12 -4 -14
-8 -1 -5 -34 -26 -73 -46 -94 -51 -99 -56 -80 -83 l15 -22 60 35 c33 19 88 50
123 70 34 20 78 45 97 56 19 11 78 45 130 76 52 31 98 57 102 57 16 0 18 15 6
34 -13 21 -48 29 -48 12z"/>
<path d="M3402 3205 c-1 -69 -2 -68 54 -65 23 1 33 -4 36 -17 2 -10 4 -124 3
-253 0 -224 -1 -235 -20 -245 -89 -46 -165 -98 -159 -108 4 -7 15 -23 24 -37
10 -14 26 -42 37 -62 l20 -37 154 89 154 89 35 -21 c19 -12 53 -31 76 -44 22
-12 58 -33 80 -46 21 -14 46 -28 54 -31 8 -4 29 -15 45 -26 17 -10 46 -27 65
-38 19 -11 59 -34 88 -52 29 -17 54 -31 56 -31 2 0 34 -18 70 -40 36 -22 70
-40 76 -40 5 0 10 -3 10 -8 0 -4 10 -12 23 -17 l22 -10 0 -404 0 -403 -27 -20
c-16 -11 -28 -16 -28 -11 0 4 -4 3 -8 -3 -4 -6 -38 -28 -77 -49 -38 -21 -72
-41 -75 -45 -3 -3 -20 -13 -37 -21 -18 -8 -33 -17 -33 -21 0 -5 -4 -8 -10 -8
-5 0 -31 -13 -58 -29 -27 -16 -74 -43 -103 -59 -30 -17 -97 -55 -149 -85 l-95
-56 -40 24 c-22 12 -58 33 -80 45 -22 12 -43 27 -47 34 -4 6 -8 8 -8 4 0 -6
-85 40 -150 82 -8 6 -32 18 -52 27 -21 10 -38 21 -38 26 0 4 -4 5 -10 2 -5 -3
-10 -2 -10 2 0 5 -26 22 -57 38 -32 17 -63 35 -69 41 -7 6 -26 17 -43 24 -17
7 -31 17 -31 22 0 5 -4 7 -8 4 -4 -2 -19 4 -32 14 l-25 19 0 401 0 401 95 57
c52 30 96 57 98 58 2 1 -16 36 -39 77 l-43 74 -103 -59 c-57 -32 -105 -58
-109 -58 -3 0 -60 32 -126 70 -66 39 -121 69 -123 68 -36 -54 -65 -101 -65
-109 0 -5 -5 -9 -11 -9 -5 0 -7 -4 -4 -10 3 -5 0 -10 -7 -10 -7 0 25 -22 72
-50 47 -27 104 -60 127 -74 l42 -25 -1 -401 -1 -400 -28 -21 c-16 -11 -29 -18
-29 -14 0 3 -10 -3 -22 -15 -12 -11 -30 -20 -39 -20 -10 0 -19 -4 -21 -9 -2
-7 -242 -148 -380 -224 -21 -12 -47 -26 -56 -32 -128 -76 -131 -77 -148 -61
-8 9 -22 16 -30 16 -8 0 -14 5 -14 10 0 6 -5 10 -10 10 -6 0 -39 18 -75 39
-36 22 -74 42 -85 46 -11 3 -20 11 -20 16 0 5 -5 9 -10 9 -6 0 -74 38 -153 83
-78 46 -169 99 -202 117 -33 18 -64 36 -69 41 -5 5 -10 71 -10 146 -1 76 -4
143 -8 148 -3 6 -42 10 -85 10 l-78 -1 -2 -109 c0 -61 -2 -122 -2 -136 -1 -23
-20 -34 -191 -117 -104 -51 -194 -92 -199 -92 -5 0 -16 -6 -23 -13 -7 -7 -25
-18 -40 -24 l-27 -12 34 -66 c19 -36 32 -65 27 -65 -4 0 0 -5 9 -10 12 -7 45
5 125 44 334 165 341 168 374 151 16 -8 33 -15 36 -14 4 0 10 -4 13 -9 3 -5
83 -53 176 -107 208 -119 226 -130 256 -147 13 -7 26 -15 29 -18 3 -3 25 -16
50 -29 25 -13 61 -34 80 -46 l35 -22 0 -237 c-1 -187 2 -236 12 -237 7 0 46 0
86 -1 l72 0 2 183 c1 101 2 203 2 225 1 40 3 43 62 78 33 20 64 36 69 36 5 0
15 6 22 13 7 7 38 27 68 44 85 47 125 69 260 148 69 40 141 82 160 93 19 11
49 27 66 37 l30 18 70 -40 c38 -23 85 -50 105 -61 75 -42 84 -47 99 -58 8 -6
40 -25 70 -41 30 -17 111 -62 178 -102 68 -39 126 -71 128 -71 2 0 12 -7 22
-15 16 -14 18 -36 16 -250 l-2 -235 27 -1 c14 0 45 -1 69 -2 23 -1 42 3 42 8
0 6 4 5 8 -2 22 -34 28 14 28 220 1 175 4 221 15 231 8 7 43 28 79 47 36 19
67 37 70 40 3 3 30 19 60 36 30 16 74 42 97 56 24 15 45 27 48 27 3 0 24 12
48 27 23 14 44 26 47 26 3 0 16 8 29 18 13 11 30 19 37 19 8 0 14 4 14 9 0 5
9 13 20 16 11 4 48 23 83 44 72 44 97 54 97 41 0 -6 3 -9 8 -9 4 1 10 0 15 -1
4 -1 10 -3 15 -5 4 -1 92 -43 195 -94 104 -51 190 -91 192 -89 10 12 65 130
65 141 0 11 -192 117 -220 122 -3 0 -48 22 -101 47 l-97 47 -4 45 c-2 25 1 46
6 46 5 0 5 5 0 13 -11 15 -11 38 -1 55 5 6 5 12 0 12 -10 0 -9 52 1 68 4 7 4
12 -1 12 -4 0 -8 18 -8 40 0 22 5 40 10 40 7 0 7 3 0 8 -6 4 -10 55 -10 117 0
62 4 113 10 117 7 5 6 8 0 8 -12 0 -13 40 -1 58 4 7 4 12 -1 12 -10 0 -9 52 1
68 4 7 3 12 -1 12 -5 0 -7 15 -5 33 3 26 14 39 55 67 29 19 57 37 62 39 6 2
12 7 15 11 3 4 30 23 60 42 65 43 199 135 216 149 9 7 2 24 -27 68 -50 75 -63
86 -80 69 -8 -7 -77 -56 -154 -108 -77 -52 -159 -107 -181 -123 l-41 -29 -44
25 c-97 57 -153 87 -161 87 -4 0 -8 5 -8 10 0 6 -4 10 -9 10 -13 0 -325 181
-333 194 -4 6 -8 7 -8 2 0 -6 -5 -5 -12 2 -15 15 -19 231 -5 250 6 8 6 12 -1
12 -11 0 -11 49 1 68 5 6 4 12 0 12 -5 0 -9 37 -8 83 l0 82 45 1 45 0 3 67 3
67 -304 0 -304 0 -1 -65z"/>
<path d="M1649 2076 c0 -1 -2 -11 -5 -24 -2 -14 2 -25 12 -29 19 -7 923 -10
932 -3 10 7 8 37 -1 47 -6 6 -933 15 -938 9z"/>
<path d="M3240 2060 c-10 -19 3 -45 19 -36 6 4 11 4 11 -1 0 -8 919 -12 921
-3 5 20 5 50 0 51 -3 1 -217 3 -474 4 -426 2 -469 0 -477 -15z"/>
</g>
</svg>
