<?xml version="1.0" encoding="utf-8"?>
<!-- Generator: Adobe Illustrator 17.0.0, SVG Export Plug-In . SVG Version: 6.00 Build 0)  -->
<!DOCTYPE svg PUBLIC "-//W3C//DTD SVG 1.1//EN" "http://www.w3.org/Graphics/SVG/1.1/DTD/svg11.dtd">
<svg version="1.1" id="Layer_1" xmlns="http://www.w3.org/2000/svg" xmlns:xlink="http://www.w3.org/1999/xlink" x="0px" y="0px"
	 width="99.265px" height="87.246px" viewBox="0 0 99.265 87.246" enable-background="new 0 0 99.265 87.246" xml:space="preserve">
<g>
	<path fill="#FFFFFF" d="M36.282,22.886c-0.031-0.006-0.063-0.011-0.094-0.017c-0.033-0.585-0.049-1.172-0.102-1.756
		c-0.268-2.941-1.223-5.563-3.446-7.637c-3.79-3.534-7.919-6.596-12.486-9.049c-3.039-1.632-6.201-2.922-9.684-3.265
		C4.818,0.605,0.709,4.34,0.776,10.011c0.025,2.162,0.552,4.228,1.339,6.222c2.544,6.446,6.513,11.957,11.223,16.974
		c1.249,1.33,2.781,2.197,4.523,2.699c3.086,0.89,6.183,0.722,9.289,0.095c2.806-0.567,5.229,0.184,7.143,2.315
		c8.054,8.966,16.074,17.963,24.127,26.929c5.297,5.898,10.618,11.776,15.954,17.64c1.58,1.736,3.536,2.838,5.913,3.099
		c3.236,0.355,5.661-2.034,5.346-5.27c-0.234-2.403-1.352-4.366-3.088-5.973c-2.896-2.681-5.82-5.331-8.757-7.967
		C61.84,56.054,49.876,45.352,37.935,34.625c-2.117-1.901-2.801-4.31-2.304-7.104C35.905,25.987,36.069,24.432,36.282,22.886z
		 M93.09,5.29c-0.137,0.129-0.252,0.239-0.368,0.348c-4.49,4.254-8.955,8.534-13.482,12.747c-1.688,1.572-3.517,2.994-5.291,4.472
		c-0.23,0.191-0.518,0.313-0.778,0.466c-0.035-0.04-0.071-0.08-0.106-0.12c0.111-0.211,0.196-0.441,0.338-0.628
		c0.525-0.694,1.025-1.414,1.612-2.054c4.165-4.548,8.341-9.085,12.532-13.609C88.692,5.677,89.9,4.5,91.053,3.323
		c-0.291-0.324-0.559-0.622-0.948-1.055c-0.149,0.217-0.252,0.439-0.417,0.596C85.56,6.802,81.45,10.76,77.28,14.653
		c-1.83,1.709-3.778,3.292-5.687,4.915c-0.393,0.334-0.85,0.592-1.278,0.885c-0.044-0.042-0.088-0.084-0.132-0.126
		c0.094-0.194,0.159-0.41,0.286-0.58c0.534-0.71,1.06-1.428,1.636-2.103c4.985-5.846,10.309-11.378,15.697-16.85
		c0.133-0.135,0.259-0.277,0.371-0.397c-0.23-0.485-0.509-0.475-0.878-0.237c-0.82,0.53-1.682,1-2.482,1.558
		c-6.449,4.496-12.294,9.713-17.979,15.118c-2.149,2.044-3.484,4.558-4.196,7.414c-0.393,1.574-0.706,3.174-0.503,4.799
		c0.34,2.718-0.388,5.028-2.438,6.875c-2.179,1.963-4.373,3.91-6.559,5.864c-0.152,0.136-0.297,0.28-0.469,0.442
		c1.568,1.403,3.084,2.759,4.619,4.132c0.176-0.194,0.307-0.336,0.436-0.481c1.893-2.122,3.784-4.247,5.681-6.366
		c1.689-1.887,3.835-2.587,6.32-2.455c0.987,0.052,1.991,0.108,2.967-0.009c3.784-0.451,7.121-1.88,9.804-4.672
		c4.067-4.232,7.94-8.634,11.59-13.232c1.824-2.298,3.585-4.642,5.044-7.198c0.246-0.432,0.161-0.668-0.272-0.857
		c-0.126,0.12-0.24,0.231-0.356,0.34C94,15.699,89.521,19.99,84.983,24.218c-1.662,1.548-3.461,2.95-5.207,4.406
		c-0.241,0.201-0.542,0.33-0.815,0.492c-0.055-0.192-0.049-0.288-0.001-0.351c5.361-7.121,11.814-13.249,17.896-19.712
		c-0.274-0.289-0.551-0.582-0.842-0.889c-0.147,0.136-0.263,0.242-0.378,0.351c-4.529,4.29-9.032,8.608-13.599,12.857
		c-1.689,1.571-3.524,2.984-5.302,4.459c-0.196,0.163-0.451,0.255-0.679,0.38c-0.032-0.044-0.065-0.088-0.097-0.132
		c0.12-0.212,0.218-0.439,0.362-0.633c0.436-0.584,0.868-1.172,1.339-1.727c5.05-5.957,10.464-11.575,15.938-17.137
		c0.132-0.135,0.257-0.277,0.367-0.395C93.661,5.878,93.392,5.601,93.09,5.29z M46.595,58.303c-1.793-2.002-3.541-3.953-5.303-5.92
		c-0.234,0.207-0.407,0.359-0.579,0.512c-2.674,2.397-5.354,4.787-8.019,7.193c-5.858,5.288-11.717,10.577-17.558,15.884
		c-1.566,1.424-2.617,3.179-3.001,5.285c-0.706,3.867,2.031,6.593,5.895,5.874c2.105-0.392,3.86-1.442,5.28-3.01
		c6.67-7.365,13.32-14.748,19.975-22.126C44.38,60.781,45.467,59.562,46.595,58.303z"/>
	<path fill="#FFFFFF" d="M36.282,22.886c-0.213,1.546-0.377,3.101-0.65,4.637c-0.497,2.794,0.187,5.203,2.304,7.104
		c11.942,10.727,23.905,21.429,35.853,32.149c2.937,2.635,5.862,5.286,8.757,7.967c1.736,1.607,2.854,3.571,3.088,5.973
		c0.315,3.235-2.11,5.625-5.346,5.27c-2.377-0.261-4.333-1.363-5.913-3.099c-5.336-5.863-10.657-11.741-15.954-17.64
		c-8.053-8.967-16.074-17.963-24.127-26.929c-1.914-2.131-4.337-2.882-7.143-2.315c-3.106,0.627-6.203,0.795-9.289-0.095
		c-1.742-0.502-3.275-1.369-4.523-2.699c-4.71-5.018-8.68-10.529-11.224-16.975c-0.787-1.994-1.314-4.06-1.339-6.222
		C0.709,4.341,4.818,0.606,10.47,1.163c3.483,0.343,6.645,1.633,9.684,3.265c4.567,2.452,8.696,5.514,12.486,9.049
		c2.224,2.074,3.178,4.696,3.446,7.637c0.053,0.584,0.069,1.171,0.102,1.756C36.22,22.874,36.251,22.88,36.282,22.886z"/>
	<path fill="#FFFFFF" d="M93.09,5.29c0.302,0.311,0.572,0.588,0.874,0.898c-0.11,0.119-0.234,0.261-0.367,0.395
		c-5.474,5.563-10.889,11.18-15.938,17.137c-0.471,0.555-0.903,1.143-1.339,1.727c-0.144,0.193-0.243,0.421-0.362,0.633
		c0.032,0.044,0.065,0.088,0.097,0.132c0.228-0.125,0.483-0.217,0.679-0.38c1.777-1.475,3.613-2.888,5.302-4.459
		c4.567-4.249,9.07-8.567,13.599-12.857c0.115-0.109,0.231-0.215,0.378-0.351c0.291,0.307,0.568,0.6,0.842,0.889
		c-6.081,6.463-12.535,12.591-17.896,19.712c-0.048,0.064-0.054,0.159,0.001,0.351c0.273-0.162,0.574-0.291,0.815-0.492
		c1.747-1.456,3.546-2.858,5.207-4.406c4.538-4.228,9.017-8.52,13.519-12.786c0.115-0.109,0.23-0.22,0.356-0.34
		c0.433,0.189,0.518,0.426,0.272,0.857c-1.459,2.556-3.22,4.9-5.044,7.198c-3.649,4.598-7.522,9-11.59,13.232
		c-2.683,2.792-6.02,4.221-9.804,4.672c-0.976,0.116-1.98,0.061-2.967,0.009c-2.485-0.132-4.631,0.568-6.32,2.455
		c-1.897,2.119-3.787,4.244-5.681,6.366c-0.129,0.145-0.261,0.288-0.436,0.481c-1.535-1.373-3.051-2.729-4.619-4.132
		c0.172-0.163,0.317-0.306,0.469-0.442c2.186-1.955,4.38-3.901,6.559-5.864c2.05-1.847,2.778-4.157,2.438-6.875
		c-0.203-1.625,0.111-3.225,0.503-4.799c0.713-2.856,2.047-5.371,4.196-7.414c5.686-5.407,11.532-10.623,17.98-15.119
		c0.8-0.558,1.662-1.028,2.482-1.558c0.369-0.238,0.648-0.248,0.878,0.237c-0.112,0.121-0.238,0.262-0.371,0.397
		C82.414,6.266,77.09,11.798,72.104,17.645c-0.576,0.675-1.102,1.393-1.636,2.103c-0.127,0.169-0.192,0.385-0.286,0.58
		c0.044,0.042,0.088,0.084,0.132,0.126c0.428-0.293,0.885-0.551,1.278-0.885c1.909-1.623,3.857-3.206,5.687-4.915
		c4.17-3.894,8.279-7.851,12.408-11.789c0.164-0.157,0.267-0.378,0.417-0.596c0.389,0.433,0.657,0.732,0.948,1.055
		c-1.153,1.177-2.361,2.354-3.506,3.589c-4.191,4.524-8.367,9.061-12.532,13.609c-0.586,0.64-1.087,1.36-1.612,2.054
		c-0.142,0.188-0.227,0.418-0.338,0.628c0.035,0.04,0.071,0.08,0.106,0.12c0.261-0.154,0.549-0.275,0.778-0.466
		c1.774-1.479,3.603-2.901,5.291-4.472c4.527-4.214,8.992-8.494,13.482-12.747C92.837,5.529,92.953,5.42,93.09,5.29z"/>
	<path fill="#FFFFFF" d="M46.595,58.303c-1.128,1.259-2.215,2.479-3.309,3.691c-6.655,7.378-13.305,14.761-19.975,22.126
		c-1.42,1.568-3.175,2.619-5.28,3.01c-3.864,0.719-6.601-2.006-5.895-5.874c0.385-2.106,1.435-3.861,3.001-5.285
		c5.841-5.308,11.7-10.596,17.558-15.884c2.665-2.406,5.345-4.796,8.019-7.193c0.171-0.154,0.345-0.305,0.579-0.512
		C43.054,54.349,44.802,56.3,46.595,58.303z"/>
</g>
</svg>
